<svg width="1549" height="406" viewBox="0 0 1549 406" fill="none" xmlns="http://www.w3.org/2000/svg">
<path d="M49.4968 343.291C55.877 318.467 64.4504 282.694 103.015 283.677L145.419 284.327C188.742 284.075 195.969 332.939 195.622 345.598L49.4968 343.291Z" fill="#10386A"/>
<path d="M104.719 252.844L146.963 253.551L146.091 283.147C130.523 291.802 116.554 290.898 103.847 282.44L104.719 252.844Z" fill="#F7CA92"/>
<path d="M104.746 264.714L145.922 277.484L146.432 259.054L104.871 260.194L104.746 264.714Z" fill="#F25746"/>
<path d="M125.617 262.115C180.056 263.023 225.334 224.898 226.749 176.959C228.164 129.021 185.179 89.4221 130.74 88.5134C76.3006 87.6046 31.022 125.73 29.6073 173.669C28.1925 221.607 71.1773 261.206 125.617 262.115Z" fill="#F7CA92"/>
<path d="M43.4477 204.782C28.4695 205.197 9.03197 204.001 8.15979 181.826C7.77652 172.08 13.2781 160.718 37.4998 169.73L43.4477 204.782Z" fill="#F7CA92"/>
<path d="M38.073 199.281C23.334 199.016 16.9465 192.898 17.2164 183.802C17.4863 174.705 25.5787 174.118 38.7284 177.549L38.073 199.281Z" fill="#FF5555"/>
<path d="M36.839 166.226C36.839 166.226 31.9212 168.842 31.159 167.518C26.2198 158.943 23.605 151.503 22.1136 142.002L18.0188 143.433C20.4012 128.46 22.0856 114.378 32.8168 104.173C27.0462 102.314 21.5537 99.2211 18.3925 95.0054C25.0613 89.1027 32.9454 84.0964 42.0929 80.0675C35.3302 73.2142 34.2169 68.2347 33.0577 63.8169C38.3397 70.4437 48.2204 74.0528 59.3075 75.7106C52.8647 65.7234 53.7734 61.4237 53.8189 56.4561C60.0741 64.2689 69.0879 70.2326 80.0775 74.8719C78.0609 65.2144 77.0251 55.2647 76.7264 44.8359C82.8533 49.6728 88.6506 54.5966 92.6658 59.9908C99.0374 52.6703 105.581 46.2207 112.506 41.7053C111.003 54.8364 108.42 65.808 104.659 79.0771L104.261 82.5076C106.568 73.8763 109.059 65.443 114.295 59.693C126.413 46.3848 138.025 39.1668 149.391 33.2598C147.287 45.1756 143.827 57.7487 138.928 71.018L135.353 82.0373C148.481 49.4302 165.439 54.5508 191.23 51.6477C185.403 65.6858 185.434 69.8823 171.181 77.2171L167.138 79.4346C281.653 23.7006 180.184 87.882 230.111 56.7607C228.748 63.4933 223.722 67.6101 218.712 71.7377C229.481 69.2171 239.044 64.0656 242.748 65.0959C232.901 89.2791 214.867 95.7968 188.612 98.5588C235.745 74.046 256.457 101.866 258.393 104.363L230.271 106.575C256.226 132.259 232.231 175.174 229.228 176.736C226.225 178.297 223.986 175.983 223.986 175.983C223.986 175.983 223.633 165.382 222.943 162.661C222.153 159.543 221.065 153.764 218.019 150.542C215.291 147.655 207.43 143.652 207.43 143.652C205.799 142.719 186.74 127.336 186.74 127.336L186.82 144.315C175.698 139.317 166.509 132.666 159.406 124.232L162.908 135.397C146.521 133.04 135.175 125.132 125.719 115.143L130.757 125.643C112.301 126.167 98.4779 120.214 85.4779 113.11L89.3206 130.018C73.9349 128.272 64.3646 123.621 52.6543 118.922L48.21 127.282C40.1423 139.762 38.1311 159.617 36.839 166.226Z" fill="#8F4A03"/>
<path d="M105.998 214.604C115.862 231.615 134.176 232.994 149.437 215.598" stroke="black" stroke-width="11.5904" stroke-linecap="round" stroke-linejoin="round"/>
<path d="M67.8976 183.898C77.8014 168.584 99.8067 177.917 102.305 187.663" stroke="black" stroke-width="16.2266" stroke-linecap="round" stroke-linejoin="round"/>
<path d="M157.343 189.409C167.235 174.117 181.854 181.981 186.697 190.34" stroke="black" stroke-width="16.2266" stroke-linecap="round" stroke-linejoin="round"/>
<path d="M166.444 154.727C175.135 153.022 180.635 153.286 185.511 157.059" stroke="black" stroke-width="12.7494" stroke-linecap="round" stroke-linejoin="round"/>
<path d="M70.5517 155.466C78.3902 151.465 83.7987 152.801 88.6775 156.582" stroke="black" stroke-width="12.7494" stroke-linecap="round" stroke-linejoin="round"/>
<path d="M72.7467 226.908C82.3147 227.067 90.287 219.897 90.5533 210.893C90.8197 201.89 83.2793 194.461 73.7113 194.302C64.1434 194.143 56.1711 201.313 55.9047 210.317C55.6384 219.321 63.1788 226.749 72.7467 226.908Z" fill="#EF972A"/>
<path d="M186.576 230.778C196.144 230.937 204.116 223.767 204.383 214.763C204.649 205.759 197.109 198.331 187.541 198.172C177.973 198.013 170 205.183 169.734 214.187C169.468 223.191 177.008 230.619 186.576 230.778Z" fill="#EF972A"/>
<path d="M127.92 206.348C131.469 206.407 134.427 203.747 134.525 200.407C134.624 197.067 131.827 194.311 128.278 194.252C124.728 194.193 121.771 196.853 121.672 200.193C121.574 203.533 124.371 206.289 127.92 206.348Z" fill="#C9570B"/>
<path d="M210.484 217.82C225.378 218.926 246.216 218.498 248.724 196.42C249.826 186.718 245.184 175.131 220.383 183.002L210.484 217.82Z" fill="#F7CA92"/>
<path d="M217.566 212.4C232.289 212.817 239.115 207.006 239.519 197.915C239.923 188.824 231.893 187.865 218.521 190.682L217.566 212.4Z" fill="#FF5555"/>
<path d="M344.944 381.179C347.968 352.785 351.674 311.95 392.261 307.9L436.825 302.97C482.22 296.916 497.018 350.171 498.524 364.264L344.944 381.179Z" fill="#0055D4"/>
<path d="M379.835 383.87L393.464 307.405L437.353 302.467L471.261 373.156L379.835 383.87Z" fill="#93A7AC"/>
<path d="M389.855 275.973L433.442 271.315L436.905 303.715C422.156 315.158 407.643 315.967 393.317 308.374L389.855 275.973Z" fill="#9F5131"/>
<path d="M391.254 289.068L436.266 297.745L434.078 277.262L390.717 284.044L391.254 289.068Z" fill="#8E3820"/>
<path d="M412.615 286.616C468.724 280.62 509.665 233.242 504.06 180.795C498.455 128.348 448.426 90.6922 392.318 96.6884C336.21 102.685 295.269 150.062 300.874 202.509C306.479 254.956 356.507 292.612 412.615 286.616Z" fill="#9F5131"/>
<path d="M315.126 236.559C299.893 238.918 279.87 240.096 275.724 216.116C273.902 205.577 277.852 192.532 303.907 199.236L315.126 236.559Z" fill="#9F5131"/>
<path d="M308.907 231.163C293.842 232.751 286.433 226.922 285.374 217.012C284.315 207.102 292.479 205.436 306.388 207.487L308.907 231.163Z" fill="#863129"/>
<path d="M386.699 238.665C399.607 256.366 419.122 255.42 432.65 233.872" stroke="black" stroke-width="11.5904" stroke-linecap="round" stroke-linejoin="round"/>
<path d="M441.037 162.669C450.016 159.502 455.895 159.026 461.623 162.631" stroke="black" stroke-width="12.7494" stroke-linecap="round" stroke-linejoin="round"/>
<path d="M347.079 172.15C354.807 166.514 360.739 167.272 366.467 170.877" stroke="black" stroke-width="12.7494" stroke-linecap="round" stroke-linejoin="round"/>
<path d="M350.763 255.033C360.6 253.982 367.723 245.155 366.672 235.317C365.62 225.479 356.793 218.356 346.955 219.408C337.118 220.459 329.995 229.287 331.046 239.124C332.098 248.962 340.925 256.085 350.763 255.033Z" fill="#642A1F"/>
<path d="M473.343 241.933C483.18 240.882 490.303 232.055 489.252 222.217C488.2 212.379 479.373 205.257 469.535 206.308C459.698 207.359 452.575 216.187 453.626 226.024C454.678 235.862 463.505 242.985 473.343 241.933Z" fill="#642A1F"/>
<path d="M406.83 224.659C410.479 224.269 413.122 220.995 412.732 217.346C412.342 213.696 409.067 211.054 405.418 211.444C401.768 211.834 399.126 215.109 399.516 218.758C399.906 222.407 403.181 225.049 406.83 224.659Z" fill="#C9570B"/>
<path d="M497.941 224.244C513.34 223.544 534.595 220.419 533.917 196.093C533.619 185.402 527.167 173.396 502.952 185.12L497.941 224.244Z" fill="#9F5131"/>
<path d="M504.364 217.404C519.445 215.982 525.556 208.803 524.634 198.88C523.712 188.956 515.38 188.936 502.152 193.698L504.364 217.404Z" fill="#863129"/>
<path d="M367.326 211.268C373.099 210.036 376.215 201.713 374.287 192.678C372.359 183.643 366.116 177.318 360.343 178.55C354.57 179.782 351.453 188.105 353.382 197.14C355.31 206.175 361.553 212.5 367.326 211.268Z" fill="#241C1C"/>
<path d="M449.813 202.052C443.91 202.067 439.105 194.591 439.08 185.353C439.056 176.115 443.821 168.613 449.724 168.598C455.627 168.582 460.432 176.058 460.456 185.296C460.481 194.535 455.716 202.036 449.813 202.052Z" fill="#241C1C"/>
<path d="M497.394 127.011L504.782 183.851C504.806 184.033 504.793 184.218 504.744 184.394C504.695 184.571 504.612 184.736 504.498 184.88C504.385 185.024 504.244 185.144 504.083 185.232C503.923 185.321 503.746 185.377 503.564 185.396L500.639 185.709C500.359 185.739 500.077 185.669 499.844 185.512C499.61 185.356 499.439 185.121 499.361 184.851L495.377 171.111L480.76 132.437" fill="#110402"/>
<path d="M300.251 143.751L299.718 199.016C299.717 199.158 299.743 199.3 299.797 199.432C299.851 199.564 299.931 199.683 300.031 199.784C300.132 199.885 300.252 199.965 300.384 200.019C300.516 200.073 300.657 200.101 300.799 200.099L303.563 200.078C303.983 200.074 304.388 199.924 304.707 199.652C305.027 199.38 305.24 199.004 305.31 198.59L307.619 184.972L317.729 144.882" fill="#110402"/>
<path d="M429.878 51.4003C423.411 51.6895 417.399 55.6796 413.886 62.0147C412.621 60.1937 410.991 58.4934 408.225 57.1659C388.552 54.3685 386.958 63.5878 381.995 70.5674C374.842 67.4265 366.494 66.573 356.912 68.0787C354.787 70.2552 353.62 73.2074 355.73 78.8034L352.378 80.8953C347.783 77.2951 341.923 75.6267 336.069 76.2521C323.788 77.5649 314.879 88.4122 316.168 100.481C316.247 101.222 316.397 101.954 316.566 102.68C311.075 103.425 306.055 106.147 302.476 110.317C292.522 112.953 285.997 122.968 287.157 133.828C288.447 145.898 298.705 154.699 310.069 153.484C315.312 152.92 320.129 150.254 323.536 146.026C329.263 144.972 334.354 141.766 337.726 137.088C340.496 137.883 343.398 138.142 346.273 137.852C351.193 137.306 355.796 135.171 359.361 131.782C363.496 132.848 368.588 133.133 373.758 132.587C384.27 131.462 392.99 127.171 394.662 122.299C398.974 124.15 405.143 124.831 411.506 124.158C418.456 123.415 424.809 121.146 428.554 118.069C430.718 122.062 436.095 124.365 441.84 123.76C446.537 123.258 450.674 120.885 452.696 117.535C455.549 119.823 459.474 121.612 463.742 122.569C469.157 123.771 472.154 127.983 476.024 126.344C477.01 130.184 479.432 133.281 482.769 134.967C489.81 138.486 501.317 130.44 505.477 122.506C509.636 114.571 507.3 105.284 500.26 101.763C497.971 100.631 495.365 100.213 492.712 100.551C492.901 100.229 493.082 99.9021 493.253 99.5701C497.68 90.9244 495.162 80.789 487.628 76.9314C483.705 74.9262 478.981 74.9557 474.661 77.0124C473.497 73.0964 470.967 69.9598 467.568 68.2172C461.701 65.2301 454.297 66.8764 449.176 72.3069C449.047 61.4752 442.008 52.6351 432.612 51.5032C431.706 51.3942 430.792 51.3598 429.878 51.4003Z" fill="#110402"/>
<path d="M663.34 368.305C669.715 338.766 678.207 296.21 721.373 296.513L768.823 296.336C817.274 295.072 826.857 352.777 826.857 367.776L663.34 368.305Z" fill="#428AED"/>
<path d="M745.628 308.516C761.138 308.516 773.712 304.574 773.712 299.712C773.712 294.85 761.138 290.908 745.628 290.908C730.117 290.908 717.544 294.85 717.544 299.712C717.544 304.574 730.117 308.516 745.628 308.516Z" fill="#0B24C9"/>
<path d="M722.432 262.646H768.824V297.131C752.016 307.514 736.653 306.733 722.432 297.131V262.646Z" fill="#F5BE7A"/>
<path d="M722.432 276.582L768.824 290.775V268.975L722.432 271.235V276.582Z" fill="#C9570B"/>
<path d="M853.316 175.33C851.991 231.136 804.905 276.404 745.186 276.404C685.468 276.404 643.885 230.733 637.057 175.33C628.285 104.157 674.392 73.4951 745.186 74.2564C805.102 74.9007 854.92 107.744 853.316 175.33Z" fill="#F5BE7A"/>
<path d="M648.226 212.764C631.93 213.534 610.726 212.521 609.061 186.821C608.329 175.525 613.952 162.242 640.617 172.227L648.226 212.764Z" fill="#F5BE7A"/>
<path d="M642.288 206.387C626.256 206.364 619.115 199.397 619.115 188.849C619.115 178.302 627.894 177.466 642.299 181.189L642.288 206.387Z" fill="#FF5555"/>
<path d="M723.307 223.029C734.9 243.108 755.542 244.308 772.201 223.154" stroke="black" stroke-width="11.5904" stroke-linecap="round" stroke-linejoin="round"/>
<path d="M789.034 149.168C798.839 146.846 805.079 147.006 810.702 151.444" stroke="black" stroke-width="12.7494" stroke-linecap="round" stroke-linejoin="round"/>
<path d="M689.094 148.579C697.86 143.518 704.017 144.982 709.64 149.42" stroke="black" stroke-width="12.7494" stroke-linecap="round" stroke-linejoin="round"/>
<path d="M683.649 236.214C694.12 236.214 702.608 227.726 702.608 217.255C702.608 206.784 694.12 198.296 683.649 198.296C673.178 198.296 664.69 206.784 664.69 217.255C664.69 227.726 673.178 236.214 683.649 236.214Z" fill="#C9570B"/>
<path d="M814.116 236.214C824.587 236.214 833.075 227.726 833.075 217.255C833.075 206.784 824.587 198.296 814.116 198.296C803.645 198.296 795.157 206.784 795.157 217.255C795.157 227.726 803.645 236.214 814.116 236.214Z" fill="#C9570B"/>
<path d="M746.066 210.555C749.95 210.555 753.099 207.406 753.099 203.522C753.099 199.638 749.95 196.489 746.066 196.489C742.181 196.489 739.033 199.638 739.033 203.522C739.033 207.406 742.181 210.555 746.066 210.555Z" fill="#C9570B"/>
<path d="M841.99 220.364C858.274 221.36 880.993 220.461 883.015 194.786C883.904 183.502 878.465 170.142 851.664 179.756L841.99 220.364Z" fill="#F5BE7A"/>
<path d="M849.52 213.889C865.55 214.089 872.787 207.221 872.933 196.675C873.079 186.128 864.314 185.171 849.858 188.694L849.52 213.889Z" fill="#FF5555"/>
<path d="M706.001 192.021C712.214 191.373 716.43 182.965 715.417 173.241C714.403 163.517 708.545 156.159 702.332 156.806C696.118 157.453 691.903 165.861 692.916 175.586C693.929 185.31 699.787 192.668 706.001 192.021Z" fill="#241C1C"/>
<path d="M793.84 191.599C787.627 190.952 783.411 182.544 784.424 172.82C785.437 163.095 791.296 155.737 797.509 156.385C803.723 157.032 807.938 165.44 806.925 175.164C805.912 184.888 800.053 192.247 793.84 191.599Z" fill="#241C1C"/>
<path d="M852.35 117.982L853.732 178.627C853.737 178.821 853.702 179.014 853.631 179.195C853.56 179.375 853.453 179.539 853.318 179.678C853.182 179.817 853.02 179.927 852.842 180.002C852.663 180.077 852.471 180.116 852.277 180.116H849.163C848.866 180.116 848.577 180.011 848.349 179.82C848.121 179.629 847.967 179.363 847.915 179.07L845.268 164.163L834.235 121.821" fill="#110402"/>
<path d="M643.01 113.428L636.233 171.524C636.216 171.674 636.228 171.826 636.27 171.97C636.312 172.115 636.382 172.251 636.477 172.368C636.572 172.485 636.688 172.583 636.821 172.655C636.954 172.726 637.099 172.771 637.25 172.786L640.16 173.074C640.602 173.118 641.046 173.004 641.412 172.754C641.779 172.504 642.046 172.132 642.166 171.705L646.127 157.633L661.275 116.583" fill="#110402"/>
<path d="M752.166 306.083H739.089C737.926 306.083 736.983 307.026 736.983 308.189V378.987C736.983 380.15 737.926 381.093 739.089 381.093H752.166C753.329 381.093 754.272 380.15 754.272 378.987V308.189C754.272 307.026 753.329 306.083 752.166 306.083Z" fill="#0B24C9"/>
<path d="M665.712 95.2746C668.465 123.014 648.566 151.75 636.586 172.826C610.051 122.184 622.872 90.8391 669.094 77.5482C674.045 68.1033 679.524 58.9809 692.675 54.553C702.148 42.092 717.843 37.6366 738.365 39.3896C762.372 28.5041 788.932 35.8168 811.505 46.2215L796.582 43.2222C844.653 66.1173 869.09 98.2919 853.879 146.034L849.28 171.44L842.043 137.747L745.734 97.5439L727.127 79.5477L735.786 95.5443L696.913 90.2121L697.283 95.8776L665.712 95.2746Z" fill="#110402"/>
<path d="M955.511 222.941L953.514 248L977.488 263.156L979.721 240.884L985.675 266.627L1005.68 273.025L1003.83 253.356L1010.69 274.008L1036.57 282.951L1036.28 266.171L1038.61 281.686L1078.69 285.745L1081.9 267.37L1084.4 269.255L1084.29 285.857L1143.23 274.721L1148.99 245.221L1147.58 273.15L1174.14 264.925L1177.63 211.129L1174.49 174.81C1173.7 146.142 1163.77 115.217 1135.66 92.6246C1093.39 58.6538 1034.07 63.1036 999.835 87.94C981.869 100.975 968.288 121.398 961.967 152.368L955.511 222.941Z" fill="#040816"/>
<mask id="mask0_2737_123" style="mask-type:luminance" maskUnits="userSpaceOnUse" x="992" y="275" width="124" height="84">
<path d="M992.235 350.364C994.47 321.234 1015.21 280.727 1042.95 275.529L1076.47 277.976C1114.74 291.444 1115.94 347.775 1115.12 358.369L992.235 350.364Z" fill="white"/>
</mask>
<g mask="url(#mask0_2737_123)">
<path d="M992.235 350.364C994.47 321.234 1015.21 280.727 1042.95 275.529L1076.47 277.976C1114.74 291.444 1115.94 347.776 1115.12 358.369L992.235 350.364Z" fill="#F9F9F9"/>
<path d="M1133.27 318.178L969.34 305.6C968.315 305.521 967.42 306.288 967.342 307.313L960.852 391.891C960.774 392.916 961.541 393.81 962.566 393.889L1126.5 406.467C1127.52 406.546 1128.42 405.778 1128.5 404.753L1134.99 320.176C1135.06 319.151 1134.3 318.256 1133.27 318.178Z" fill="#FFFF00"/>
</g>
<path d="M1058.79 293.208C1069.29 294.013 1078.17 289.9 1078.62 284.02C1079.07 278.141 1070.92 272.721 1060.42 271.916C1049.92 271.11 1041.04 275.223 1040.59 281.103C1040.14 286.982 1048.29 292.402 1058.79 293.208Z" fill="#C9570B"/>
<path d="M1045.06 257.733L1077.83 260.247L1075.96 284.604C1063.53 291.026 1052.72 289.642 1043.2 282.09L1045.06 257.733Z" fill="#F5BE7A"/>
<path d="M1044.78 261.51L1076.77 274.048L1077.95 258.651L1045.06 257.733L1044.78 261.51Z" fill="#C9570B"/>
<path d="M1151.87 198.61C1148.84 238.036 1107.06 267.359 1060.47 263.784C1013.88 260.21 978.952 224.183 981.977 184.757C983.094 170.196 980.311 140.259 991.3 121.714C1010.07 90.0444 1049.86 71.4745 1079.24 73.729C1109.51 76.0519 1142.75 108.85 1154.22 144.169C1160.41 163.201 1152.93 184.804 1151.87 198.61Z" fill="#F5BE7A"/>
<path d="M985.885 199.588C967.517 202.575 951.993 199.848 952.938 177.815C953.35 168.215 965.694 159.997 982.445 166.214L985.885 199.588Z" fill="#F5BE7A"/>
<path d="M981.273 193.805C974.923 196.579 960.003 195.267 960.688 186.34C961.373 177.412 969.097 173.63 979.902 177.325L981.273 193.805Z" fill="#FF5555"/>
<path d="M1046.54 216.295C1047.28 231.252 1069.16 239.179 1081.25 219.364" stroke="black" stroke-width="14.8402" stroke-linecap="round" stroke-linejoin="round"/>
<path d="M1105.03 157.232C1104.85 157.231 1104.67 157.271 1104.5 157.349C1104.34 157.426 1104.2 157.54 1104.08 157.682C1103.26 158.695 1102.98 160.008 1102.7 161.213C1102.42 162.418 1102.26 163.459 1102.26 163.459C1102.24 163.616 1102.25 163.775 1102.29 163.928C1102.33 164.081 1102.4 164.226 1102.49 164.352C1102.58 164.479 1102.7 164.586 1102.84 164.666C1102.97 164.747 1103.13 164.801 1103.28 164.823C1103.47 164.85 1103.67 164.829 1103.85 164.764C1103.91 164.928 1104 165.077 1104.12 165.202C1104.24 165.328 1104.38 165.426 1104.54 165.49C1104.76 165.574 1105 165.593 1105.23 165.543C1105.32 165.751 1105.46 165.931 1105.64 166.063C1105.83 166.194 1106.04 166.27 1106.27 166.283C1106.5 166.295 1106.72 166.243 1106.92 166.133C1106.96 166.367 1107.07 166.584 1107.23 166.756C1107.34 166.871 1107.48 166.963 1107.62 167.026C1107.77 167.09 1107.92 167.125 1108.08 167.128C1108.24 167.131 1108.4 167.102 1108.55 167.044C1108.69 166.986 1108.83 166.899 1108.94 166.789C1108.94 166.789 1109 166.732 1109.09 166.644C1108.93 166.911 1108.88 167.231 1108.95 167.536C1109.02 167.841 1109.2 168.106 1109.46 168.277C1109.67 168.41 1109.91 168.476 1110.16 168.466C1110.41 168.456 1110.64 168.371 1110.84 168.223C1110.84 168.25 1110.83 168.292 1110.83 168.292C1110.74 168.598 1110.78 168.927 1110.93 169.207C1111.09 169.487 1111.34 169.694 1111.65 169.784C1111.78 169.821 1111.92 169.835 1112.06 169.825C1112.16 170.11 1112.36 170.347 1112.63 170.491C1112.91 170.642 1113.24 170.675 1113.54 170.583C1113.85 170.491 1114.11 170.282 1114.26 170C1114.26 170 1114.51 169.433 1115.6 168.892C1115.74 168.821 1115.87 168.724 1115.97 168.604C1116.08 168.485 1116.16 168.346 1116.21 168.196C1116.26 168.046 1116.28 167.888 1116.27 167.73C1116.25 167.572 1116.21 167.418 1116.14 167.276C1116.02 167.034 1115.82 166.84 1115.57 166.725C1115.33 166.611 1115.05 166.583 1114.79 166.645C1114.99 166.471 1115.14 166.233 1115.19 165.968C1115.25 165.704 1115.21 165.428 1115.09 165.186C1114.98 164.971 1114.81 164.793 1114.6 164.676C1114.39 164.558 1114.15 164.506 1113.91 164.526C1114.06 164.388 1114.18 164.289 1114.24 164.262C1114.52 164.119 1114.74 163.869 1114.84 163.567C1114.94 163.264 1114.92 162.934 1114.78 162.648C1114.66 162.413 1114.47 162.223 1114.23 162.107C1113.99 161.992 1113.73 161.957 1113.47 162.009C1113.32 161.829 1113.13 161.694 1112.92 161.619C1112.7 161.543 1112.47 161.532 1112.24 161.585C1111.34 161.8 1110.57 162.3 1109.85 162.852C1110.2 162.53 1110.48 162.296 1110.58 162.252C1110.87 162.121 1111.1 161.879 1111.21 161.581C1111.32 161.282 1111.31 160.951 1111.18 160.66C1111.05 160.371 1110.81 160.144 1110.52 160.03C1110.37 159.972 1110.21 159.944 1110.05 159.947C1109.89 159.951 1109.74 159.985 1109.59 160.05C1108.96 160.331 1108.44 160.757 1107.96 161.234C1108.18 160.909 1108.36 160.671 1108.43 160.612C1108.68 160.416 1108.85 160.13 1108.89 159.814C1108.93 159.499 1108.84 159.18 1108.65 158.928C1108.55 158.804 1108.43 158.699 1108.29 158.622C1108.15 158.544 1108 158.495 1107.84 158.476C1107.52 158.436 1107.2 158.522 1106.95 158.717C1106.23 159.28 1105.74 160.047 1105.32 160.838C1105.57 160.041 1105.86 159.33 1105.96 159.202C1106.06 159.079 1106.14 158.938 1106.19 158.786C1106.23 158.635 1106.25 158.476 1106.23 158.318C1106.22 158.16 1106.17 158.007 1106.09 157.868C1106.02 157.728 1105.92 157.605 1105.79 157.505C1105.58 157.332 1105.32 157.237 1105.04 157.235L1105.03 157.232Z" fill="black"/>
<path d="M1010.12 227.298C1019.8 228.041 1028.25 220.796 1028.99 211.117C1029.73 201.438 1022.49 192.99 1012.81 192.247C1003.13 191.504 994.683 198.749 993.941 208.428C993.198 218.107 1000.44 226.555 1010.12 227.298Z" fill="#C9570B"/>
<path d="M1120.27 235.78C1130.62 236.574 1139.66 228.825 1140.45 218.472C1141.24 208.12 1133.5 199.083 1123.14 198.289C1112.79 197.494 1103.75 205.243 1102.96 215.596C1102.16 225.949 1109.91 234.985 1120.27 235.78Z" fill="#C9570B"/>
<path d="M1065.75 207.005C1070.06 207.336 1073.73 205.38 1073.94 202.637C1074.15 199.894 1070.82 197.401 1066.51 197.071C1062.2 196.74 1058.53 198.696 1058.32 201.439C1058.11 204.182 1061.44 206.674 1065.75 207.005Z" fill="#C9570B"/>
<path d="M1144.49 211.662C1162.19 217.416 1179.52 217.316 1181.95 195.396C1183 185.846 1169.16 177.84 1151.65 181.428L1144.49 211.662Z" fill="#F5BE7A"/>
<path d="M1149.94 206.649C1155.79 210.36 1170.73 211.34 1171.42 202.412C1172.1 193.484 1165.05 188.568 1153.8 190.571L1149.94 206.649Z" fill="#FF5555"/>
<path d="M974.064 148.037C996.218 149.265 1018.85 144.279 1042.07 124.471L1039.77 140.828C1054.78 133.923 1061.38 117.203 1070.47 103.384L1073.82 135.81C1080.84 121.423 1082.02 104.612 1084.2 89.4777C1090.35 110.809 1095.66 134.177 1117.03 145.859L1121.31 138.856L1121.7 149.36L1153.63 160.338L1163.06 161.024C1149.03 126.782 1135.48 73.7649 1079.24 73.7279C1062.85 68.364 1034.38 81.7318 1009.19 90.0126C990.719 105.298 982.986 127.024 974.064 148.037Z" fill="#040816"/>
<path d="M1028.37 195.511C1034.04 195.946 1039.19 189.105 1039.87 180.231C1040.55 171.357 1036.51 163.81 1030.84 163.375C1025.17 162.94 1020.02 169.782 1019.34 178.656C1018.66 187.53 1022.7 195.076 1028.37 195.511Z" fill="#241C1C"/>
<path d="M1098.72 200.935C1104.39 201.37 1109.54 194.529 1110.22 185.655C1110.9 176.781 1106.86 169.234 1101.19 168.799C1095.52 168.364 1090.37 175.205 1089.69 184.08C1089.01 192.954 1093.05 200.5 1098.72 200.935Z" fill="#241C1C"/>
<path d="M1032.8 151.365C1032.97 151.391 1033.15 151.458 1033.3 151.56C1033.45 151.662 1033.57 151.796 1033.66 151.954C1034.32 153.08 1034.39 154.421 1034.49 155.654C1034.58 156.888 1034.58 157.941 1034.58 157.941C1034.58 158.099 1034.54 158.255 1034.48 158.401C1034.42 158.546 1034.33 158.678 1034.22 158.789C1034.1 158.9 1033.97 158.987 1033.82 159.046C1033.68 159.105 1033.52 159.135 1033.36 159.134C1033.17 159.13 1032.98 159.081 1032.81 158.988C1032.73 159.141 1032.62 159.275 1032.48 159.381C1032.34 159.486 1032.18 159.561 1032.02 159.6C1031.79 159.65 1031.55 159.632 1031.33 159.547C1031.21 159.74 1031.04 159.896 1030.84 159.999C1030.64 160.1 1030.41 160.142 1030.19 160.12C1029.96 160.098 1029.75 160.012 1029.57 159.873C1029.49 160.098 1029.35 160.295 1029.16 160.441C1029.04 160.537 1028.89 160.608 1028.74 160.649C1028.59 160.69 1028.43 160.7 1028.27 160.679C1028.11 160.657 1027.96 160.605 1027.82 160.525C1027.69 160.445 1027.57 160.339 1027.47 160.212C1027.47 160.212 1027.42 160.147 1027.34 160.047C1027.46 160.336 1027.47 160.66 1027.35 160.95C1027.24 161.241 1027.01 161.475 1026.73 161.604C1026.5 161.704 1026.25 161.732 1026.01 161.685C1025.77 161.638 1025.55 161.517 1025.38 161.34C1025.37 161.368 1025.37 161.409 1025.37 161.409C1025.41 161.726 1025.33 162.045 1025.13 162.299C1024.94 162.552 1024.65 162.717 1024.34 162.759C1024.2 162.776 1024.06 162.768 1023.92 162.737C1023.78 163.003 1023.55 163.207 1023.26 163.309C1022.96 163.415 1022.63 163.398 1022.34 163.26C1022.05 163.123 1021.83 162.876 1021.73 162.576C1021.73 162.576 1021.56 161.976 1020.57 161.275C1020.44 161.184 1020.33 161.068 1020.24 160.934C1020.16 160.8 1020.1 160.651 1020.08 160.495C1020.05 160.339 1020.05 160.18 1020.09 160.025C1020.12 159.871 1020.19 159.725 1020.28 159.596C1020.44 159.375 1020.66 159.214 1020.92 159.138C1021.19 159.062 1021.46 159.077 1021.71 159.179C1021.54 158.976 1021.43 158.718 1021.42 158.448C1021.41 158.178 1021.48 157.912 1021.64 157.691C1021.78 157.495 1021.97 157.345 1022.2 157.261C1022.42 157.176 1022.67 157.162 1022.9 157.218C1022.78 157.059 1022.67 156.943 1022.62 156.907C1022.36 156.723 1022.18 156.443 1022.13 156.128C1022.08 155.814 1022.15 155.491 1022.33 155.23C1022.49 155.016 1022.71 154.857 1022.96 154.779C1023.21 154.701 1023.48 154.708 1023.73 154.798C1023.89 154.642 1024.1 154.538 1024.33 154.496C1024.55 154.455 1024.79 154.479 1025 154.566C1025.86 154.916 1026.55 155.528 1027.17 156.184C1026.88 155.812 1026.63 155.538 1026.54 155.479C1026.27 155.305 1026.09 155.031 1026.02 154.719C1025.96 154.407 1026.02 154.081 1026.19 153.814C1026.36 153.548 1026.63 153.36 1026.94 153.292C1027.1 153.258 1027.26 153.254 1027.42 153.282C1027.57 153.309 1027.72 153.368 1027.86 153.453C1028.43 153.828 1028.89 154.329 1029.29 154.873C1029.12 154.518 1028.98 154.255 1028.91 154.186C1028.7 153.954 1028.58 153.646 1028.59 153.328C1028.6 153.01 1028.73 152.709 1028.96 152.489C1029.08 152.381 1029.21 152.297 1029.36 152.241C1029.51 152.185 1029.67 152.16 1029.83 152.165C1030.15 152.174 1030.45 152.308 1030.67 152.539C1031.29 153.205 1031.66 154.038 1031.96 154.884C1031.83 154.058 1031.65 153.311 1031.57 153.169C1031.49 153.032 1031.44 152.881 1031.41 152.724C1031.39 152.568 1031.4 152.408 1031.44 152.255C1031.48 152.101 1031.55 151.957 1031.65 151.831C1031.74 151.704 1031.86 151.598 1032 151.518C1032.23 151.379 1032.51 151.325 1032.78 151.365L1032.8 151.365Z" fill="black"/>
<path d="M1100.11 87.0677C1101.15 90.9593 1104.55 95.8922 1109.44 101.474C1109.44 101.474 1114.85 110.352 1118.76 113.635C1119.46 114.226 1120.31 115.134 1121.2 114.908C1123.26 114.386 1125.56 113.16 1124.75 109.644C1121.16 93.9698 1098.93 82.6171 1100.11 87.0677Z" fill="#F9F9F9"/>
<path d="M1336.86 271.428L1462.01 252.544L1490.89 203.305L1494.86 166.776C1487.15 136.444 1471.48 105.798 1436.13 88.4855C1382.99 62.4546 1320.89 81.4172 1290.41 116.066C1274.4 134.251 1271.6 155.96 1272.3 190.446C1276.76 225.085 1301.62 259.531 1336.86 271.428Z" fill="#110402"/>
<path d="M1345.24 397.268C1340.63 365.72 1353 317.623 1381.28 305.438L1417.56 300.005C1461.53 305.167 1476.31 364.852 1477.99 376.325L1345.24 397.268Z" fill="#2EFD30"/>
<path d="M1402.39 320.461C1413.76 318.801 1422.22 312.294 1421.29 305.926C1420.36 299.558 1410.39 295.742 1399.02 297.402C1387.65 299.062 1379.18 305.57 1380.11 311.938C1381.04 318.305 1391.01 322.122 1402.39 320.461Z" fill="#C9570B"/>
<path d="M1379.27 285.984L1414.76 280.804L1418.61 307.183C1406.91 317.001 1395.07 318.119 1383.12 312.363L1379.27 285.984Z" fill="#9F5131"/>
<path d="M1379.87 290.074L1416.94 295.751L1414.5 279.076L1379.27 285.985L1379.87 290.074Z" fill="#8E3820"/>
<path d="M1478.8 197.433C1485.03 240.132 1447.58 281.369 1397.12 288.734C1346.66 296.099 1300.84 266.119 1294.61 223.42C1292.31 207.651 1282.17 176.447 1289.42 154.069C1301.8 115.853 1339.71 86.5427 1371.53 81.8976C1404.32 77.1116 1447.56 104.061 1468.25 138.91C1479.4 157.689 1476.62 182.481 1478.8 197.433Z" fill="#9F5131"/>
<path d="M1302.33 238.273C1283.49 245.857 1266.31 246.676 1262.03 222.992C1260.17 212.673 1271.34 200.964 1290.66 203.566L1302.33 238.273Z" fill="#9F5131"/>
<path d="M1296.03 233.221C1289.93 237.697 1273.74 239.878 1272.32 230.209C1270.91 220.541 1278.23 214.662 1290.62 216.005L1296.03 233.221Z" fill="#863129"/>
<path d="M1370.9 241.517C1375.28 257.262 1400.48 260.454 1408.59 236.461" stroke="black" stroke-width="13.2356" stroke-linecap="round" stroke-linejoin="round"/>
<path d="M1419.01 164.613C1418.82 164.655 1418.64 164.74 1418.48 164.862C1418.32 164.984 1418.2 165.14 1418.11 165.318C1417.48 166.594 1417.5 168.058 1417.49 169.409C1417.47 170.759 1417.56 171.905 1417.56 171.905C1417.57 172.077 1417.62 172.244 1417.7 172.398C1417.78 172.552 1417.89 172.689 1418.02 172.801C1418.15 172.913 1418.3 172.998 1418.46 173.052C1418.63 173.105 1418.8 173.126 1418.97 173.113C1419.18 173.095 1419.39 173.026 1419.57 172.913C1419.66 173.074 1419.8 173.211 1419.95 173.316C1420.11 173.42 1420.29 173.49 1420.48 173.52C1420.73 173.557 1420.99 173.519 1421.22 173.411C1421.36 173.612 1421.55 173.77 1421.78 173.867C1422.01 173.962 1422.26 173.991 1422.5 173.949C1422.75 173.908 1422.97 173.799 1423.16 173.634C1423.26 173.873 1423.43 174.078 1423.64 174.222C1423.79 174.317 1423.95 174.384 1424.12 174.417C1424.29 174.45 1424.46 174.449 1424.63 174.414C1424.8 174.379 1424.96 174.311 1425.11 174.214C1425.25 174.117 1425.37 173.992 1425.47 173.847C1425.47 173.847 1425.52 173.772 1425.59 173.658C1425.48 173.981 1425.51 174.334 1425.65 174.641C1425.8 174.949 1426.06 175.188 1426.38 175.307C1426.63 175.399 1426.91 175.411 1427.17 175.341C1427.43 175.272 1427.66 175.124 1427.83 174.919C1427.83 174.949 1427.83 174.996 1427.83 174.996C1427.8 175.343 1427.92 175.685 1428.15 175.946C1428.38 176.207 1428.71 176.366 1429.05 176.389C1429.21 176.396 1429.36 176.377 1429.5 176.333C1429.68 176.612 1429.95 176.817 1430.26 176.906C1430.43 176.952 1430.6 176.966 1430.78 176.945C1430.95 176.924 1431.11 176.87 1431.26 176.785C1431.41 176.7 1431.54 176.587 1431.65 176.451C1431.76 176.315 1431.84 176.159 1431.88 175.993C1431.88 175.993 1432.02 175.328 1433.05 174.491C1433.18 174.382 1433.29 174.248 1433.37 174.096C1433.45 173.944 1433.51 173.777 1433.52 173.605C1433.54 173.434 1433.52 173.26 1433.47 173.095C1433.42 172.929 1433.34 172.775 1433.23 172.642C1433.05 172.413 1432.79 172.254 1432.5 172.191C1432.21 172.128 1431.91 172.165 1431.64 172.295C1431.82 172.06 1431.91 171.772 1431.91 171.477C1431.9 171.182 1431.8 170.898 1431.61 170.669C1431.45 170.466 1431.22 170.317 1430.97 170.242C1430.72 170.167 1430.45 170.169 1430.2 170.248C1430.33 170.065 1430.43 169.932 1430.48 169.889C1430.75 169.669 1430.92 169.351 1430.96 169.004C1430.99 168.658 1430.89 168.312 1430.67 168.042C1430.49 167.819 1430.24 167.663 1429.96 167.597C1429.68 167.531 1429.38 167.558 1429.12 167.675C1428.93 167.518 1428.69 167.42 1428.44 167.392C1428.19 167.363 1427.94 167.407 1427.72 167.517C1426.81 167.962 1426.1 168.68 1425.47 169.44C1425.77 169.014 1426.01 168.697 1426.11 168.626C1426.39 168.416 1426.57 168.105 1426.62 167.76C1426.67 167.415 1426.58 167.065 1426.37 166.787C1426.16 166.51 1425.85 166.326 1425.51 166.275C1425.34 166.249 1425.16 166.257 1424.99 166.299C1424.82 166.341 1424.67 166.415 1424.53 166.519C1423.93 166.969 1423.46 167.549 1423.07 168.171C1423.23 167.772 1423.36 167.475 1423.43 167.395C1423.65 167.126 1423.75 166.782 1423.72 166.436C1423.69 166.091 1423.52 165.773 1423.25 165.552C1423.12 165.442 1422.96 165.361 1422.8 165.311C1422.63 165.262 1422.46 165.245 1422.28 165.263C1421.94 165.296 1421.62 165.465 1421.4 165.733C1420.76 166.505 1420.42 167.439 1420.17 168.382C1420.24 167.474 1420.38 166.646 1420.46 166.485C1420.54 166.331 1420.59 166.163 1420.6 165.99C1420.61 165.818 1420.59 165.645 1420.53 165.481C1420.48 165.317 1420.39 165.165 1420.28 165.035C1420.17 164.904 1420.03 164.797 1419.87 164.72C1419.61 164.587 1419.3 164.549 1419.01 164.613Z" fill="black"/>
<path d="M1334.77 261.961C1345.25 260.431 1352.51 250.693 1350.98 240.211C1349.45 229.728 1339.71 222.471 1329.23 224.001C1318.75 225.531 1311.49 235.269 1313.02 245.752C1314.55 256.234 1324.29 263.492 1334.77 261.961Z" fill="#642A1F"/>
<path d="M1454.07 244.581C1465.28 242.945 1473.04 232.529 1471.4 221.316C1469.77 210.104 1459.35 202.342 1448.14 203.978C1436.93 205.615 1429.17 216.031 1430.8 227.243C1432.44 238.455 1442.85 246.218 1454.07 244.581Z" fill="#642A1F"/>
<path d="M1389.13 227.02C1393.8 226.339 1397.23 223.378 1396.8 220.407C1396.36 217.435 1392.23 215.58 1387.56 216.261C1382.89 216.943 1379.45 219.904 1379.89 222.875C1380.32 225.846 1384.46 227.702 1389.13 227.02Z" fill="#C9570B"/>
<path d="M1474.08 213.097C1494.3 214.979 1512.72 210.717 1510.05 186.8C1508.89 176.379 1492.22 171.176 1474.45 179.194L1474.08 213.097Z" fill="#9F5131"/>
<path d="M1478.67 206.455C1485.79 209.002 1501.93 206.462 1500.52 196.793C1499.11 187.125 1490.42 183.582 1478.93 188.41L1478.67 206.455Z" fill="#863129"/>
<path d="M1346.58 223.744C1352.72 222.848 1356.56 214.33 1355.16 204.719C1353.76 195.109 1347.64 188.044 1341.5 188.941C1335.36 189.837 1331.52 198.355 1332.92 207.965C1334.33 217.576 1340.44 224.641 1346.58 223.744Z" fill="#241C1C"/>
<path d="M1422.78 212.651C1428.92 211.754 1432.76 203.237 1431.35 193.626C1429.95 184.015 1423.84 176.951 1417.7 177.847C1411.55 178.744 1407.71 187.261 1409.12 196.872C1410.52 206.483 1416.63 213.547 1422.78 212.651Z" fill="#241C1C"/>
<path d="M1340.7 175.686C1340.9 175.671 1341.1 175.701 1341.28 175.773C1341.47 175.846 1341.63 175.959 1341.77 176.104C1342.74 177.146 1343.14 178.555 1343.54 179.846C1343.93 181.136 1344.18 182.259 1344.18 182.259C1344.21 182.428 1344.22 182.602 1344.19 182.771C1344.16 182.941 1344.09 183.103 1344 183.248C1343.9 183.393 1343.78 183.518 1343.64 183.616C1343.5 183.714 1343.34 183.784 1343.17 183.82C1342.96 183.863 1342.75 183.856 1342.55 183.798C1342.5 183.98 1342.41 184.15 1342.29 184.295C1342.17 184.441 1342.02 184.558 1341.85 184.64C1341.62 184.748 1341.36 184.786 1341.1 184.749C1341.03 184.981 1340.89 185.188 1340.7 185.345C1340.51 185.502 1340.27 185.601 1340.03 185.632C1339.78 185.662 1339.53 185.622 1339.31 185.517C1339.28 185.775 1339.18 186.019 1339.01 186.219C1338.9 186.352 1338.77 186.461 1338.61 186.542C1338.46 186.622 1338.29 186.671 1338.12 186.686C1337.95 186.701 1337.77 186.682 1337.61 186.63C1337.44 186.578 1337.29 186.493 1337.16 186.381C1337.16 186.381 1337.09 186.324 1336.98 186.236C1337.18 186.514 1337.26 186.858 1337.21 187.195C1337.16 187.532 1336.97 187.836 1336.7 188.041C1336.49 188.201 1336.23 188.291 1335.96 188.299C1335.69 188.306 1335.42 188.231 1335.2 188.084C1335.21 188.113 1335.23 188.157 1335.23 188.157C1335.35 188.483 1335.33 188.844 1335.19 189.16C1335.04 189.477 1334.77 189.722 1334.45 189.842C1334.3 189.893 1334.15 189.918 1334 189.917C1333.91 190.235 1333.71 190.508 1333.44 190.684C1333.29 190.776 1333.13 190.838 1332.96 190.867C1332.79 190.896 1332.61 190.892 1332.44 190.853C1332.28 190.815 1332.12 190.744 1331.98 190.644C1331.84 190.544 1331.72 190.418 1331.62 190.272C1331.62 190.272 1331.3 189.674 1330.08 189.165C1329.92 189.099 1329.78 189.002 1329.65 188.88C1329.53 188.757 1329.44 188.612 1329.37 188.453C1329.3 188.293 1329.27 188.122 1329.27 187.949C1329.27 187.777 1329.3 187.606 1329.37 187.446C1329.49 187.173 1329.69 186.947 1329.95 186.804C1330.21 186.661 1330.51 186.61 1330.8 186.659C1330.56 186.485 1330.39 186.236 1330.31 185.952C1330.23 185.668 1330.25 185.365 1330.36 185.093C1330.46 184.85 1330.63 184.644 1330.85 184.5C1331.07 184.356 1331.33 184.282 1331.59 184.286C1331.42 184.147 1331.28 184.048 1331.22 184.022C1330.9 183.888 1330.64 183.632 1330.51 183.311C1330.38 182.989 1330.38 182.627 1330.51 182.306C1330.62 182.041 1330.82 181.82 1331.07 181.676C1331.32 181.533 1331.61 181.475 1331.89 181.512C1332.03 181.306 1332.23 181.144 1332.46 181.046C1332.69 180.948 1332.94 180.918 1333.19 180.959C1334.19 181.126 1335.07 181.612 1335.89 182.16C1335.49 181.835 1335.16 181.603 1335.05 181.562C1334.72 181.44 1334.46 181.194 1334.31 180.878C1334.17 180.561 1334.16 180.2 1334.28 179.874C1334.4 179.549 1334.64 179.284 1334.95 179.138C1335.11 179.063 1335.28 179.021 1335.45 179.013C1335.63 179.005 1335.8 179.031 1335.96 179.09C1336.67 179.35 1337.28 179.774 1337.83 180.258C1337.57 179.921 1337.35 179.674 1337.27 179.616C1336.98 179.422 1336.78 179.121 1336.71 178.781C1336.65 178.44 1336.72 178.087 1336.91 177.799C1337.01 177.656 1337.13 177.533 1337.28 177.438C1337.42 177.344 1337.58 177.278 1337.75 177.246C1338.1 177.179 1338.45 177.249 1338.74 177.442C1339.57 178.001 1340.16 178.799 1340.67 179.63C1340.34 178.781 1339.97 178.028 1339.85 177.896C1339.73 177.771 1339.64 177.623 1339.58 177.461C1339.52 177.299 1339.49 177.127 1339.49 176.955C1339.5 176.782 1339.54 176.612 1339.61 176.454C1339.68 176.297 1339.78 176.155 1339.91 176.037C1340.13 175.833 1340.41 175.709 1340.7 175.686Z" fill="black"/>
<path d="M1362.33 359.875L1361.69 369.857L1456.57 357.52L1452.91 346.77L1362.33 359.875Z" fill="#F5BE7A"/>
<path d="M1362.38 381.333L1366.37 393.547L1458.98 379.215L1458.21 368.391L1362.38 381.333Z" fill="#FF1800"/>
<path d="M1270.17 80.5776C1243.61 82.1525 1245.77 87.6976 1269.01 96.1536C1280.8 99.16 1292.48 98.9467 1304.08 96.4254L1316.17 88.9003C1321.06 80.6109 1322.87 71.2491 1325.21 62.0705C1326.27 54.4637 1329.98 46.9216 1326.36 39.2013C1322.48 30.3719 1313.53 34.454 1313.29 40.6395L1312.84 52.0058L1310.71 51.702L1304.88 37.4626C1296.74 24.0697 1286.98 29.8511 1277.05 37.5947L1271.61 51.1722C1266.99 48.2452 1264.05 49.0749 1258.43 51.433C1252.81 53.7911 1246.7 59.8348 1254.28 71.2335C1259 75.4684 1263.88 79.3905 1270.17 80.5776Z" fill="#110402"/>
<path d="M1317.74 85.3943L1302.38 94.7882C1301.31 95.4444 1300.97 96.8464 1301.63 97.9195L1303.55 101.056C1304.2 102.129 1305.6 102.467 1306.68 101.811L1322.04 92.4167C1323.11 91.7604 1323.45 90.3585 1322.79 89.2854L1320.87 86.1492C1320.22 85.076 1318.82 84.7381 1317.74 85.3943Z" fill="#FFF200"/>
<path d="M1428.09 83.8053L1439.59 87.2552C1463.41 90.8642 1481.4 88.3278 1490.59 77.7669C1499.56 65.9238 1491.76 71.4378 1486.68 74.1428C1512.8 45.3481 1500.3 40.8857 1482.67 45.748C1480.74 38.7851 1482.1 30.2738 1474.1 26.1597C1464.45 16.2009 1453.63 13.6293 1442.02 16.0604C1434.16 17.0298 1432.14 26.7502 1431.05 37.8743L1427.07 29.2182C1414.92 13.3496 1413.98 25.8333 1410.41 31.6904C1410.81 46.0557 1414.79 62.903 1422.07 77.7469L1428.09 83.8053Z" fill="#110402"/>
<path d="M1423.7 76.2988L1439.65 84.653C1440.77 85.2366 1441.2 86.6131 1440.61 87.7274L1438.91 90.9839C1438.32 92.0982 1436.95 92.5284 1435.83 91.9448L1419.88 83.5906C1418.77 83.007 1418.34 81.6306 1418.92 80.5163L1420.63 77.2597C1421.21 76.1454 1422.59 75.7152 1423.7 76.2988Z" fill="#FFF200"/>
<path d="M1425.47 159.665C1414.94 161.3 1403.75 165.184 1399.95 170.454C1394.89 177.48 1395.8 178.077 1397.63 187.744C1399.22 211.549 1422.41 221.943 1440.18 219.35C1455.51 217.112 1478.47 205.262 1474.19 175.921C1476.13 189.209 1482.26 158.76 1474.65 155.299C1467.04 151.837 1444.87 158.77 1435.48 158.812C1432.42 158.825 1428.98 159.12 1425.47 159.665ZM1333.59 173.41C1331.15 173.765 1328.79 174.268 1326.58 174.915C1317.57 177.559 1297.03 177.181 1290.73 182.673C1284.43 188.165 1292.71 187.583 1294.65 200.871C1298.93 230.211 1321.81 238.929 1339.32 234.932C1356.82 230.934 1376.67 213.583 1371.39 190.315C1370.38 180.529 1368.43 182.69 1361.57 177.405C1355.99 173.111 1344.14 171.872 1333.59 173.41Z" fill="white" fill-opacity="0.3"/>
<path d="M1487.26 147.743C1485.33 146.959 1481.01 147.536 1481.01 147.536L1455.56 150.74C1413.92 155.981 1401.55 160.177 1392.93 171.989C1390.98 174.667 1388.95 176.881 1388.44 176.91C1387.92 176.94 1384.51 176.76 1380.85 176.507C1377.19 176.255 1373.65 176.352 1372.98 176.725C1372.29 177.112 1370.93 176.054 1369.8 174.261C1367.05 169.864 1359.51 167.762 1347.9 168.154C1342.84 168.324 1325.15 170.585 1308.57 173.18L1278.44 177.9L1275.91 178.48C1275.91 178.48 1272.73 178.786 1271.79 182.331C1270.85 185.876 1272.93 195.561 1277.89 199.571C1279.24 200.663 1284.08 200.464 1284.08 200.464L1287.14 205.044C1288.82 207.563 1292.86 213.705 1296.13 218.688C1300.16 224.857 1304.15 229.354 1308.49 232.935C1322.74 244.7 1330.35 244.021 1356.5 232.755C1360.14 231.188 1364.2 225.645 1366.75 221.946C1370.98 215.783 1377.18 200.993 1376.75 197.934C1376.46 195.844 1380.38 191.6 1384.65 191.334C1387.06 191.328 1390.47 193.604 1391.77 195.505C1391.87 196.168 1394.33 200.227 1397.25 204.525C1403.06 213.093 1409.31 218.703 1417.95 220.665C1441.67 226.052 1455.53 224.141 1467.4 208.217C1472.19 201.796 1477.94 190.057 1480.55 181.001C1482.22 175.228 1483.38 173.354 1487.8 169.394C1491.01 166.516 1495.13 159.172 1493.84 153.725C1493.16 150.84 1490 148.857 1487.26 147.743ZM1445.76 160.58C1451.38 159.786 1457.08 158.501 1461.44 158.494C1467.67 158.483 1472.83 159.635 1473.39 160.059C1474.9 161.178 1472.77 174.245 1469.42 184.499C1465.56 196.307 1460.85 204.587 1456.02 208.081C1451 211.706 1434.03 215.106 1427.71 213.75C1413.2 210.636 1403.91 202.204 1400.54 189.084C1398.92 182.811 1400.29 174.832 1403.36 172.563C1409.22 168.231 1428.92 162.959 1445.76 160.58ZM1309.4 181.553C1314.65 180.838 1321.02 180.072 1327.25 179.428C1347.27 177.355 1350.48 177.264 1354.96 178.643C1366.03 182.058 1368.18 186.906 1365.11 201.568C1363.03 211.478 1358.23 219.396 1351.41 224.164C1342.86 230.142 1323.65 231.998 1316.78 227.509C1313.6 225.427 1303.91 214.37 1303.09 211.89C1302.73 210.809 1302.17 209.728 1301.84 209.489C1301.33 209.124 1298.8 203.597 1296.45 197.737C1296.13 196.922 1295.14 194.717 1294.26 192.838C1291 185.873 1291.31 185.146 1298.31 183.371C1300.04 182.932 1304.16 182.268 1309.4 181.553Z" fill="black"/>
<path d="M1285.33 173.55C1286.28 175.719 1292.54 147.009 1294.15 148.47C1307.38 160.461 1340.2 160.937 1357.56 160.987C1370.97 161.026 1366.95 155.922 1363.12 153.691L1352.58 147.541L1353.4 146.969L1411.01 157.406C1415.88 157.994 1415.94 155.438 1415.09 152.288L1405.16 119.361L1472.27 138.471L1460.89 114.516C1443.59 108.55 1427.38 72.5877 1377.21 80.7714C1348.79 79.091 1320.28 98.2493 1291.77 120.382L1284.02 133.281L1285.33 173.55Z" fill="#110402"/>
<path d="M1396.95 91.0934C1398.99 94.9886 1403.8 99.4229 1410.34 104.193C1410.34 104.193 1418.22 112.349 1423.18 114.907C1424.07 115.367 1425.19 116.13 1426.08 115.675C1428.14 114.628 1430.3 112.77 1428.6 109.22C1421.01 93.3956 1394.63 86.6387 1396.95 91.0934Z" fill="#F9F9F9"/>
<path d="M1281.6 191.13C1283.28 190.886 1284.44 189.327 1284.2 187.65C1283.95 185.973 1282.4 184.812 1280.72 185.057C1279.04 185.301 1277.88 186.859 1278.12 188.537C1278.37 190.214 1279.93 191.375 1281.6 191.13Z" fill="white"/>
<path d="M1484.84 161.464C1486.51 161.22 1487.68 159.661 1487.43 157.984C1487.19 156.307 1485.63 155.146 1483.95 155.39C1482.27 155.635 1481.11 157.193 1481.36 158.871C1481.6 160.548 1483.16 161.709 1484.84 161.464Z" fill="white"/>
</svg>
