<svg width="932" height="740" viewBox="0 0 932 740" fill="none" xmlns="http://www.w3.org/2000/svg">
<rect width="932" height="740" rx="20" fill="#286CFF"/>
<g filter="url(#filter0_dd_3063_2093)">
<rect x="166" y="253" width="601" height="233" rx="24" fill="white"/>
<rect x="166.25" y="253.25" width="600.5" height="232.5" rx="23.75" stroke="black" stroke-opacity="0.2" stroke-width="0.5"/>
<circle cx="214" cy="301" r="24" fill="#E9F0FF"/>
<path d="M209.333 295C209.333 293.65 210.527 292.333 212 292.333C213.472 292.333 214.666 293.428 214.666 294.778C214.666 295.264 214.511 295.718 214.244 296.099C213.447 297.234 212 298.317 212 299.667" stroke="#286CFF" stroke-width="1.5" stroke-linecap="round"/>
<path d="M212 303H212.012" stroke="#286CFF" stroke-width="2" stroke-linecap="round" stroke-linejoin="round"/>
<path d="M208.667 311C210.067 312.16 211.753 312.898 213.685 313.025C215.207 313.125 216.796 313.125 218.316 313.025C218.839 312.991 219.409 312.868 219.9 312.668C220.446 312.446 220.72 312.335 220.859 312.352C220.997 312.369 221.199 312.515 221.602 312.808C222.312 313.325 223.207 313.697 224.534 313.665C225.205 313.649 225.541 313.641 225.691 313.388C225.841 313.135 225.654 312.785 225.28 312.085C224.761 311.115 224.432 310.004 224.931 309.114C225.789 307.842 226.518 306.336 226.624 304.71C226.681 303.836 226.681 302.931 226.624 302.057C226.553 300.973 226.29 299.943 225.869 299" stroke="#286CFF" stroke-width="1.5" stroke-linecap="round" stroke-linejoin="round"/>
<path d="M214.315 307.692C218.777 307.399 222.331 303.842 222.623 299.376C222.681 298.503 222.681 297.597 222.623 296.724C222.331 292.258 218.777 288.701 214.315 288.408C212.793 288.308 211.203 288.309 209.684 288.408C205.222 288.701 201.668 292.258 201.376 296.724C201.319 297.597 201.319 298.503 201.376 299.376C201.482 301.003 202.211 302.509 203.069 303.78C203.568 304.671 203.239 305.782 202.72 306.752C202.346 307.452 202.159 307.802 202.309 308.055C202.459 308.307 202.795 308.315 203.466 308.331C204.793 308.363 205.688 307.992 206.398 307.475C206.801 307.182 207.003 307.035 207.141 307.018C207.28 307.002 207.554 307.113 208.1 307.335C208.591 307.534 209.161 307.657 209.684 307.692C211.203 307.791 212.793 307.792 214.315 307.692Z" stroke="#286CFF" stroke-width="1.5" stroke-linejoin="round"/>
<path d="M276.064 305.056C276.064 308.2 273.76 310 270.184 310H263.872V292.768H269.848C273.328 292.768 275.416 294.376 275.416 297.28C275.416 298.912 274.432 300.304 272.776 301.024C274.912 301.624 276.064 303.088 276.064 305.056ZM269.68 294.88H266.296V300.064H269.68C271.768 300.064 272.896 299.08 272.896 297.472C272.896 295.864 271.768 294.88 269.68 294.88ZM270.016 302.176H266.296V307.888H270.016C272.272 307.888 273.544 306.808 273.544 304.984C273.544 303.232 272.272 302.176 270.016 302.176ZM285.658 310V308.032C284.866 309.448 283.45 310.24 281.578 310.24C278.938 310.24 277.21 308.728 277.21 306.4C277.21 303.904 279.202 302.608 282.994 302.608C283.738 302.608 284.338 302.632 285.37 302.752V301.816C285.37 299.992 284.386 298.96 282.706 298.96C280.93 298.96 279.85 300.016 279.778 301.792H277.57C277.69 298.936 279.73 297.04 282.706 297.04C285.85 297.04 287.674 298.816 287.674 301.84V310H285.658ZM279.514 306.328C279.514 307.648 280.498 308.512 282.058 308.512C284.098 308.512 285.37 307.24 285.37 305.296V304.264C284.434 304.144 283.762 304.12 283.138 304.12C280.714 304.12 279.514 304.84 279.514 306.328ZM300.035 306.208C300.035 308.704 298.091 310.24 294.707 310.24C291.347 310.24 289.355 308.584 289.115 305.848H291.443C291.539 307.432 292.811 308.416 294.755 308.416C296.459 308.416 297.587 307.816 297.587 306.616C297.587 305.56 296.939 305.104 295.355 304.792L293.291 304.408C290.939 303.952 289.619 302.752 289.619 300.832C289.619 298.6 291.563 297.04 294.515 297.04C297.563 297.04 299.627 298.672 299.843 301.288H297.515C297.371 299.752 296.243 298.864 294.539 298.864C293.003 298.864 291.971 299.512 291.971 300.616C291.971 301.648 292.619 302.128 294.155 302.416L296.315 302.824C298.835 303.28 300.035 304.384 300.035 306.208ZM306.954 310.24C303.282 310.24 300.81 307.576 300.81 303.568C300.81 299.8 303.378 297.04 306.882 297.04C310.674 297.04 313.194 300.112 312.762 304.24H303.282C303.474 306.832 304.77 308.344 306.906 308.344C308.706 308.344 309.954 307.36 310.362 305.704H312.762C312.138 308.536 309.954 310.24 306.954 310.24ZM306.834 298.864C304.89 298.864 303.57 300.256 303.306 302.632H310.194C310.074 300.28 308.802 298.864 306.834 298.864ZM316.827 310H314.379V292.768H316.827V310ZM322.184 294.328C322.184 295.24 321.464 295.936 320.432 295.936C319.4 295.936 318.656 295.24 318.656 294.328C318.656 293.392 319.4 292.72 320.432 292.72C321.464 292.72 322.184 293.392 322.184 294.328ZM321.656 310H319.232V297.28H321.656V310ZM326.485 302.824V310H324.061V297.28H326.317V299.392C327.181 297.976 328.621 297.04 330.373 297.04C332.989 297.04 334.717 298.72 334.717 301.768V310H332.293V302.584C332.293 300.4 331.333 299.176 329.533 299.176C327.877 299.176 326.485 300.568 326.485 302.824ZM342.208 310.24C338.536 310.24 336.064 307.576 336.064 303.568C336.064 299.8 338.632 297.04 342.136 297.04C345.928 297.04 348.448 300.112 348.016 304.24H338.536C338.728 306.832 340.024 308.344 342.16 308.344C343.96 308.344 345.208 307.36 345.616 305.704H348.016C347.392 308.536 345.208 310.24 342.208 310.24ZM342.088 298.864C340.144 298.864 338.824 300.256 338.56 302.632H345.448C345.328 300.28 344.056 298.864 342.088 298.864ZM360.72 310H358.08V295.144H352.464V292.768H366.336V295.144H360.72V310ZM371.062 310.24C367.39 310.24 364.918 307.576 364.918 303.568C364.918 299.8 367.486 297.04 370.99 297.04C374.782 297.04 377.302 300.112 376.87 304.24H367.39C367.582 306.832 368.878 308.344 371.014 308.344C372.814 308.344 374.062 307.36 374.47 305.704H376.87C376.246 308.536 374.062 310.24 371.062 310.24ZM370.942 298.864C368.998 298.864 367.678 300.256 367.414 302.632H374.302C374.182 300.28 372.91 298.864 370.942 298.864ZM388.567 306.208C388.567 308.704 386.623 310.24 383.239 310.24C379.879 310.24 377.887 308.584 377.647 305.848H379.975C380.071 307.432 381.343 308.416 383.287 308.416C384.991 308.416 386.119 307.816 386.119 306.616C386.119 305.56 385.471 305.104 383.887 304.792L381.823 304.408C379.471 303.952 378.151 302.752 378.151 300.832C378.151 298.6 380.095 297.04 383.047 297.04C386.095 297.04 388.159 298.672 388.375 301.288H386.047C385.903 299.752 384.775 298.864 383.071 298.864C381.535 298.864 380.503 299.512 380.503 300.616C380.503 301.648 381.151 302.128 382.687 302.416L384.847 302.824C387.367 303.28 388.567 304.384 388.567 306.208ZM397.266 307.648V309.784C396.522 310.12 395.874 310.24 395.106 310.24C392.754 310.24 391.122 308.968 391.122 306.16V299.344H388.314V297.28H391.122V293.512H393.546V297.28H397.386V299.344H393.546V305.608C393.546 307.36 394.386 307.984 395.682 307.984C396.258 307.984 396.762 307.888 397.266 307.648Z" fill="black"/>
<path d="M194.524 357.772V361H193.192V357.772L190.096 352.384H191.536L193.9 356.536L196.288 352.384H197.632L194.524 357.772ZM203.639 359.848V361H198.179V352.384H203.555V353.536H199.499V355.984H203.195V357.136H199.499V359.848H203.639ZM210.634 361L209.854 358.864H206.134L205.342 361H204.01L207.31 352.384H208.762L212.038 361H210.634ZM208.006 353.824L206.53 357.796H209.458L208.006 353.824ZM214.066 361H212.746V352.384H215.962C217.942 352.384 219.13 353.356 219.13 355.072C219.13 356.308 218.35 357.256 217.042 357.568L219.382 361H217.798L215.65 357.76H214.066V361ZM214.066 353.488V356.656H215.878C217.102 356.656 217.798 356.116 217.798 355.072C217.798 354.04 217.102 353.488 215.878 353.488H214.066ZM224.58 361.12C222.996 361.12 221.784 360.088 221.724 358.648H222.936C223.02 359.512 223.68 360.028 224.58 360.028C225.696 360.028 226.248 359.332 226.248 358.408C226.248 357.568 225.648 356.836 224.568 356.836C223.848 356.836 223.308 357.136 222.972 357.724L221.988 357.412L222.708 352.888H227.04V353.968H223.584L223.224 356.308C223.68 355.948 224.196 355.78 224.748 355.78C226.536 355.78 227.508 357.028 227.508 358.408C227.508 359.86 226.464 361.12 224.58 361.12Z" fill="black"/>
<path d="M194.02 385H193.132V377.188H190.24V376.384H196.912V377.188H194.02V385ZM198.9 381.316V385H198.06V376.384H198.9V379.84C199.296 379.084 200.016 378.556 200.928 378.556C202.248 378.556 203.1 379.396 203.1 380.896V385H202.26V381.184C202.26 379.972 201.708 379.288 200.676 379.288C199.692 379.288 198.9 380.14 198.9 381.316ZM205.961 377.212C205.961 377.584 205.685 377.848 205.277 377.848C204.881 377.848 204.605 377.584 204.605 377.212C204.605 376.852 204.881 376.588 205.277 376.588C205.685 376.588 205.961 376.852 205.961 377.212ZM205.709 385H204.869V378.676H205.709V385ZM212.257 383.236C212.257 384.4 211.321 385.12 209.761 385.12C208.189 385.12 207.229 384.328 207.109 383.02H207.913C207.973 383.92 208.681 384.484 209.761 384.484C210.793 384.484 211.417 384.088 211.417 383.368C211.417 382.744 211.057 382.456 210.097 382.264L209.185 382.084C207.985 381.856 207.349 381.268 207.349 380.356C207.349 379.3 208.285 378.556 209.665 378.556C211.117 378.556 212.077 379.336 212.173 380.596H211.381C211.297 379.72 210.661 379.204 209.665 379.204C208.777 379.204 208.165 379.624 208.165 380.284C208.165 380.908 208.549 381.208 209.485 381.388L210.433 381.568C211.693 381.808 212.257 382.336 212.257 383.236ZM219.477 384.196V384.94C219.153 385.072 218.877 385.12 218.565 385.12C217.521 385.12 216.717 384.58 216.717 383.212V379.384H215.228V378.676H216.717V376.804H217.557V378.676H219.537V379.384H217.557V383.032C217.557 384.016 218.037 384.352 218.733 384.352C218.997 384.352 219.213 384.304 219.477 384.196ZM223.091 385.12C221.315 385.12 220.139 383.788 220.139 381.784C220.139 379.936 221.363 378.556 223.043 378.556C224.843 378.556 226.019 380.008 225.875 382.036H220.979C221.051 383.536 221.843 384.46 223.079 384.46C224.135 384.46 224.867 383.872 225.071 382.864H225.899C225.611 384.268 224.543 385.12 223.091 385.12ZM223.031 379.204C221.891 379.204 221.087 380.08 220.979 381.46H224.999C224.927 380.044 224.195 379.204 223.031 379.204ZM231.992 383.236C231.992 384.4 231.056 385.12 229.496 385.12C227.924 385.12 226.964 384.328 226.844 383.02H227.648C227.708 383.92 228.416 384.484 229.496 384.484C230.528 384.484 231.152 384.088 231.152 383.368C231.152 382.744 230.792 382.456 229.832 382.264L228.92 382.084C227.72 381.856 227.084 381.268 227.084 380.356C227.084 379.3 228.02 378.556 229.4 378.556C230.852 378.556 231.812 379.336 231.908 380.596H231.116C231.032 379.72 230.396 379.204 229.4 379.204C228.512 379.204 227.9 379.624 227.9 380.284C227.9 380.908 228.284 381.208 229.22 381.388L230.168 381.568C231.428 381.808 231.992 382.336 231.992 383.236ZM236.656 384.196V384.94C236.332 385.072 236.056 385.12 235.744 385.12C234.7 385.12 233.896 384.58 233.896 383.212V379.384H232.408V378.676H233.896V376.804H234.736V378.676H236.716V379.384H234.736V383.032C234.736 384.016 235.216 384.352 235.912 384.352C236.176 384.352 236.392 384.304 236.656 384.196ZM241.586 377.212C241.586 377.584 241.31 377.848 240.902 377.848C240.506 377.848 240.23 377.584 240.23 377.212C240.23 376.852 240.506 376.588 240.902 376.588C241.31 376.588 241.586 376.852 241.586 377.212ZM241.334 385H240.494V378.676H241.334V385ZM247.882 383.236C247.882 384.4 246.946 385.12 245.386 385.12C243.814 385.12 242.854 384.328 242.734 383.02H243.538C243.598 383.92 244.306 384.484 245.386 384.484C246.418 384.484 247.042 384.088 247.042 383.368C247.042 382.744 246.682 382.456 245.722 382.264L244.81 382.084C243.61 381.856 242.974 381.268 242.974 380.356C242.974 379.3 243.91 378.556 245.29 378.556C246.742 378.556 247.702 379.336 247.798 380.596H247.006C246.922 379.72 246.286 379.204 245.29 379.204C244.402 379.204 243.79 379.624 243.79 380.284C243.79 380.908 244.174 381.208 245.11 381.388L246.058 381.568C247.318 381.808 247.882 382.336 247.882 383.236ZM251.382 381.832C251.382 379.888 252.462 378.556 254.166 378.556C255.114 378.556 255.918 379.096 256.338 379.996V376.384H257.178V385H256.398V383.668C255.954 384.592 255.138 385.12 254.166 385.12C252.462 385.12 251.382 383.776 251.382 381.832ZM252.234 381.832C252.234 383.44 253.05 384.388 254.286 384.388C255.51 384.388 256.35 383.392 256.35 381.808C256.35 380.212 255.486 379.288 254.286 379.288C253.05 379.288 252.234 380.224 252.234 381.832ZM261.482 385.12C259.706 385.12 258.53 383.788 258.53 381.784C258.53 379.936 259.754 378.556 261.434 378.556C263.234 378.556 264.41 380.008 264.266 382.036H259.37C259.442 383.536 260.234 384.46 261.47 384.46C262.526 384.46 263.258 383.872 263.462 382.864H264.29C264.002 384.268 262.934 385.12 261.482 385.12ZM261.422 379.204C260.282 379.204 259.478 380.08 259.37 381.46H263.39C263.318 380.044 262.586 379.204 261.422 379.204ZM270.382 383.236C270.382 384.4 269.446 385.12 267.886 385.12C266.314 385.12 265.354 384.328 265.234 383.02H266.038C266.098 383.92 266.806 384.484 267.886 384.484C268.918 384.484 269.542 384.088 269.542 383.368C269.542 382.744 269.182 382.456 268.222 382.264L267.31 382.084C266.11 381.856 265.474 381.268 265.474 380.356C265.474 379.3 266.41 378.556 267.79 378.556C269.242 378.556 270.202 379.336 270.298 380.596H269.506C269.422 379.72 268.786 379.204 267.79 379.204C266.902 379.204 266.29 379.624 266.29 380.284C266.29 380.908 266.674 381.208 267.61 381.388L268.558 381.568C269.818 381.808 270.382 382.336 270.382 383.236ZM272.934 377.212C272.934 377.584 272.658 377.848 272.25 377.848C271.854 377.848 271.578 377.584 271.578 377.212C271.578 376.852 271.854 376.588 272.25 376.588C272.658 376.588 272.934 376.852 272.934 377.212ZM272.682 385H271.842V378.676H272.682V385ZM276.89 387.448C275.282 387.448 274.274 386.608 274.202 385.192H275.006C275.078 386.224 275.75 386.776 276.878 386.776C278.126 386.776 278.786 386.116 278.786 384.868V383.548C278.402 384.436 277.634 384.952 276.698 384.952C275.102 384.952 274.034 383.668 274.034 381.748C274.034 379.828 275.09 378.556 276.686 378.556C277.634 378.556 278.426 379.096 278.834 380.02V378.676H279.614V384.856C279.614 386.488 278.618 387.448 276.89 387.448ZM274.874 381.748C274.874 383.296 275.606 384.232 276.818 384.232C278.006 384.232 278.798 383.272 278.798 381.808C278.798 380.26 278.018 379.276 276.818 379.276C275.618 379.276 274.874 380.212 274.874 381.748ZM282.279 381.316V385H281.439V378.676H282.219V379.864C282.627 379.084 283.395 378.556 284.307 378.556C285.627 378.556 286.479 379.396 286.479 380.896V385H285.639V381.184C285.639 379.972 285.087 379.288 284.055 379.288C283.071 379.288 282.279 380.14 282.279 381.316ZM290.732 385.12C288.956 385.12 287.78 383.788 287.78 381.784C287.78 379.936 289.004 378.556 290.684 378.556C292.484 378.556 293.66 380.008 293.516 382.036H288.62C288.692 383.536 289.484 384.46 290.72 384.46C291.776 384.46 292.508 383.872 292.712 382.864H293.54C293.252 384.268 292.184 385.12 290.732 385.12ZM290.672 379.204C289.532 379.204 288.728 380.08 288.62 381.46H292.64C292.568 380.044 291.836 379.204 290.672 379.204ZM294.319 381.832C294.319 379.888 295.399 378.556 297.103 378.556C298.051 378.556 298.855 379.096 299.275 379.996V376.384H300.115V385H299.335V383.668C298.891 384.592 298.075 385.12 297.103 385.12C295.399 385.12 294.319 383.776 294.319 381.832ZM295.171 381.832C295.171 383.44 295.987 384.388 297.223 384.388C298.447 384.388 299.287 383.392 299.287 381.808C299.287 380.212 298.423 379.288 297.223 379.288C295.987 379.288 295.171 380.224 295.171 381.832ZM307.695 384.196V384.94C307.371 385.072 307.095 385.12 306.783 385.12C305.739 385.12 304.935 384.58 304.935 383.212V379.384H303.447V378.676H304.935V376.804H305.775V378.676H307.755V379.384H305.775V383.032C305.775 384.016 306.255 384.352 306.951 384.352C307.215 384.352 307.431 384.304 307.695 384.196ZM311.358 385.12C309.618 385.12 308.358 383.74 308.358 381.832C308.358 379.936 309.618 378.568 311.358 378.568C313.11 378.568 314.37 379.936 314.37 381.832C314.37 383.74 313.11 385.12 311.358 385.12ZM311.358 384.388C312.594 384.388 313.518 383.404 313.518 381.832C313.518 380.284 312.594 379.3 311.358 379.3C310.134 379.3 309.21 380.284 309.21 381.832C309.21 383.404 310.134 384.388 311.358 384.388ZM319.076 385H318.236V376.384H319.076V385ZM323.38 385.12C321.604 385.12 320.428 383.788 320.428 381.784C320.428 379.936 321.652 378.556 323.332 378.556C325.132 378.556 326.308 380.008 326.164 382.036H321.268C321.34 383.536 322.132 384.46 323.368 384.46C324.424 384.46 325.156 383.872 325.36 382.864H326.188C325.9 384.268 324.832 385.12 323.38 385.12ZM323.32 379.204C322.18 379.204 321.376 380.08 321.268 381.46H325.288C325.216 380.044 324.484 379.204 323.32 379.204ZM330.793 384.196V384.94C330.469 385.072 330.193 385.12 329.881 385.12C328.837 385.12 328.033 384.58 328.033 383.212V379.384H326.545V378.676H328.033V376.804H328.873V378.676H330.853V379.384H328.873V383.032C328.873 384.016 329.353 384.352 330.049 384.352C330.313 384.352 330.529 384.304 330.793 384.196ZM338.675 382.444V378.676H339.503V385H338.723V383.86C338.399 384.592 337.631 385.12 336.707 385.12C335.423 385.12 334.571 384.388 334.571 382.792V378.676H335.411V382.612C335.411 383.896 336.047 384.388 336.935 384.388C337.943 384.388 338.675 383.572 338.675 382.444ZM346.05 383.236C346.05 384.4 345.114 385.12 343.554 385.12C341.982 385.12 341.022 384.328 340.902 383.02H341.706C341.766 383.92 342.474 384.484 343.554 384.484C344.586 384.484 345.21 384.088 345.21 383.368C345.21 382.744 344.85 382.456 343.89 382.264L342.978 382.084C341.778 381.856 341.142 381.268 341.142 380.356C341.142 379.3 342.078 378.556 343.458 378.556C344.91 378.556 345.87 379.336 345.966 380.596H345.174C345.09 379.72 344.454 379.204 343.458 379.204C342.57 379.204 341.958 379.624 341.958 380.284C341.958 380.908 342.342 381.208 343.278 381.388L344.226 381.568C345.486 381.808 346.05 382.336 346.05 383.236ZM350.857 385H350.017V376.384H350.857V381.616L353.905 378.676H354.901L351.709 381.772L355.165 385H354.073L350.857 381.964V385ZM356.928 381.316V385H356.088V378.676H356.868V379.864C357.276 379.084 358.044 378.556 358.956 378.556C360.276 378.556 361.128 379.396 361.128 380.896V385H360.288V381.184C360.288 379.972 359.736 379.288 358.704 379.288C357.72 379.288 356.928 380.14 356.928 381.316ZM365.428 385.12C363.688 385.12 362.428 383.74 362.428 381.832C362.428 379.936 363.688 378.568 365.428 378.568C367.18 378.568 368.44 379.936 368.44 381.832C368.44 383.74 367.18 385.12 365.428 385.12ZM365.428 384.388C366.664 384.388 367.588 383.404 367.588 381.832C367.588 380.284 366.664 379.3 365.428 379.3C364.204 379.3 363.28 380.284 363.28 381.832C363.28 383.404 364.204 384.388 365.428 384.388ZM374.938 385L373.282 379.792L371.638 385H370.786L368.938 378.676H369.766L371.23 383.812L372.874 378.676H373.702L375.334 383.824L376.798 378.676H377.638L375.778 385H374.938ZM386.504 385L384.848 379.792L383.204 385H382.352L380.504 378.676H381.332L382.796 383.812L384.44 378.676H385.268L386.9 383.824L388.364 378.676H389.204L387.344 385H386.504ZM391.135 381.316V385H390.295V376.384H391.135V379.84C391.531 379.084 392.251 378.556 393.163 378.556C394.483 378.556 395.335 379.396 395.335 380.896V385H394.495V381.184C394.495 379.972 393.943 379.288 392.911 379.288C391.927 379.288 391.135 380.14 391.135 381.316ZM400.991 385V383.848C400.619 384.64 399.851 385.12 398.867 385.12C397.559 385.12 396.707 384.388 396.707 383.248C396.707 382.012 397.691 381.364 399.611 381.364C399.995 381.364 400.283 381.388 400.907 381.436V380.908C400.907 379.852 400.343 379.228 399.383 379.228C398.351 379.228 397.703 379.864 397.691 380.896H396.923C396.959 379.492 397.931 378.556 399.371 378.556C400.847 378.556 401.711 379.42 401.711 380.884V385H400.991ZM397.511 383.224C397.511 383.992 398.099 384.508 398.987 384.508C400.163 384.508 400.907 383.74 400.907 382.552V381.988C400.367 381.94 399.995 381.928 399.647 381.928C398.207 381.928 397.511 382.348 397.511 383.224ZM406.695 384.196V384.94C406.371 385.072 406.095 385.12 405.783 385.12C404.739 385.12 403.935 384.58 403.935 383.212V379.384H402.447V378.676H403.935V376.804H404.775V378.676H406.755V379.384H404.775V383.032C404.775 384.016 405.255 384.352 405.951 384.352C406.215 384.352 406.431 384.304 406.695 384.196ZM415.405 378.676L412.165 387.316H411.265L412.189 384.916L409.681 378.676H410.581L412.621 383.908L414.553 378.676H415.405ZM418.725 385.12C416.985 385.12 415.725 383.74 415.725 381.832C415.725 379.936 416.985 378.568 418.725 378.568C420.477 378.568 421.737 379.936 421.737 381.832C421.737 383.74 420.477 385.12 418.725 385.12ZM418.725 384.388C419.961 384.388 420.885 383.404 420.885 381.832C420.885 380.284 419.961 379.3 418.725 379.3C417.501 379.3 416.577 380.284 416.577 381.832C416.577 383.404 417.501 384.388 418.725 384.388ZM427.14 382.444V378.676H427.968V385H427.188V383.86C426.864 384.592 426.096 385.12 425.172 385.12C423.888 385.12 423.036 384.388 423.036 382.792V378.676H423.876V382.612C423.876 383.896 424.512 384.388 425.4 384.388C426.408 384.388 427.14 383.572 427.14 382.444ZM433.135 385H432.295V376.384H433.135V381.616L436.183 378.676H437.179L433.987 381.772L437.443 385H436.351L433.135 381.964V385ZM439.205 381.316V385H438.365V378.676H439.145V379.864C439.553 379.084 440.321 378.556 441.233 378.556C442.553 378.556 443.405 379.396 443.405 380.896V385H442.565V381.184C442.565 379.972 442.013 379.288 440.981 379.288C439.997 379.288 439.205 380.14 439.205 381.316ZM447.706 385.12C445.966 385.12 444.706 383.74 444.706 381.832C444.706 379.936 445.966 378.568 447.706 378.568C449.458 378.568 450.718 379.936 450.718 381.832C450.718 383.74 449.458 385.12 447.706 385.12ZM447.706 384.388C448.942 384.388 449.866 383.404 449.866 381.832C449.866 380.284 448.942 379.3 447.706 379.3C446.482 379.3 445.558 380.284 445.558 381.832C445.558 383.404 446.482 384.388 447.706 384.388ZM457.215 385L455.559 379.792L453.915 385H453.063L451.215 378.676H452.043L453.507 383.812L455.151 378.676H455.979L457.611 383.824L459.075 378.676H459.915L458.055 385H457.215ZM467.402 385V383.848C467.03 384.64 466.262 385.12 465.278 385.12C463.97 385.12 463.118 384.388 463.118 383.248C463.118 382.012 464.102 381.364 466.022 381.364C466.406 381.364 466.694 381.388 467.318 381.436V380.908C467.318 379.852 466.754 379.228 465.794 379.228C464.762 379.228 464.114 379.864 464.102 380.896H463.334C463.37 379.492 464.342 378.556 465.782 378.556C467.258 378.556 468.122 379.42 468.122 380.884V385H467.402ZM463.922 383.224C463.922 383.992 464.51 384.508 465.398 384.508C466.574 384.508 467.318 383.74 467.318 382.552V381.988C466.778 381.94 466.406 381.928 466.058 381.928C464.618 381.928 463.922 382.348 463.922 383.224ZM470.729 381.316V385H469.889V378.676H470.669V379.864C471.077 379.084 471.845 378.556 472.757 378.556C474.077 378.556 474.929 379.396 474.929 380.896V385H474.089V381.184C474.089 379.972 473.537 379.288 472.505 379.288C471.521 379.288 470.729 380.14 470.729 381.316ZM476.229 381.832C476.229 379.888 477.309 378.556 479.013 378.556C479.961 378.556 480.765 379.096 481.185 379.996V376.384H482.025V385H481.245V383.668C480.801 384.592 479.985 385.12 479.013 385.12C477.309 385.12 476.229 383.776 476.229 381.832ZM477.081 381.832C477.081 383.44 477.897 384.388 479.133 384.388C480.357 384.388 481.197 383.392 481.197 381.808C481.197 380.212 480.333 379.288 479.133 379.288C477.897 379.288 477.081 380.224 477.081 381.832ZM491.621 385L489.965 379.792L488.321 385H487.469L485.621 378.676H486.449L487.913 383.812L489.557 378.676H490.385L492.017 383.824L493.481 378.676H494.321L492.461 385H491.621ZM496.252 381.316V385H495.412V376.384H496.252V379.84C496.648 379.084 497.368 378.556 498.28 378.556C499.6 378.556 500.452 379.396 500.452 380.896V385H499.612V381.184C499.612 379.972 499.06 379.288 498.028 379.288C497.044 379.288 496.252 380.14 496.252 381.316ZM504.705 385.12C502.929 385.12 501.753 383.788 501.753 381.784C501.753 379.936 502.977 378.556 504.657 378.556C506.457 378.556 507.633 380.008 507.489 382.036H502.593C502.665 383.536 503.457 384.46 504.693 384.46C505.749 384.46 506.481 383.872 506.685 382.864H507.513C507.225 384.268 506.157 385.12 504.705 385.12ZM504.645 379.204C503.505 379.204 502.701 380.08 502.593 381.46H506.613C506.541 380.044 505.809 379.204 504.645 379.204ZM509.717 381.616V385H508.877V378.676H509.657V380.116C510.089 379.18 511.025 378.58 512.069 378.58V379.456C510.737 379.408 509.717 380.236 509.717 381.616ZM515.568 385.12C513.792 385.12 512.616 383.788 512.616 381.784C512.616 379.936 513.84 378.556 515.52 378.556C517.32 378.556 518.496 380.008 518.352 382.036H513.456C513.528 383.536 514.32 384.46 515.556 384.46C516.612 384.46 517.344 383.872 517.548 382.864H518.376C518.088 384.268 517.02 385.12 515.568 385.12ZM515.508 379.204C514.368 379.204 513.564 380.08 513.456 381.46H517.476C517.404 380.044 516.672 379.204 515.508 379.204ZM527.12 378.676L523.88 387.316H522.98L523.904 384.916L521.396 378.676H522.296L524.336 383.908L526.268 378.676H527.12ZM530.44 385.12C528.7 385.12 527.44 383.74 527.44 381.832C527.44 379.936 528.7 378.568 530.44 378.568C532.192 378.568 533.452 379.936 533.452 381.832C533.452 383.74 532.192 385.12 530.44 385.12ZM530.44 384.388C531.676 384.388 532.6 383.404 532.6 381.832C532.6 380.284 531.676 379.3 530.44 379.3C529.216 379.3 528.292 380.284 528.292 381.832C528.292 383.404 529.216 384.388 530.44 384.388ZM538.854 382.444V378.676H539.682V385H538.902V383.86C538.578 384.592 537.81 385.12 536.886 385.12C535.602 385.12 534.75 384.388 534.75 382.792V378.676H535.59V382.612C535.59 383.896 536.226 384.388 537.114 384.388C538.122 384.388 538.854 383.572 538.854 382.444ZM542.342 381.616V385H541.502V378.676H542.282V380.116C542.714 379.18 543.65 378.58 544.694 378.58V379.456C543.362 379.408 542.342 380.236 542.342 381.616ZM550.616 387.448C549.008 387.448 548 386.608 547.928 385.192H548.732C548.804 386.224 549.476 386.776 550.604 386.776C551.852 386.776 552.512 386.116 552.512 384.868V383.548C552.128 384.436 551.36 384.952 550.424 384.952C548.828 384.952 547.76 383.668 547.76 381.748C547.76 379.828 548.816 378.556 550.412 378.556C551.36 378.556 552.152 379.096 552.56 380.02V378.676H553.34V384.856C553.34 386.488 552.344 387.448 550.616 387.448ZM548.6 381.748C548.6 383.296 549.332 384.232 550.544 384.232C551.732 384.232 552.524 383.272 552.524 381.808C552.524 380.26 551.744 379.276 550.544 379.276C549.344 379.276 548.6 380.212 548.6 381.748ZM559.054 385V383.848C558.682 384.64 557.914 385.12 556.93 385.12C555.622 385.12 554.77 384.388 554.77 383.248C554.77 382.012 555.754 381.364 557.674 381.364C558.058 381.364 558.346 381.388 558.97 381.436V380.908C558.97 379.852 558.406 379.228 557.446 379.228C556.414 379.228 555.766 379.864 555.754 380.896H554.986C555.022 379.492 555.994 378.556 557.434 378.556C558.91 378.556 559.774 379.42 559.774 380.884V385H559.054ZM555.574 383.224C555.574 383.992 556.162 384.508 557.05 384.508C558.226 384.508 558.97 383.74 558.97 382.552V381.988C558.43 381.94 558.058 381.928 557.71 381.928C556.27 381.928 555.574 382.348 555.574 383.224ZM567.337 381.832C567.337 383.788 566.245 385.12 564.565 385.12C563.617 385.12 562.813 384.604 562.381 383.704V387.316H561.541V378.676H562.321V380.044C562.753 379.108 563.593 378.556 564.565 378.556C566.245 378.556 567.337 379.9 567.337 381.832ZM566.485 381.832C566.485 380.236 565.657 379.288 564.421 379.288C563.245 379.288 562.369 380.224 562.369 381.832C562.369 383.404 563.221 384.388 564.421 384.388C565.657 384.388 566.485 383.452 566.485 381.832ZM573.417 383.236C573.417 384.4 572.481 385.12 570.921 385.12C569.349 385.12 568.389 384.328 568.269 383.02H569.073C569.133 383.92 569.841 384.484 570.921 384.484C571.953 384.484 572.577 384.088 572.577 383.368C572.577 382.744 572.217 382.456 571.257 382.264L570.345 382.084C569.145 381.856 568.509 381.268 568.509 380.356C568.509 379.3 569.445 378.556 570.825 378.556C572.277 378.556 573.237 379.336 573.333 380.596H572.541C572.457 379.72 571.821 379.204 570.825 379.204C569.937 379.204 569.325 379.624 569.325 380.284C569.325 380.908 569.709 381.208 570.645 381.388L571.593 381.568C572.853 381.808 573.417 382.336 573.417 383.236ZM581.273 385V383.848C580.901 384.64 580.133 385.12 579.149 385.12C577.841 385.12 576.989 384.388 576.989 383.248C576.989 382.012 577.973 381.364 579.893 381.364C580.277 381.364 580.565 381.388 581.189 381.436V380.908C581.189 379.852 580.625 379.228 579.665 379.228C578.633 379.228 577.985 379.864 577.973 380.896H577.205C577.241 379.492 578.213 378.556 579.653 378.556C581.129 378.556 581.993 379.42 581.993 380.884V385H581.273ZM577.793 383.224C577.793 383.992 578.381 384.508 579.269 384.508C580.445 384.508 581.189 383.74 581.189 382.552V381.988C580.649 381.94 580.277 381.928 579.929 381.928C578.489 381.928 577.793 382.348 577.793 383.224ZM584.6 381.616V385H583.76V378.676H584.54V380.116C584.972 379.18 585.908 378.58 586.952 378.58V379.456C585.62 379.408 584.6 380.236 584.6 381.616ZM590.451 385.12C588.675 385.12 587.499 383.788 587.499 381.784C587.499 379.936 588.723 378.556 590.403 378.556C592.203 378.556 593.379 380.008 593.235 382.036H588.339C588.411 383.536 589.203 384.46 590.439 384.46C591.495 384.46 592.227 383.872 592.431 382.864H593.259C592.971 384.268 591.903 385.12 590.451 385.12ZM590.391 379.204C589.251 379.204 588.447 380.08 588.339 381.46H592.359C592.287 380.044 591.555 379.204 590.391 379.204ZM595.816 384.304C595.816 384.736 595.504 385.06 595.06 385.06C594.628 385.06 594.304 384.736 594.304 384.304C594.304 383.848 594.628 383.536 595.06 383.536C595.504 383.536 595.816 383.848 595.816 384.304ZM603.133 385H602.245V377.188H599.353V376.384H606.025V377.188H603.133V385ZM608.014 381.316V385H607.174V376.384H608.014V379.84C608.41 379.084 609.13 378.556 610.042 378.556C611.362 378.556 612.214 379.396 612.214 380.896V385H611.374V381.184C611.374 379.972 610.822 379.288 609.79 379.288C608.806 379.288 608.014 380.14 608.014 381.316ZM616.466 385.12C614.69 385.12 613.514 383.788 613.514 381.784C613.514 379.936 614.738 378.556 616.418 378.556C618.218 378.556 619.394 380.008 619.25 382.036H614.354C614.426 383.536 615.218 384.46 616.454 384.46C617.51 384.46 618.242 383.872 618.446 382.864H619.274C618.986 384.268 617.918 385.12 616.466 385.12ZM616.406 379.204C615.266 379.204 614.462 380.08 614.354 381.46H618.374C618.302 380.044 617.57 379.204 616.406 379.204ZM621.479 381.616V385H620.639V378.676H621.419V380.116C621.851 379.18 622.787 378.58 623.831 378.58V379.456C622.499 379.408 621.479 380.236 621.479 381.616ZM627.33 385.12C625.554 385.12 624.378 383.788 624.378 381.784C624.378 379.936 625.602 378.556 627.282 378.556C629.082 378.556 630.258 380.008 630.114 382.036H625.218C625.29 383.536 626.082 384.46 627.318 384.46C628.374 384.46 629.106 383.872 629.31 382.864H630.138C629.85 384.268 628.782 385.12 627.33 385.12ZM627.27 379.204C626.13 379.204 625.326 380.08 625.218 381.46H629.238C629.166 380.044 628.434 379.204 627.27 379.204ZM635.102 377.212C635.102 377.584 634.826 377.848 634.418 377.848C634.022 377.848 633.746 377.584 633.746 377.212C633.746 376.852 634.022 376.588 634.418 376.588C634.826 376.588 635.102 376.852 635.102 377.212ZM634.85 385H634.01V378.676H634.85V385ZM641.398 383.236C641.398 384.4 640.462 385.12 638.902 385.12C637.33 385.12 636.37 384.328 636.25 383.02H637.054C637.114 383.92 637.822 384.484 638.902 384.484C639.934 384.484 640.558 384.088 640.558 383.368C640.558 382.744 640.198 382.456 639.238 382.264L638.326 382.084C637.126 381.856 636.49 381.268 636.49 380.356C636.49 379.3 637.426 378.556 638.806 378.556C640.258 378.556 641.218 379.336 641.314 380.596H640.522C640.438 379.72 639.802 379.204 638.806 379.204C637.918 379.204 637.306 379.624 637.306 380.284C637.306 380.908 637.69 381.208 638.626 381.388L639.574 381.568C640.834 381.808 641.398 382.336 641.398 383.236ZM646.205 381.316V385H645.365V378.676H646.145V379.864C646.553 379.084 647.321 378.556 648.233 378.556C649.553 378.556 650.405 379.396 650.405 380.896V385H649.565V381.184C649.565 379.972 649.013 379.288 647.981 379.288C646.997 379.288 646.205 380.14 646.205 381.316ZM654.706 385.12C652.966 385.12 651.706 383.74 651.706 381.832C651.706 379.936 652.966 378.568 654.706 378.568C656.458 378.568 657.718 379.936 657.718 381.832C657.718 383.74 656.458 385.12 654.706 385.12ZM654.706 384.388C655.942 384.388 656.866 383.404 656.866 381.832C656.866 380.284 655.942 379.3 654.706 379.3C653.482 379.3 652.558 380.284 652.558 381.832C652.558 383.404 653.482 384.388 654.706 384.388ZM667.38 381.832C667.38 383.788 666.288 385.12 664.608 385.12C663.66 385.12 662.856 384.604 662.424 383.704V387.316H661.584V378.676H662.364V380.044C662.796 379.108 663.636 378.556 664.608 378.556C666.288 378.556 667.38 379.9 667.38 381.832ZM666.528 381.832C666.528 380.236 665.7 379.288 664.464 379.288C663.288 379.288 662.412 380.224 662.412 381.832C662.412 383.404 663.264 384.388 664.464 384.388C665.7 384.388 666.528 383.452 666.528 381.832ZM672.62 385V383.848C672.248 384.64 671.48 385.12 670.496 385.12C669.188 385.12 668.336 384.388 668.336 383.248C668.336 382.012 669.32 381.364 671.24 381.364C671.624 381.364 671.912 381.388 672.536 381.436V380.908C672.536 379.852 671.972 379.228 671.012 379.228C669.98 379.228 669.332 379.864 669.32 380.896H668.552C668.588 379.492 669.56 378.556 671 378.556C672.476 378.556 673.34 379.42 673.34 380.884V385H672.62ZM669.14 383.224C669.14 383.992 669.728 384.508 670.616 384.508C671.792 384.508 672.536 383.74 672.536 382.552V381.988C671.996 381.94 671.624 381.928 671.276 381.928C669.836 381.928 669.14 382.348 669.14 383.224ZM679.835 383.236C679.835 384.4 678.899 385.12 677.339 385.12C675.767 385.12 674.807 384.328 674.687 383.02H675.491C675.551 383.92 676.259 384.484 677.339 384.484C678.371 384.484 678.995 384.088 678.995 383.368C678.995 382.744 678.635 382.456 677.675 382.264L676.763 382.084C675.563 381.856 674.927 381.268 674.927 380.356C674.927 379.3 675.863 378.556 677.243 378.556C678.695 378.556 679.655 379.336 679.751 380.596H678.959C678.875 379.72 678.239 379.204 677.243 379.204C676.355 379.204 675.743 379.624 675.743 380.284C675.743 380.908 676.127 381.208 677.063 381.388L678.011 381.568C679.271 381.808 679.835 382.336 679.835 383.236ZM686.023 383.236C686.023 384.4 685.087 385.12 683.527 385.12C681.955 385.12 680.995 384.328 680.875 383.02H681.679C681.739 383.92 682.447 384.484 683.527 384.484C684.559 384.484 685.183 384.088 685.183 383.368C685.183 382.744 684.823 382.456 683.863 382.264L682.951 382.084C681.751 381.856 681.115 381.268 681.115 380.356C681.115 379.3 682.051 378.556 683.431 378.556C684.883 378.556 685.843 379.336 685.939 380.596H685.147C685.063 379.72 684.427 379.204 683.431 379.204C682.543 379.204 681.931 379.624 681.931 380.284C681.931 380.908 682.315 381.208 683.251 381.388L684.199 381.568C685.459 381.808 686.023 382.336 686.023 383.236ZM688.574 377.212C688.574 377.584 688.298 377.848 687.89 377.848C687.494 377.848 687.218 377.584 687.218 377.212C687.218 376.852 687.494 376.588 687.89 376.588C688.298 376.588 688.574 376.852 688.574 377.212ZM688.322 385H687.482V378.676H688.322V385ZM690.982 381.316V385H690.142V378.676H690.922V379.864C691.33 379.084 692.098 378.556 693.01 378.556C694.33 378.556 695.182 379.396 695.182 380.896V385H694.342V381.184C694.342 379.972 693.79 379.288 692.758 379.288C691.774 379.288 690.982 380.14 690.982 381.316ZM699.339 387.448C697.731 387.448 696.723 386.608 696.651 385.192H697.455C697.527 386.224 698.199 386.776 699.327 386.776C700.575 386.776 701.235 386.116 701.235 384.868V383.548C700.851 384.436 700.083 384.952 699.147 384.952C697.551 384.952 696.483 383.668 696.483 381.748C696.483 379.828 697.539 378.556 699.135 378.556C700.083 378.556 700.875 379.096 701.283 380.02V378.676H702.063V384.856C702.063 386.488 701.067 387.448 699.339 387.448ZM697.323 381.748C697.323 383.296 698.055 384.232 699.267 384.232C700.455 384.232 701.247 383.272 701.247 381.808C701.247 380.26 700.467 379.276 699.267 379.276C698.067 379.276 697.323 380.212 697.323 381.748ZM708.928 385.12C707.188 385.12 705.928 383.74 705.928 381.832C705.928 379.936 707.188 378.568 708.928 378.568C710.68 378.568 711.94 379.936 711.94 381.832C711.94 383.74 710.68 385.12 708.928 385.12ZM708.928 384.388C710.164 384.388 711.088 383.404 711.088 381.832C711.088 380.284 710.164 379.3 708.928 379.3C707.704 379.3 706.78 380.284 706.78 381.832C706.78 383.404 707.704 384.388 708.928 384.388ZM714.139 381.616V385H713.299V378.676H714.079V380.116C714.511 379.18 715.447 378.58 716.491 378.58V379.456C715.159 379.408 714.139 380.236 714.139 381.616ZM192.304 401H191.464V395.384H189.976V394.676H191.464V394.1C191.464 392.936 192.1 392.288 193.204 392.288C193.492 392.288 193.744 392.336 193.96 392.42V393.116C193.756 393.032 193.564 393.02 193.348 393.02C192.676 393.02 192.304 393.356 192.304 394.1V394.676H194.164V395.384H192.304V401ZM198.82 401V399.848C198.448 400.64 197.68 401.12 196.696 401.12C195.388 401.12 194.536 400.388 194.536 399.248C194.536 398.012 195.52 397.364 197.44 397.364C197.824 397.364 198.112 397.388 198.736 397.436V396.908C198.736 395.852 198.172 395.228 197.212 395.228C196.18 395.228 195.532 395.864 195.52 396.896H194.752C194.788 395.492 195.76 394.556 197.2 394.556C198.676 394.556 199.54 395.42 199.54 396.884V401H198.82ZM195.34 399.224C195.34 399.992 195.928 400.508 196.816 400.508C197.992 400.508 198.736 399.74 198.736 398.552V397.988C198.196 397.94 197.824 397.928 197.476 397.928C196.036 397.928 195.34 398.348 195.34 399.224ZM202.399 393.212C202.399 393.584 202.123 393.848 201.715 393.848C201.319 393.848 201.043 393.584 201.043 393.212C201.043 392.852 201.319 392.588 201.715 392.588C202.123 392.588 202.399 392.852 202.399 393.212ZM202.147 401H201.307V394.676H202.147V401ZM204.807 401H203.967V392.384H204.807V401ZM207.719 393.212C207.719 393.584 207.443 393.848 207.035 393.848C206.639 393.848 206.363 393.584 206.363 393.212C206.363 392.852 206.639 392.588 207.035 392.588C207.443 392.588 207.719 392.852 207.719 393.212ZM207.467 401H206.627V394.676H207.467V401ZM210.127 397.316V401H209.287V394.676H210.067V395.864C210.475 395.084 211.243 394.556 212.155 394.556C213.475 394.556 214.327 395.396 214.327 396.896V401H213.487V397.184C213.487 395.972 212.935 395.288 211.903 395.288C210.919 395.288 210.127 396.14 210.127 397.316ZM218.484 403.448C216.876 403.448 215.868 402.608 215.796 401.192H216.6C216.672 402.224 217.344 402.776 218.472 402.776C219.72 402.776 220.38 402.116 220.38 400.868V399.548C219.996 400.436 219.228 400.952 218.292 400.952C216.696 400.952 215.628 399.668 215.628 397.748C215.628 395.828 216.684 394.556 218.28 394.556C219.228 394.556 220.02 395.096 220.428 396.02V394.676H221.208V400.856C221.208 402.488 220.212 403.448 218.484 403.448ZM216.468 397.748C216.468 399.296 217.2 400.232 218.412 400.232C219.6 400.232 220.392 399.272 220.392 397.808C220.392 396.26 219.612 395.276 218.412 395.276C217.212 395.276 216.468 396.212 216.468 397.748ZM228.793 400.196V400.94C228.469 401.072 228.193 401.12 227.881 401.12C226.837 401.12 226.033 400.58 226.033 399.212V395.384H224.545V394.676H226.033V392.804H226.873V394.676H228.853V395.384H226.873V399.032C226.873 400.016 227.353 400.352 228.049 400.352C228.313 400.352 228.529 400.304 228.793 400.196ZM230.963 397.316V401H230.123V392.384H230.963V395.84C231.359 395.084 232.079 394.556 232.991 394.556C234.311 394.556 235.163 395.396 235.163 396.896V401H234.323V397.184C234.323 395.972 233.771 395.288 232.739 395.288C231.755 395.288 230.963 396.14 230.963 397.316ZM238.024 393.212C238.024 393.584 237.748 393.848 237.34 393.848C236.944 393.848 236.668 393.584 236.668 393.212C236.668 392.852 236.944 392.588 237.34 392.588C237.748 392.588 238.024 392.852 238.024 393.212ZM237.772 401H236.932V394.676H237.772V401ZM244.32 399.236C244.32 400.4 243.384 401.12 241.824 401.12C240.252 401.12 239.292 400.328 239.172 399.02H239.976C240.036 399.92 240.744 400.484 241.824 400.484C242.856 400.484 243.48 400.088 243.48 399.368C243.48 398.744 243.12 398.456 242.16 398.264L241.248 398.084C240.048 397.856 239.412 397.268 239.412 396.356C239.412 395.3 240.348 394.556 241.728 394.556C243.18 394.556 244.14 395.336 244.236 396.596H243.444C243.36 395.72 242.724 395.204 241.728 395.204C240.84 395.204 240.228 395.624 240.228 396.284C240.228 396.908 240.612 397.208 241.548 397.388L242.496 397.568C243.756 397.808 244.32 398.336 244.32 399.236ZM251.539 400.196V400.94C251.215 401.072 250.939 401.12 250.627 401.12C249.583 401.12 248.779 400.58 248.779 399.212V395.384H247.291V394.676H248.779V392.804H249.619V394.676H251.599V395.384H249.619V399.032C249.619 400.016 250.099 400.352 250.795 400.352C251.059 400.352 251.275 400.304 251.539 400.196ZM255.154 401.12C253.378 401.12 252.202 399.788 252.202 397.784C252.202 395.936 253.426 394.556 255.106 394.556C256.906 394.556 258.082 396.008 257.938 398.036H253.042C253.114 399.536 253.906 400.46 255.142 400.46C256.198 400.46 256.93 399.872 257.134 398.864H257.962C257.674 400.268 256.606 401.12 255.154 401.12ZM255.094 395.204C253.954 395.204 253.15 396.08 253.042 397.46H257.062C256.99 396.044 256.258 395.204 255.094 395.204ZM264.054 399.236C264.054 400.4 263.118 401.12 261.558 401.12C259.986 401.12 259.026 400.328 258.906 399.02H259.71C259.77 399.92 260.478 400.484 261.558 400.484C262.59 400.484 263.214 400.088 263.214 399.368C263.214 398.744 262.854 398.456 261.894 398.264L260.982 398.084C259.782 397.856 259.146 397.268 259.146 396.356C259.146 395.3 260.082 394.556 261.462 394.556C262.914 394.556 263.874 395.336 263.97 396.596H263.178C263.094 395.72 262.458 395.204 261.462 395.204C260.574 395.204 259.962 395.624 259.962 396.284C259.962 396.908 260.346 397.208 261.282 397.388L262.23 397.568C263.49 397.808 264.054 398.336 264.054 399.236ZM268.719 400.196V400.94C268.395 401.072 268.119 401.12 267.807 401.12C266.763 401.12 265.959 400.58 265.959 399.212V395.384H264.471V394.676H265.959V392.804H266.799V394.676H268.779V395.384H266.799V399.032C266.799 400.016 267.279 400.352 267.975 400.352C268.239 400.352 268.455 400.304 268.719 400.196Z" fill="#808080"/>
<path d="M197.236 462.48C197.236 463.98 196.036 465.12 193.948 465.12C191.872 465.12 190.612 463.98 190.504 462.264H191.848C191.908 463.356 192.604 464.064 193.924 464.064C195.016 464.064 195.832 463.548 195.832 462.66C195.832 461.94 195.364 461.58 194.368 461.364L193.12 461.124C191.908 460.884 190.804 460.272 190.804 458.808C190.804 457.356 192.076 456.264 193.864 456.264C195.652 456.264 197.008 457.356 197.116 459.072H195.772C195.7 458.04 194.956 457.32 193.876 457.32C192.76 457.32 192.148 457.98 192.148 458.724C192.148 459.54 192.856 459.828 193.66 459.996L194.932 460.248C196.408 460.548 197.236 461.196 197.236 462.48ZM201.8 463.824V464.892C201.428 465.06 201.104 465.12 200.72 465.12C199.544 465.12 198.728 464.484 198.728 463.08V459.672H197.324V458.64H198.728V456.756H199.94V458.64H201.86V459.672H199.94V462.804C199.94 463.68 200.36 463.992 201.008 463.992C201.296 463.992 201.548 463.944 201.8 463.824ZM206.388 465V464.016C205.992 464.724 205.284 465.12 204.348 465.12C203.028 465.12 202.164 464.364 202.164 463.2C202.164 461.952 203.16 461.304 205.056 461.304C205.428 461.304 205.728 461.316 206.244 461.376V460.908C206.244 459.996 205.752 459.48 204.912 459.48C204.024 459.48 203.484 460.008 203.448 460.896H202.344C202.404 459.468 203.424 458.52 204.912 458.52C206.484 458.52 207.396 459.408 207.396 460.92V465H206.388ZM203.316 463.164C203.316 463.824 203.808 464.256 204.588 464.256C205.608 464.256 206.244 463.62 206.244 462.648V462.132C205.776 462.072 205.44 462.06 205.128 462.06C203.916 462.06 203.316 462.42 203.316 463.164ZM209.749 461.748V465H208.537V458.64H209.665V459.984C210.109 459.108 211.069 458.556 212.113 458.556V459.816C210.745 459.744 209.749 460.344 209.749 461.748ZM216.567 463.824V464.892C216.195 465.06 215.871 465.12 215.487 465.12C214.311 465.12 213.495 464.484 213.495 463.08V459.672H212.091V458.64H213.495V456.756H214.707V458.64H216.627V459.672H214.707V462.804C214.707 463.68 215.127 463.992 215.775 463.992C216.063 463.992 216.315 463.944 216.567 463.824Z" fill="#286CFF"/>
<path d="M232 460H224" stroke="#286CFF" stroke-linecap="round" stroke-linejoin="round"/>
<path d="M229.5 462.5C229.5 462.5 232 460.659 232 460C232 459.341 229.5 457.5 229.5 457.5" stroke="#286CFF" stroke-linecap="round" stroke-linejoin="round"/>
</g>
<defs>
<filter id="filter0_dd_3063_2093" x="132.85" y="225.7" width="667.3" height="299.3" filterUnits="userSpaceOnUse" color-interpolation-filters="sRGB">
<feFlood flood-opacity="0" result="BackgroundImageFix"/>
<feColorMatrix in="SourceAlpha" type="matrix" values="0 0 0 0 0 0 0 0 0 0 0 0 0 0 0 0 0 0 127 0" result="hardAlpha"/>
<feOffset dy="0.975"/>
<feGaussianBlur stdDeviation="1.4625"/>
<feColorMatrix type="matrix" values="0 0 0 0 0 0 0 0 0 0 0 0 0 0 0 0 0 0 0.3 0"/>
<feBlend mode="normal" in2="BackgroundImageFix" result="effect1_dropShadow_3063_2093"/>
<feColorMatrix in="SourceAlpha" type="matrix" values="0 0 0 0 0 0 0 0 0 0 0 0 0 0 0 0 0 0 127 0" result="hardAlpha"/>
<feMorphology radius="6.825" operator="dilate" in="SourceAlpha" result="effect2_dropShadow_3063_2093"/>
<feOffset dy="5.85"/>
<feGaussianBlur stdDeviation="13.1625"/>
<feColorMatrix type="matrix" values="0 0 0 0 0 0 0 0 0 0 0 0 0 0 0 0 0 0 0.15 0"/>
<feBlend mode="normal" in2="effect1_dropShadow_3063_2093" result="effect2_dropShadow_3063_2093"/>
<feBlend mode="normal" in="SourceGraphic" in2="effect2_dropShadow_3063_2093" result="shape"/>
</filter>
</defs>
</svg>
