<svg width="932" height="740" viewBox="0 0 932 740" fill="none" xmlns="http://www.w3.org/2000/svg">
<rect width="932" height="740" rx="20" fill="#286CFF"/>
<g filter="url(#filter0_dd_3138_42)">
<rect x="266" y="205" width="399" height="329" rx="18" fill="white"/>
<rect x="266.188" y="205.188" width="398.625" height="328.625" rx="17.8125" stroke="black" stroke-opacity="0.2" stroke-width="0.375"/>
<path d="M293.234 249H285.404V236.076H287.384V247.218H293.234V249ZM297.974 249.18C295.22 249.18 293.366 247.182 293.366 244.176C293.366 241.35 295.292 239.28 297.92 239.28C300.764 239.28 302.654 241.584 302.33 244.68H295.22C295.364 246.624 296.336 247.758 297.938 247.758C299.288 247.758 300.224 247.02 300.53 245.778H302.33C301.862 247.902 300.224 249.18 297.974 249.18ZM297.884 240.648C296.426 240.648 295.436 241.692 295.238 243.474H300.404C300.314 241.71 299.36 240.648 297.884 240.648ZM309.321 249V247.524C308.727 248.586 307.665 249.18 306.261 249.18C304.281 249.18 302.985 248.046 302.985 246.3C302.985 244.428 304.479 243.456 307.323 243.456C307.881 243.456 308.331 243.474 309.105 243.564V242.862C309.105 241.494 308.367 240.72 307.107 240.72C305.775 240.72 304.965 241.512 304.911 242.844H303.255C303.345 240.702 304.875 239.28 307.107 239.28C309.465 239.28 310.833 240.612 310.833 242.88V249H309.321ZM304.713 246.246C304.713 247.236 305.451 247.884 306.621 247.884C308.151 247.884 309.105 246.93 309.105 245.472V244.698C308.403 244.608 307.899 244.59 307.431 244.59C305.613 244.59 304.713 245.13 304.713 246.246ZM314.361 244.122V249H312.543V239.46H314.235V241.476C314.901 240.162 316.341 239.334 317.907 239.334V241.224C315.855 241.116 314.361 242.016 314.361 244.122ZM320.444 243.618V249H318.626V239.46H320.318V241.044C320.966 239.982 322.046 239.28 323.36 239.28C325.322 239.28 326.618 240.54 326.618 242.826V249H324.8V243.438C324.8 241.8 324.08 240.882 322.73 240.882C321.488 240.882 320.444 241.926 320.444 243.618ZM330.526 237.246C330.526 237.93 329.986 238.452 329.212 238.452C328.438 238.452 327.88 237.93 327.88 237.246C327.88 236.544 328.438 236.04 329.212 236.04C329.986 236.04 330.526 236.544 330.526 237.246ZM330.13 249H328.312V239.46H330.13V249ZM333.752 243.618V249H331.934V239.46H333.626V241.044C334.274 239.982 335.354 239.28 336.668 239.28C338.63 239.28 339.926 240.54 339.926 242.826V249H338.108V243.438C338.108 241.8 337.388 240.882 336.038 240.882C334.796 240.882 333.752 241.926 333.752 243.618ZM345.436 252.672C342.934 252.672 341.314 251.34 341.206 249.18H342.97C343.078 250.512 343.942 251.232 345.418 251.232C347.056 251.232 347.92 250.35 347.92 248.712V246.984C347.38 248.136 346.3 248.802 345.004 248.802C342.628 248.802 340.936 246.84 340.936 244.032C340.936 241.188 342.556 239.28 344.95 239.28C346.318 239.28 347.398 239.946 348.046 241.152V239.46H349.738V248.676C349.738 251.178 348.136 252.672 345.436 252.672ZM342.772 244.032C342.772 246.012 343.744 247.218 345.328 247.218C346.876 247.218 347.92 245.976 347.92 244.086C347.92 242.106 346.894 240.846 345.328 240.846C343.762 240.846 342.772 242.07 342.772 244.032ZM363.865 245.292C363.865 247.65 362.137 249 359.455 249H354.721V236.076H359.203C361.813 236.076 363.379 237.282 363.379 239.46C363.379 240.684 362.641 241.728 361.399 242.268C363.001 242.718 363.865 243.816 363.865 245.292ZM359.077 237.66H356.539V241.548H359.077C360.643 241.548 361.489 240.81 361.489 239.604C361.489 238.398 360.643 237.66 359.077 237.66ZM359.329 243.132H356.539V247.416H359.329C361.021 247.416 361.975 246.606 361.975 245.238C361.975 243.924 361.021 243.132 359.329 243.132ZM371.241 245.076V239.46H373.059V249H371.367V247.488C370.863 248.478 369.747 249.18 368.451 249.18C366.525 249.18 365.193 248.046 365.193 245.598V239.46H367.011V245.238C367.011 246.894 367.839 247.578 369.027 247.578C370.251 247.578 371.241 246.57 371.241 245.076ZM374.179 244.23C374.179 241.332 375.835 239.28 378.409 239.28C379.687 239.28 380.803 239.928 381.469 241.098V236.076H383.287V249H381.595V247.29C380.911 248.496 379.759 249.18 378.409 249.18C375.835 249.18 374.179 247.092 374.179 244.23ZM376.069 244.23C376.069 246.354 377.185 247.56 378.769 247.56C380.317 247.56 381.469 246.3 381.469 244.194C381.469 242.052 380.281 240.882 378.769 240.882C377.185 240.882 376.069 242.07 376.069 244.23ZM384.411 244.23C384.411 241.332 386.067 239.28 388.641 239.28C389.919 239.28 391.035 239.928 391.701 241.098V236.076H393.519V249H391.827V247.29C391.143 248.496 389.991 249.18 388.641 249.18C386.067 249.18 384.411 247.092 384.411 244.23ZM386.301 244.23C386.301 246.354 387.417 247.56 389.001 247.56C390.549 247.56 391.701 246.3 391.701 244.194C391.701 242.052 390.513 240.882 389.001 240.882C387.417 240.882 386.301 242.07 386.301 244.23ZM403.246 239.46L398.476 252.474H396.496L397.864 248.874L394.102 239.46H396.064L398.836 246.732L401.41 239.46H403.246Z" fill="black"/>
<path d="M568.193 242.75H566.942V245H565.952V238.538H568.193C569.642 238.538 570.578 239.276 570.578 240.626C570.578 241.985 569.642 242.75 568.193 242.75ZM568.184 239.375H566.942V241.913H568.184C569.057 241.913 569.588 241.436 569.588 240.635C569.588 239.834 569.057 239.375 568.184 239.375ZM572.045 242.561V245H571.136V240.23H571.982V241.238C572.315 240.581 573.035 240.167 573.818 240.167V241.112C572.792 241.058 572.045 241.508 572.045 242.561ZM576.158 245.09C574.808 245.09 573.818 244.028 573.818 242.615C573.818 241.202 574.808 240.14 576.158 240.14C577.508 240.14 578.498 241.202 578.498 242.615C578.498 244.028 577.508 245.09 576.158 245.09ZM576.158 244.289C576.941 244.289 577.562 243.659 577.562 242.615C577.562 241.571 576.941 240.95 576.158 240.95C575.375 240.95 574.763 241.571 574.763 242.615C574.763 243.659 575.375 244.289 576.158 244.289ZM582.875 240.23L581.084 245H580.094L578.303 240.23H579.284L580.607 243.956L581.948 240.23H582.875ZM584.268 239.123C584.268 239.465 583.998 239.726 583.611 239.726C583.224 239.726 582.945 239.465 582.945 239.123C582.945 238.772 583.224 238.52 583.611 238.52C583.998 238.52 584.268 238.772 584.268 239.123ZM584.07 245H583.161V240.23H584.07V245ZM584.63 242.615C584.63 241.166 585.458 240.14 586.745 240.14C587.384 240.14 587.942 240.464 588.275 241.049V238.538H589.184V245H588.338V244.145C587.996 244.748 587.42 245.09 586.745 245.09C585.458 245.09 584.63 244.046 584.63 242.615ZM585.575 242.615C585.575 243.677 586.133 244.28 586.925 244.28C587.699 244.28 588.275 243.65 588.275 242.597C588.275 241.526 587.681 240.941 586.925 240.941C586.133 240.941 585.575 241.535 585.575 242.615ZM592.049 245.09C590.672 245.09 589.745 244.091 589.745 242.588C589.745 241.175 590.708 240.14 592.022 240.14C593.444 240.14 594.389 241.292 594.227 242.84H590.672C590.744 243.812 591.23 244.379 592.031 244.379C592.706 244.379 593.174 244.01 593.327 243.389H594.227C593.993 244.451 593.174 245.09 592.049 245.09ZM592.004 240.824C591.275 240.824 590.78 241.346 590.681 242.237H593.264C593.219 241.355 592.742 240.824 592.004 240.824ZM597.416 245H596.426V238.538H600.35V239.402H597.416V241.508H599.918V242.372H597.416V245ZM602.72 245.09C601.343 245.09 600.416 244.091 600.416 242.588C600.416 241.175 601.379 240.14 602.693 240.14C604.115 240.14 605.06 241.292 604.898 242.84H601.343C601.415 243.812 601.901 244.379 602.702 244.379C603.377 244.379 603.845 244.01 603.998 243.389H604.898C604.664 244.451 603.845 245.09 602.72 245.09ZM602.675 240.824C601.946 240.824 601.451 241.346 601.352 242.237H603.935C603.89 241.355 603.413 240.824 602.675 240.824ZM607.379 245.09C606.002 245.09 605.075 244.091 605.075 242.588C605.075 241.175 606.038 240.14 607.352 240.14C608.774 240.14 609.719 241.292 609.557 242.84H606.002C606.074 243.812 606.56 244.379 607.361 244.379C608.036 244.379 608.504 244.01 608.657 243.389H609.557C609.323 244.451 608.504 245.09 607.379 245.09ZM607.334 240.824C606.605 240.824 606.11 241.346 606.011 242.237H608.594C608.549 241.355 608.072 240.824 607.334 240.824ZM609.733 242.615C609.733 241.166 610.561 240.14 611.848 240.14C612.487 240.14 613.045 240.464 613.378 241.049V238.538H614.287V245H613.441V244.145C613.099 244.748 612.523 245.09 611.848 245.09C610.561 245.09 609.733 244.046 609.733 242.615ZM610.678 242.615C610.678 243.677 611.236 244.28 612.028 244.28C612.802 244.28 613.378 243.65 613.378 242.597C613.378 241.526 612.784 240.941 612.028 240.941C611.236 240.941 610.678 241.535 610.678 242.615ZM619.745 242.615C619.745 244.046 618.917 245.09 617.63 245.09C616.955 245.09 616.379 244.748 616.037 244.145V245H615.191V238.538H616.1V241.049C616.433 240.464 616.982 240.14 617.63 240.14C618.908 240.14 619.745 241.166 619.745 242.615ZM618.8 242.615C618.8 241.535 618.233 240.941 617.45 240.941C616.694 240.941 616.1 241.526 616.1 242.597C616.1 243.65 616.676 244.28 617.45 244.28C618.233 244.28 618.8 243.677 618.8 242.615ZM623.195 245V244.262C622.898 244.793 622.367 245.09 621.665 245.09C620.675 245.09 620.027 244.523 620.027 243.65C620.027 242.714 620.774 242.228 622.196 242.228C622.475 242.228 622.7 242.237 623.087 242.282V241.931C623.087 241.247 622.718 240.86 622.088 240.86C621.422 240.86 621.017 241.256 620.99 241.922H620.162C620.207 240.851 620.972 240.14 622.088 240.14C623.267 240.14 623.951 240.806 623.951 241.94V245H623.195ZM620.891 243.623C620.891 244.118 621.26 244.442 621.845 244.442C622.61 244.442 623.087 243.965 623.087 243.236V242.849C622.736 242.804 622.484 242.795 622.25 242.795C621.341 242.795 620.891 243.065 620.891 243.623ZM626.688 245.099C625.383 245.099 624.465 244.073 624.465 242.615C624.465 241.175 625.401 240.14 626.688 240.14C627.867 240.14 628.722 240.923 628.893 242.165H627.939C627.84 241.4 627.363 240.941 626.697 240.941C625.914 240.941 625.401 241.607 625.401 242.615C625.401 243.632 625.914 244.289 626.697 244.289C627.372 244.289 627.84 243.839 627.948 243.065H628.893C628.731 244.325 627.885 245.099 626.688 245.099ZM630.357 245H629.448V238.538H630.357V242.363L632.4 240.23H633.471L631.266 242.543L633.678 245H632.508L630.357 242.741V245Z" fill="#286CFF"/>
<path d="M645.5 242H639.5" stroke="#286CFF" stroke-width="0.75" stroke-linecap="round" stroke-linejoin="round"/>
<path d="M643.625 243.875C643.625 243.875 645.5 242.494 645.5 242C645.5 241.506 643.625 240.125 643.625 240.125" stroke="#286CFF" stroke-width="0.75" stroke-linecap="round" stroke-linejoin="round"/>
<path d="M508.416 344C508.416 320.298 489.202 301.083 465.5 301.083C441.797 301.083 422.583 320.298 422.583 344C422.583 367.702 441.797 386.917 465.5 386.917C489.202 386.917 508.416 367.702 508.416 344Z" fill="#F5F5F5" stroke="#808080" stroke-width="1.5" stroke-linecap="round" stroke-linejoin="round"/>
<path d="M480.521 337.562C480.521 329.267 473.796 322.542 465.5 322.542C457.205 322.542 450.479 329.267 450.479 337.562C450.479 345.858 457.205 352.583 465.5 352.583C473.796 352.583 480.521 345.858 480.521 337.562Z" stroke="#808080" stroke-width="1.5" stroke-linecap="round" stroke-linejoin="round"/>
<path d="M491.25 378.333C491.25 364.112 479.721 352.583 465.5 352.583C451.279 352.583 439.75 364.112 439.75 378.333" stroke="#808080" stroke-width="1.5" stroke-linecap="round" stroke-linejoin="round"/>
<path d="M446.201 423.175V426H445.035V423.175L442.326 418.461H443.586L445.655 422.094L447.744 418.461H448.92L446.201 423.175ZM450.651 426.105C449.076 426.105 447.921 424.866 447.921 423.217C447.921 421.569 449.076 420.33 450.651 420.33C452.226 420.33 453.381 421.569 453.381 423.217C453.381 424.866 452.226 426.105 450.651 426.105ZM450.651 425.17C451.564 425.17 452.289 424.435 452.289 423.217C452.289 421.999 451.564 421.275 450.651 421.275C449.737 421.275 449.023 421.999 449.023 423.217C449.023 424.435 449.737 425.17 450.651 425.17ZM457.518 423.711V420.435H458.578V426H457.591V425.118C457.297 425.695 456.646 426.105 455.89 426.105C454.767 426.105 453.99 425.443 453.99 424.015V420.435H455.05V423.805C455.05 424.771 455.533 425.17 456.226 425.17C456.94 425.17 457.518 424.582 457.518 423.711ZM460.691 423.154V426H459.631V420.435H460.618V421.611C461.006 420.844 461.846 420.361 462.76 420.361V421.464C461.563 421.401 460.691 421.926 460.691 423.154ZM468.03 426H466.875V419.5H464.418V418.461H470.487V419.5H468.03V426ZM474.059 423.711V420.435H475.119V426H474.132V425.118C473.838 425.695 473.187 426.105 472.431 426.105C471.308 426.105 470.531 425.443 470.531 424.015V420.435H471.591V423.805C471.591 424.771 472.074 425.17 472.767 425.17C473.481 425.17 474.059 424.582 474.059 423.711ZM479.312 424.971V425.905C478.986 426.053 478.703 426.105 478.367 426.105C477.338 426.105 476.624 425.548 476.624 424.32V421.338H475.395V420.435H476.624V418.786H477.684V420.435H479.364V421.338H477.684V424.078C477.684 424.845 478.052 425.118 478.619 425.118C478.871 425.118 479.091 425.076 479.312 424.971ZM482.133 426.105C480.558 426.105 479.403 424.866 479.403 423.217C479.403 421.569 480.558 420.33 482.133 420.33C483.708 420.33 484.863 421.569 484.863 423.217C484.863 424.866 483.708 426.105 482.133 426.105ZM482.133 425.17C483.047 425.17 483.771 424.435 483.771 423.217C483.771 421.999 483.047 421.275 482.133 421.275C481.22 421.275 480.506 421.999 480.506 423.217C480.506 424.435 481.22 425.17 482.133 425.17ZM486.585 423.154V426H485.524V420.435H486.511V421.611C486.9 420.844 487.74 420.361 488.653 420.361V421.464C487.456 421.401 486.585 421.926 486.585 423.154Z" fill="#808080"/>
<path d="M422.24 451H420.59V440.23H422.24V444.73H427.7V440.23H429.35V451H427.7V446.17H422.24V451ZM435.788 451V449.77C435.293 450.655 434.408 451.15 433.238 451.15C431.588 451.15 430.508 450.205 430.508 448.75C430.508 447.19 431.753 446.38 434.123 446.38C434.588 446.38 434.963 446.395 435.608 446.47V445.885C435.608 444.745 434.993 444.1 433.943 444.1C432.833 444.1 432.158 444.76 432.113 445.87H430.733C430.808 444.085 432.083 442.9 433.943 442.9C435.908 442.9 437.048 444.01 437.048 445.9V451H435.788ZM431.948 448.705C431.948 449.53 432.563 450.07 433.538 450.07C434.813 450.07 435.608 449.275 435.608 448.06V447.415C435.023 447.34 434.603 447.325 434.213 447.325C432.698 447.325 431.948 447.775 431.948 448.705ZM439.989 446.935V451H438.474V443.05H439.884V444.73C440.439 443.635 441.639 442.945 442.944 442.945V444.52C441.234 444.43 439.989 445.18 439.989 446.935ZM445.058 446.935V451H443.543V443.05H444.953V444.73C445.508 443.635 446.708 442.945 448.013 442.945V444.52C446.303 444.43 445.058 445.18 445.058 446.935ZM455.358 443.05L451.383 453.895H449.733L450.873 450.895L447.738 443.05H449.373L451.683 449.11L453.828 443.05H455.358ZM466.694 451L464.414 442.555L462.119 451H460.424L457.619 440.23H459.239L461.309 448.525L463.574 440.23H465.284L467.519 448.54L469.589 440.23H471.209L468.404 451H466.694ZM473.808 441.205C473.808 441.775 473.358 442.21 472.713 442.21C472.068 442.21 471.603 441.775 471.603 441.205C471.603 440.62 472.068 440.2 472.713 440.2C473.358 440.2 473.808 440.62 473.808 441.205ZM473.478 451H471.963V443.05H473.478V451ZM476.511 451H474.981V440.23H476.511V451ZM479.544 451H478.014V440.23H479.544V451ZM482.892 441.205C482.892 441.775 482.442 442.21 481.797 442.21C481.152 442.21 480.687 441.775 480.687 441.205C480.687 440.62 481.152 440.2 481.797 440.2C482.442 440.2 482.892 440.62 482.892 441.205ZM482.562 451H481.047V443.05H482.562V451ZM488.88 451V449.77C488.385 450.655 487.5 451.15 486.33 451.15C484.68 451.15 483.6 450.205 483.6 448.75C483.6 447.19 484.845 446.38 487.215 446.38C487.68 446.38 488.055 446.395 488.7 446.47V445.885C488.7 444.745 488.085 444.1 487.035 444.1C485.925 444.1 485.25 444.76 485.205 445.87H483.825C483.9 444.085 485.175 442.9 487.035 442.9C489 442.9 490.14 444.01 490.14 445.9V451H488.88ZM485.04 448.705C485.04 449.53 485.655 450.07 486.63 450.07C487.905 450.07 488.7 449.275 488.7 448.06V447.415C488.115 447.34 487.695 447.325 487.305 447.325C485.79 447.325 485.04 447.775 485.04 448.705ZM493.08 451H491.565V443.05H492.975V444.37C493.515 443.455 494.37 442.9 495.465 442.9C496.635 442.9 497.52 443.5 497.88 444.55C498.435 443.53 499.35 442.9 500.565 442.9C502.2 442.9 503.25 443.965 503.25 445.855V451H501.735V446.335C501.735 445.015 501.15 444.235 500.04 444.235C499.005 444.235 498.165 445.105 498.165 446.44V451H496.65V446.335C496.65 445.015 496.065 444.235 494.955 444.235C493.905 444.235 493.08 445.105 493.08 446.44V451ZM510.976 448.63C510.976 450.19 509.761 451.15 507.646 451.15C505.546 451.15 504.301 450.115 504.151 448.405H505.606C505.666 449.395 506.461 450.01 507.676 450.01C508.741 450.01 509.446 449.635 509.446 448.885C509.446 448.225 509.041 447.94 508.051 447.745L506.761 447.505C505.291 447.22 504.466 446.47 504.466 445.27C504.466 443.875 505.681 442.9 507.526 442.9C509.431 442.9 510.721 443.92 510.856 445.555H509.401C509.311 444.595 508.606 444.04 507.541 444.04C506.581 444.04 505.936 444.445 505.936 445.135C505.936 445.78 506.341 446.08 507.301 446.26L508.651 446.515C510.226 446.8 510.976 447.49 510.976 448.63Z" fill="black"/>
<rect x="361.25" y="479" width="101.25" height="30" rx="15" fill="url(#paint0_linear_3138_42)"/>
<path d="M381.067 497H380.077V490.538H382.489C383.974 490.538 384.865 491.267 384.865 492.554C384.865 493.481 384.28 494.192 383.299 494.426L385.054 497H383.866L382.255 494.57H381.067V497ZM381.067 491.366V493.742H382.426C383.344 493.742 383.866 493.337 383.866 492.554C383.866 491.78 383.344 491.366 382.426 491.366H381.067ZM387.311 497.09C385.934 497.09 385.007 496.091 385.007 494.588C385.007 493.175 385.97 492.14 387.284 492.14C388.706 492.14 389.651 493.292 389.489 494.84H385.934C386.006 495.812 386.492 496.379 387.293 496.379C387.968 496.379 388.436 496.01 388.589 495.389H389.489C389.255 496.451 388.436 497.09 387.311 497.09ZM387.266 492.824C386.537 492.824 386.042 493.346 385.943 494.237H388.526C388.481 493.355 388.004 492.824 387.266 492.824ZM389.666 494.615C389.666 493.175 390.494 492.14 391.781 492.14C392.465 492.14 393.041 492.491 393.374 493.112V492.23H394.22V498.737H393.311V496.19C392.969 496.766 392.42 497.09 391.781 497.09C390.494 497.09 389.666 496.055 389.666 494.615ZM390.611 494.615C390.611 495.686 391.169 496.28 391.961 496.28C392.735 496.28 393.311 495.668 393.311 494.615C393.311 493.544 392.726 492.941 391.961 492.941C391.169 492.941 390.611 493.544 390.611 494.615ZM398.102 495.038V492.23H399.011V497H398.165V496.244C397.913 496.739 397.355 497.09 396.707 497.09C395.744 497.09 395.078 496.523 395.078 495.299V492.23H395.987V495.119C395.987 495.947 396.401 496.289 396.995 496.289C397.607 496.289 398.102 495.785 398.102 495.038ZM401.876 497.09C400.499 497.09 399.572 496.091 399.572 494.588C399.572 493.175 400.535 492.14 401.849 492.14C403.271 492.14 404.216 493.292 404.054 494.84H400.499C400.571 495.812 401.057 496.379 401.858 496.379C402.533 496.379 403.001 496.01 403.154 495.389H404.054C403.82 496.451 403.001 497.09 401.876 497.09ZM401.831 492.824C401.102 492.824 400.607 493.346 400.508 494.237H403.091C403.046 493.355 402.569 492.824 401.831 492.824ZM408.44 495.578C408.44 496.514 407.711 497.09 406.442 497.09C405.182 497.09 404.435 496.469 404.345 495.443H405.218C405.254 496.037 405.731 496.406 406.46 496.406C407.099 496.406 407.522 496.181 407.522 495.731C407.522 495.335 407.279 495.164 406.685 495.047L405.911 494.903C405.029 494.732 404.534 494.282 404.534 493.562C404.534 492.725 405.263 492.14 406.37 492.14C407.513 492.14 408.287 492.752 408.368 493.733H407.495C407.441 493.157 407.018 492.824 406.379 492.824C405.803 492.824 405.416 493.067 405.416 493.481C405.416 493.868 405.659 494.048 406.235 494.156L407.045 494.309C407.99 494.48 408.44 494.894 408.44 495.578ZM411.702 496.118V496.919C411.423 497.045 411.18 497.09 410.892 497.09C410.01 497.09 409.398 496.613 409.398 495.56V493.004H408.345V492.23H409.398V490.817H410.307V492.23H411.747V493.004H410.307V495.353C410.307 496.01 410.622 496.244 411.108 496.244C411.324 496.244 411.513 496.208 411.702 496.118ZM416.664 497.135C414.864 497.135 413.469 495.668 413.469 493.76C413.469 491.861 414.864 490.403 416.664 490.403C418.284 490.403 419.58 491.483 419.823 493.076H418.77C418.59 492.032 417.744 491.294 416.673 491.294C415.395 491.294 414.495 492.329 414.495 493.76C414.495 495.209 415.395 496.244 416.673 496.244C417.744 496.244 418.59 495.497 418.77 494.453H419.823C419.58 496.055 418.284 497.135 416.664 497.135ZM421.329 494.309V497H420.42V490.538H421.329V492.995C421.644 492.482 422.13 492.14 422.787 492.14C423.768 492.14 424.416 492.77 424.416 493.913V497H423.507V494.219C423.507 493.4 423.147 492.941 422.472 492.941C421.851 492.941 421.329 493.463 421.329 494.309ZM428.152 497V496.262C427.855 496.793 427.324 497.09 426.622 497.09C425.632 497.09 424.984 496.523 424.984 495.65C424.984 494.714 425.731 494.228 427.153 494.228C427.432 494.228 427.657 494.237 428.044 494.282V493.931C428.044 493.247 427.675 492.86 427.045 492.86C426.379 492.86 425.974 493.256 425.947 493.922H425.119C425.164 492.851 425.929 492.14 427.045 492.14C428.224 492.14 428.908 492.806 428.908 493.94V497H428.152ZM425.848 495.623C425.848 496.118 426.217 496.442 426.802 496.442C427.567 496.442 428.044 495.965 428.044 495.236V494.849C427.693 494.804 427.441 494.795 427.207 494.795C426.298 494.795 425.848 495.065 425.848 495.623ZM430.673 494.309V497H429.764V492.23H430.61V493.022C430.934 492.491 431.474 492.14 432.131 492.14C433.112 492.14 433.76 492.77 433.76 493.913V497H432.851V494.219C432.851 493.4 432.491 492.941 431.816 492.941C431.195 492.941 430.673 493.463 430.673 494.309ZM436.515 498.836C435.264 498.836 434.454 498.17 434.4 497.09H435.282C435.336 497.756 435.768 498.116 436.506 498.116C437.325 498.116 437.757 497.675 437.757 496.856V495.992C437.487 496.568 436.947 496.901 436.299 496.901C435.111 496.901 434.265 495.92 434.265 494.516C434.265 493.094 435.075 492.14 436.272 492.14C436.956 492.14 437.496 492.473 437.82 493.076V492.23H438.666V496.838C438.666 498.089 437.865 498.836 436.515 498.836ZM435.183 494.516C435.183 495.506 435.669 496.109 436.461 496.109C437.235 496.109 437.757 495.488 437.757 494.543C437.757 493.553 437.244 492.923 436.461 492.923C435.678 492.923 435.183 493.535 435.183 494.516ZM441.526 497.09C440.149 497.09 439.222 496.091 439.222 494.588C439.222 493.175 440.185 492.14 441.499 492.14C442.921 492.14 443.866 493.292 443.704 494.84H440.149C440.221 495.812 440.707 496.379 441.508 496.379C442.183 496.379 442.651 496.01 442.804 495.389H443.704C443.47 496.451 442.651 497.09 441.526 497.09ZM441.481 492.824C440.752 492.824 440.257 493.346 440.158 494.237H442.741C442.696 493.355 442.219 492.824 441.481 492.824Z" fill="white"/>
<rect x="468.5" y="479" width="101.25" height="30" rx="15" fill="#34C759"/>
<path d="M504.779 497L502.736 492.059V497H501.827V490.538H503.042L505.211 495.785L507.371 490.538H508.595V497H507.677V492.05L505.625 497H504.779ZM511.522 497.09C510.145 497.09 509.218 496.091 509.218 494.588C509.218 493.175 510.181 492.14 511.495 492.14C512.917 492.14 513.862 493.292 513.7 494.84H510.145C510.217 495.812 510.703 496.379 511.504 496.379C512.179 496.379 512.647 496.01 512.8 495.389H513.7C513.466 496.451 512.647 497.09 511.522 497.09ZM511.477 492.824C510.748 492.824 510.253 493.346 510.154 494.237H512.737C512.692 493.355 512.215 492.824 511.477 492.824ZM518.086 495.578C518.086 496.514 517.357 497.09 516.088 497.09C514.828 497.09 514.081 496.469 513.991 495.443H514.864C514.9 496.037 515.377 496.406 516.106 496.406C516.745 496.406 517.168 496.181 517.168 495.731C517.168 495.335 516.925 495.164 516.331 495.047L515.557 494.903C514.675 494.732 514.18 494.282 514.18 493.562C514.18 492.725 514.909 492.14 516.016 492.14C517.159 492.14 517.933 492.752 518.014 493.733H517.141C517.087 493.157 516.664 492.824 516.025 492.824C515.449 492.824 515.062 493.067 515.062 493.481C515.062 493.868 515.305 494.048 515.881 494.156L516.691 494.309C517.636 494.48 518.086 494.894 518.086 495.578ZM522.499 495.578C522.499 496.514 521.77 497.09 520.501 497.09C519.241 497.09 518.494 496.469 518.404 495.443H519.277C519.313 496.037 519.79 496.406 520.519 496.406C521.158 496.406 521.581 496.181 521.581 495.731C521.581 495.335 521.338 495.164 520.744 495.047L519.97 494.903C519.088 494.732 518.593 494.282 518.593 493.562C518.593 492.725 519.322 492.14 520.429 492.14C521.572 492.14 522.346 492.752 522.427 493.733H521.554C521.5 493.157 521.077 492.824 520.438 492.824C519.862 492.824 519.475 493.067 519.475 493.481C519.475 493.868 519.718 494.048 520.294 494.156L521.104 494.309C522.049 494.48 522.499 494.894 522.499 495.578ZM526.02 497V496.262C525.723 496.793 525.192 497.09 524.49 497.09C523.5 497.09 522.852 496.523 522.852 495.65C522.852 494.714 523.599 494.228 525.021 494.228C525.3 494.228 525.525 494.237 525.912 494.282V493.931C525.912 493.247 525.543 492.86 524.913 492.86C524.247 492.86 523.842 493.256 523.815 493.922H522.987C523.032 492.851 523.797 492.14 524.913 492.14C526.092 492.14 526.776 492.806 526.776 493.94V497H526.02ZM523.716 495.623C523.716 496.118 524.085 496.442 524.67 496.442C525.435 496.442 525.912 495.965 525.912 495.236V494.849C525.561 494.804 525.309 494.795 525.075 494.795C524.166 494.795 523.716 495.065 523.716 495.623ZM529.54 498.836C528.289 498.836 527.479 498.17 527.425 497.09H528.307C528.361 497.756 528.793 498.116 529.531 498.116C530.35 498.116 530.782 497.675 530.782 496.856V495.992C530.512 496.568 529.972 496.901 529.324 496.901C528.136 496.901 527.29 495.92 527.29 494.516C527.29 493.094 528.1 492.14 529.297 492.14C529.981 492.14 530.521 492.473 530.845 493.076V492.23H531.691V496.838C531.691 498.089 530.89 498.836 529.54 498.836ZM528.208 494.516C528.208 495.506 528.694 496.109 529.486 496.109C530.26 496.109 530.782 495.488 530.782 494.543C530.782 493.553 530.269 492.923 529.486 492.923C528.703 492.923 528.208 493.535 528.208 494.516ZM534.551 497.09C533.174 497.09 532.247 496.091 532.247 494.588C532.247 493.175 533.21 492.14 534.524 492.14C535.946 492.14 536.891 493.292 536.729 494.84H533.174C533.246 495.812 533.732 496.379 534.533 496.379C535.208 496.379 535.676 496.01 535.829 495.389H536.729C536.495 496.451 535.676 497.09 534.551 497.09ZM534.506 492.824C533.777 492.824 533.282 493.346 533.183 494.237H535.766C535.721 493.355 535.244 492.824 534.506 492.824Z" fill="white"/>
</g>
<defs>
<filter id="filter0_dd_3138_42" x="232.85" y="177.7" width="465.3" height="395.3" filterUnits="userSpaceOnUse" color-interpolation-filters="sRGB">
<feFlood flood-opacity="0" result="BackgroundImageFix"/>
<feColorMatrix in="SourceAlpha" type="matrix" values="0 0 0 0 0 0 0 0 0 0 0 0 0 0 0 0 0 0 127 0" result="hardAlpha"/>
<feOffset dy="0.975"/>
<feGaussianBlur stdDeviation="1.4625"/>
<feColorMatrix type="matrix" values="0 0 0 0 0 0 0 0 0 0 0 0 0 0 0 0 0 0 0.3 0"/>
<feBlend mode="normal" in2="BackgroundImageFix" result="effect1_dropShadow_3138_42"/>
<feColorMatrix in="SourceAlpha" type="matrix" values="0 0 0 0 0 0 0 0 0 0 0 0 0 0 0 0 0 0 127 0" result="hardAlpha"/>
<feMorphology radius="6.825" operator="dilate" in="SourceAlpha" result="effect2_dropShadow_3138_42"/>
<feOffset dy="5.85"/>
<feGaussianBlur stdDeviation="13.1625"/>
<feColorMatrix type="matrix" values="0 0 0 0 0 0 0 0 0 0 0 0 0 0 0 0 0 0 0.15 0"/>
<feBlend mode="normal" in2="effect1_dropShadow_3138_42" result="effect2_dropShadow_3138_42"/>
<feBlend mode="normal" in="SourceGraphic" in2="effect2_dropShadow_3138_42" result="shape"/>
</filter>
<linearGradient id="paint0_linear_3138_42" x1="410" y1="479" x2="389.877" y2="526.248" gradientUnits="userSpaceOnUse">
<stop stop-color="#121212"/>
<stop offset="1" stop-color="#545454"/>
</linearGradient>
</defs>
</svg>
