<svg width="1592" height="519" viewBox="0 0 1592 519" fill="none" xmlns="http://www.w3.org/2000/svg">
<g clip-path="url(#clip0_2712_196)">
<path d="M789.812 0H581.188C580.532 0 580 0.531848 580 1.18792V209.812C580 210.468 580.532 211 581.188 211H789.812C790.468 211 791 210.468 791 209.812V1.18792C791 0.531848 790.468 0 789.812 0Z" fill="#EF4DA7"/>
<path d="M614.894 132.073L614.847 148.115L630.842 156.588L631.175 142.307L636.221 158.397L649.264 161.492L647.122 149.067L652.501 161.872L669.401 166.299L668.401 155.636L670.638 165.395L696.343 166.021L697.487 154.172L699.17 155.249L699.911 165.819L736.87 155.855L739.092 136.803L739.563 154.643L756.057 148.113L755.653 113.712L751.883 90.7552C749.982 72.5515 742.155 53.359 723.164 40.3554C694.61 20.8032 657.076 26.5312 636.507 44.006C625.711 53.1773 618.067 66.8358 615.557 86.8506L614.894 132.073Z" fill="#040816"/>
<mask id="mask0_2712_196" style="mask-type:luminance" maskUnits="userSpaceOnUse" x="644" y="161" width="80" height="51">
<path d="M644.483 211.36C644.483 192.715 655.701 165.927 673.099 161.266L694.549 161.186C719.559 167.887 723.069 203.673 723.069 210.454L644.483 211.36Z" fill="white"/>
</mask>
<g mask="url(#mask0_2712_196)">
<path d="M644.483 211.36C644.483 192.715 655.701 165.927 673.099 161.266L694.549 161.186C719.559 167.887 723.069 203.673 723.069 210.454L644.483 211.36Z" fill="#F9F9F9"/>
<path d="M732.655 183.994H627.729C627.073 183.994 626.541 184.525 626.541 185.182V239.316C626.541 239.972 627.073 240.504 627.729 240.504H732.655C733.311 240.504 733.843 239.972 733.843 239.316V185.182C733.843 184.525 733.311 183.994 732.655 183.994Z" fill="#FFFF00"/>
</g>
<path d="M684.041 171.741C690.762 171.741 696.21 168.691 696.21 164.928C696.21 161.164 690.762 158.114 684.041 158.114C677.32 158.114 671.871 161.164 671.871 164.928C671.871 168.691 677.32 171.741 684.041 171.741Z" fill="#C9570B"/>
<path d="M673.577 149.839H694.549V165.428C686.951 170.122 680.006 169.769 673.577 165.428V149.839Z" fill="#F5BE7A"/>
<path d="M673.577 152.256L694.549 158.672V148.817L673.577 149.839V152.256Z" fill="#C9570B"/>
<path d="M738.651 107.004C738.651 132.239 713.493 152.937 683.673 152.937C653.854 152.937 629.87 131.718 629.87 106.483C629.87 97.1636 626.638 78.2505 632.725 65.9135C643.12 44.8455 667.532 31.0867 686.339 31.0867C705.717 31.0867 728.463 50.3341 737.491 72.2473C742.356 84.0558 738.651 98.1671 738.651 107.004Z" fill="#F5BE7A"/>
<path d="M633.081 115.73C621.539 118.527 611.528 117.55 611.054 103.484C610.848 97.3553 618.3 91.5232 629.263 94.6614L633.081 115.73Z" fill="#F5BE7A"/>
<path d="M629.864 112.275C625.959 114.35 616.402 114.244 616.402 108.53C616.402 102.816 621.132 100.032 628.187 101.855L629.864 112.275Z" fill="#FF5555"/>
<path d="M672.491 123.399C673.692 132.88 688.006 136.856 694.729 123.658" stroke="black" stroke-width="14.8402" stroke-linecap="round" stroke-linejoin="round"/>
<path d="M706.825 82.9615C706.71 82.9695 706.598 83.0036 706.497 83.0611C706.397 83.1186 706.31 83.1981 706.245 83.2937C705.772 83.9786 705.659 84.8278 705.538 85.6082C705.417 86.3886 705.37 87.0588 705.37 87.0588C705.363 87.1594 705.376 87.2604 705.408 87.356C705.441 87.4516 705.491 87.5399 705.558 87.6159C705.624 87.6919 705.705 87.7541 705.795 87.7989C705.885 87.8436 705.984 87.8702 706.084 87.877C706.208 87.8844 706.331 87.8619 706.444 87.8115C706.488 87.9129 706.553 88.0036 706.635 88.0775C706.717 88.1514 706.814 88.2067 706.92 88.2397C707.063 88.2826 707.216 88.2826 707.36 88.2397C707.424 88.368 707.523 88.4757 707.646 88.5505C707.77 88.625 707.913 88.6629 708.057 88.6597C708.202 88.6566 708.343 88.6126 708.464 88.5328C708.501 88.6797 708.581 88.8123 708.694 88.9138C708.769 88.9814 708.857 89.0335 708.953 89.067C709.049 89.1005 709.15 89.1147 709.251 89.1089C709.352 89.1031 709.451 89.0774 709.542 89.0331C709.633 88.9889 709.715 88.9271 709.782 88.8513C709.782 88.8513 709.817 88.8123 709.87 88.7522C709.78 88.93 709.763 89.136 709.822 89.3265C709.88 89.517 710.011 89.6771 710.186 89.773C710.324 89.8474 710.482 89.8775 710.639 89.8593C710.795 89.8411 710.941 89.7753 711.059 89.671C711.059 89.6887 711.059 89.7153 711.059 89.7153C711.017 89.9145 711.056 90.1221 711.167 90.2927C711.278 90.4633 711.452 90.5827 711.652 90.6249C711.739 90.6422 711.829 90.6442 711.917 90.6308C711.993 90.8072 712.133 90.9486 712.309 91.027C712.495 91.1094 712.706 91.1145 712.896 91.041C713.086 90.9676 713.239 90.8217 713.322 90.6354C713.322 90.6354 713.457 90.262 714.122 89.8644C714.208 89.8127 714.284 89.7443 714.344 89.6633C714.405 89.5823 714.448 89.4902 714.473 89.3922C714.498 89.2943 714.503 89.1925 714.488 89.0925C714.473 88.9926 714.439 88.8966 714.387 88.81C714.298 88.6617 714.161 88.5479 713.999 88.487C713.837 88.4262 713.659 88.4219 713.494 88.4748C713.617 88.354 713.696 88.1953 713.718 88.0242C713.74 87.8531 713.704 87.6796 713.615 87.5316C713.536 87.3999 713.419 87.295 713.28 87.2303C713.141 87.1657 712.985 87.1443 712.833 87.169C712.922 87.0737 712.993 87.005 713.028 86.9847C713.203 86.8802 713.329 86.7106 713.379 86.5132C713.428 86.3157 713.398 86.1066 713.293 85.9318C713.207 85.7878 713.075 85.6763 712.919 85.6144C712.762 85.5524 712.59 85.5435 712.428 85.589C712.329 85.4815 712.201 85.4047 712.059 85.3674C711.918 85.3302 711.769 85.3341 711.63 85.3787C711.065 85.5598 710.596 85.9156 710.167 86.3021C710.373 86.0801 710.544 85.9176 710.604 85.8846C710.783 85.7868 710.915 85.622 710.972 85.4266C711.029 85.2312 711.007 85.021 710.909 84.8424C710.812 84.6644 710.649 84.5319 710.455 84.4736C710.358 84.4439 710.256 84.4338 710.155 84.4437C710.054 84.4536 709.956 84.4834 709.867 84.5314C709.481 84.7414 709.165 85.038 708.885 85.3649C709.009 85.1473 709.112 84.9867 709.157 84.9459C709.307 84.8092 709.396 84.6187 709.406 84.416C709.416 84.2133 709.346 84.0148 709.21 83.8641C709.141 83.7895 709.059 83.7292 708.967 83.6866C708.875 83.644 708.776 83.6199 708.675 83.6158C708.472 83.6055 708.273 83.6762 708.122 83.8125C707.69 84.2058 707.414 84.7177 707.187 85.2417C707.307 84.7225 707.458 84.2554 707.517 84.169C707.575 84.0861 707.616 83.9927 707.638 83.8939C707.659 83.7952 707.661 83.6931 707.644 83.5936C707.626 83.4941 707.589 83.3991 707.534 83.314C707.479 83.2289 707.409 83.1555 707.325 83.0979C707.182 82.9982 707.009 82.9504 706.835 82.9622L706.825 82.9615Z" fill="black"/>
<path d="M649.856 132.179C656.051 132.179 661.073 127.156 661.073 120.961C661.073 114.766 656.051 109.744 649.856 109.744C643.661 109.744 638.639 114.766 638.639 120.961C638.639 127.156 643.661 132.179 649.856 132.179Z" fill="#C9570B"/>
<path d="M720.356 132.198C726.982 132.198 732.354 126.826 732.354 120.2C732.354 113.573 726.982 108.201 720.356 108.201C713.73 108.201 708.358 113.573 708.358 120.2C708.358 126.826 713.73 132.198 720.356 132.198Z" fill="#C9570B"/>
<path d="M684.261 116.55C687.021 116.55 689.258 115.127 689.258 113.371C689.258 111.615 687.021 110.192 684.261 110.192C681.501 110.192 679.264 111.615 679.264 113.371C679.264 115.127 681.501 116.55 684.261 116.55Z" fill="#C9570B"/>
<path d="M734.596 115.669C746.137 118.466 757.158 117.556 757.633 103.49C757.839 97.3614 748.636 92.9432 737.673 96.0813L734.596 115.669Z" fill="#F5BE7A"/>
<path d="M737.813 112.214C741.718 114.289 751.275 114.183 751.275 108.469C751.275 102.754 746.545 99.9705 739.489 101.794L737.813 112.214Z" fill="#FF5555"/>
<path d="M623.042 83.5046C637.2 83.2043 651.36 78.9269 665.163 65.1896L664.497 75.71C673.715 70.5829 677.098 59.6215 682.206 50.3849L685.919 70.8545C689.683 61.3572 689.617 50.6024 690.267 40.8656C695.222 54.1385 699.737 68.7489 713.91 75.1388L716.29 70.4736L717.051 77.1381L737.902 82.5649L743.939 82.5413C733.339 61.4379 722.126 28.3641 686.339 31.0863C675.647 28.4734 658.185 38.3694 642.561 44.8683C631.553 55.4962 627.694 69.6986 623.042 83.5046Z" fill="#040816"/>
<path d="M659.919 111.061C663.548 111.061 666.49 106.457 666.49 100.777C666.49 95.0972 663.548 90.4927 659.919 90.4927C656.289 90.4927 653.347 95.0972 653.347 100.777C653.347 106.457 656.289 111.061 659.919 111.061Z" fill="#241C1C"/>
<path d="M704.946 111.078C708.576 111.078 711.518 106.473 711.518 100.793C711.518 95.1135 708.576 90.509 704.946 90.509C701.317 90.509 698.375 95.1135 698.375 100.793C698.375 106.473 701.317 111.078 704.946 111.078Z" fill="#241C1C"/>
<path d="M660.576 82.7547C660.692 82.7628 660.804 82.7969 660.905 82.8544C661.005 82.9119 661.091 82.9914 661.157 83.0869C661.63 83.7719 661.742 84.621 661.864 85.4014C661.985 86.1818 662.032 86.852 662.032 86.852C662.039 86.9526 662.025 87.0536 661.993 87.1492C661.961 87.2449 661.91 87.3332 661.844 87.4091C661.778 87.4851 661.697 87.5473 661.606 87.5921C661.516 87.6369 661.418 87.6634 661.317 87.6702C661.194 87.6776 661.07 87.6552 660.958 87.6048C660.914 87.7061 660.849 87.7968 660.767 87.8707C660.685 87.9446 660.588 87.9999 660.482 88.0329C660.339 88.0759 660.185 88.0759 660.042 88.0329C659.977 88.1612 659.878 88.2689 659.756 88.3438C659.632 88.4182 659.489 88.4561 659.344 88.453C659.199 88.4498 659.058 88.4058 658.938 88.3261C658.9 88.473 658.82 88.6055 658.708 88.707C658.632 88.7746 658.544 88.8267 658.449 88.8602C658.353 88.8937 658.252 88.9079 658.151 88.9021C658.049 88.8963 657.95 88.8706 657.859 88.8263C657.768 88.7821 657.687 88.7203 657.62 88.6445C657.62 88.6445 657.584 88.6056 657.531 88.5454C657.621 88.7232 657.639 88.9291 657.58 89.1196C657.521 89.3101 657.391 89.4703 657.216 89.5663C657.077 89.6407 656.919 89.6708 656.763 89.6525C656.607 89.6343 656.46 89.5686 656.343 89.4643C656.343 89.482 656.343 89.5085 656.343 89.5085C656.385 89.7077 656.346 89.9154 656.235 90.0859C656.124 90.2565 655.949 90.376 655.75 90.4181C655.663 90.4355 655.573 90.4375 655.485 90.424C655.408 90.6005 655.269 90.7418 655.093 90.8202C654.907 90.9026 654.695 90.9076 654.505 90.8342C654.315 90.7607 654.162 90.6149 654.08 90.4286C654.08 90.4286 653.944 90.0552 653.28 89.6576C653.193 89.6059 653.117 89.5375 653.057 89.4565C652.997 89.3755 652.953 89.2834 652.929 89.1854C652.904 89.0875 652.899 88.9857 652.914 88.8858C652.928 88.7859 652.963 88.6899 653.015 88.6032C653.104 88.4549 653.241 88.3411 653.403 88.2803C653.565 88.2194 653.742 88.2151 653.907 88.268C653.784 88.1472 653.705 87.9885 653.683 87.8174C653.661 87.6463 653.698 87.4728 653.786 87.3248C653.866 87.1932 653.982 87.0882 654.122 87.0236C654.261 86.9589 654.416 86.9376 654.568 86.9622C654.48 86.8669 654.409 86.7983 654.373 86.7779C654.199 86.6734 654.073 86.5038 654.023 86.3064C653.973 86.109 654.004 85.8999 654.108 85.725C654.195 85.581 654.327 85.4695 654.483 85.4076C654.639 85.3456 654.812 85.3367 654.973 85.3822C655.073 85.2748 655.201 85.1979 655.342 85.1606C655.484 85.1234 655.633 85.1273 655.772 85.172C656.336 85.353 656.805 85.7088 657.235 86.0953C657.028 85.8733 656.858 85.7108 656.798 85.6778C656.619 85.58 656.487 85.4152 656.429 85.2198C656.372 85.0243 656.395 84.8142 656.493 84.6356C656.59 84.4576 656.753 84.3251 656.947 84.2669C657.044 84.2372 657.146 84.2271 657.247 84.237C657.348 84.2469 657.446 84.2767 657.535 84.3247C657.921 84.5346 658.237 84.8312 658.516 85.1582C658.392 84.9406 658.289 84.7799 658.245 84.7391C658.095 84.6024 658.005 84.4119 657.995 84.2092C657.985 84.0065 658.056 83.8081 658.192 83.6573C658.26 83.5827 658.342 83.5224 658.434 83.4798C658.526 83.4372 658.625 83.4131 658.726 83.409C658.93 83.3987 659.129 83.4695 659.28 83.6057C659.711 83.999 659.987 84.511 660.215 85.0349C660.094 84.5157 659.944 84.0487 659.884 83.9622C659.827 83.8794 659.786 83.7859 659.764 83.6872C659.742 83.5884 659.74 83.4864 659.758 83.3869C659.776 83.2874 659.813 83.1923 659.868 83.1073C659.922 83.0222 659.993 82.9487 660.076 82.8911C660.219 82.7914 660.392 82.7436 660.567 82.7554L660.576 82.7547Z" fill="black"/>
<path d="M700.271 38.5554C701.119 40.9812 703.528 43.9536 706.912 47.2669C706.912 47.2669 710.785 52.6519 713.434 54.5502C713.91 54.8919 714.496 55.4282 715.052 55.2405C716.331 54.8084 717.736 53.9158 717.051 51.7178C713.999 41.9199 699.302 35.7812 700.271 38.5554Z" fill="#F9F9F9"/>
</g>
<g clip-path="url(#clip1_2712_196)">
<path d="M1010.81 0H802.188C801.532 0 801 0.531848 801 1.18792V209.812C801 210.468 801.532 211 802.188 211H1010.81C1011.47 211 1012 210.468 1012 209.812V1.18792C1012 0.531848 1011.47 0 1010.81 0Z" fill="#FF8D00"/>
<path d="M877.853 145.669L943.867 145.351L962.48 122.115L967.284 103.562C965.588 87.3264 959.808 70.3292 942.871 58.7316C917.404 41.2934 883.928 46.4021 865.583 61.9874C855.955 70.1671 852.874 81.16 850.635 99.0107C850.327 117.224 860.561 136.874 877.853 145.669Z" fill="#110402"/>
<path d="M872.698 211.246C872.698 194.617 882.703 170.726 898.219 166.569L917.35 166.497C939.655 172.474 942.786 204.391 942.786 210.438L872.698 211.246Z" fill="#2EFD30"/>
<path d="M907.978 175.912C913.972 175.912 918.831 173.191 918.831 169.834C918.831 166.478 913.972 163.757 907.978 163.757C901.984 163.757 897.124 166.478 897.124 169.834C897.124 173.191 901.984 175.912 907.978 175.912Z" fill="#C9570B"/>
<path d="M898.646 156.377H917.35V170.281C910.573 174.467 904.379 174.152 898.646 170.281V156.377Z" fill="#9F5131"/>
<path d="M898.646 158.533L917.35 164.255V155.466L898.646 156.377V158.533Z" fill="#8E3820"/>
<path d="M956.684 118.174C956.684 140.68 934.245 159.14 907.65 159.14C881.055 159.14 859.665 140.216 859.665 117.709C859.665 109.397 856.782 92.5293 862.211 81.5263C871.482 62.7362 893.254 50.4651 910.028 50.4651C927.31 50.4651 947.597 67.6314 955.649 87.1752C959.988 97.7069 956.684 110.292 956.684 118.174Z" fill="#9F5131"/>
<path d="M862.528 125.956C852.235 128.451 843.306 127.579 842.883 115.034C842.699 109.568 849.346 104.367 859.123 107.166L862.528 125.956Z" fill="#9F5131"/>
<path d="M859.659 122.875C856.176 124.725 847.652 124.631 847.652 119.535C847.652 114.438 851.871 111.955 858.164 113.582L859.659 122.875Z" fill="#863129"/>
<path d="M897.677 132.797C898.748 141.252 911.514 144.798 917.51 133.027" stroke="black" stroke-width="13.2356" stroke-linecap="round" stroke-linejoin="round"/>
<path d="M928.299 96.7308C928.196 96.738 928.096 96.7683 928.006 96.8196C927.917 96.8709 927.84 96.9418 927.781 97.0271C927.359 97.638 927.259 98.3953 927.151 99.0913C927.043 99.7873 927.001 100.385 927.001 100.385C926.995 100.475 927.007 100.565 927.036 100.65C927.064 100.735 927.11 100.814 927.169 100.882C927.228 100.95 927.3 101.005 927.381 101.045C927.461 101.085 927.549 101.109 927.639 101.115C927.749 101.121 927.859 101.101 927.959 101.056C927.999 101.147 928.057 101.228 928.13 101.294C928.203 101.359 928.29 101.409 928.383 101.438C928.512 101.477 928.648 101.477 928.776 101.438C928.833 101.552 928.921 101.649 929.03 101.715C929.141 101.782 929.268 101.815 929.398 101.813C929.527 101.81 929.652 101.77 929.76 101.699C929.793 101.83 929.865 101.948 929.965 102.039C930.032 102.099 930.111 102.146 930.196 102.175C930.281 102.205 930.372 102.218 930.462 102.213C930.552 102.208 930.64 102.185 930.722 102.145C930.803 102.106 930.876 102.051 930.935 101.983C930.935 101.983 930.966 101.948 931.014 101.895C930.934 102.053 930.918 102.237 930.971 102.407C931.023 102.577 931.14 102.72 931.296 102.805C931.419 102.872 931.56 102.898 931.699 102.882C931.838 102.866 931.969 102.807 932.074 102.714C932.071 102.73 932.066 102.754 932.066 102.754C932.029 102.931 932.064 103.117 932.163 103.269C932.262 103.421 932.417 103.527 932.595 103.565C932.673 103.58 932.753 103.582 932.831 103.57C932.899 103.727 933.024 103.853 933.181 103.923C933.263 103.96 933.351 103.98 933.441 103.982C933.531 103.984 933.621 103.968 933.705 103.936C933.789 103.903 933.865 103.855 933.93 103.793C933.996 103.731 934.048 103.656 934.084 103.574C934.084 103.574 934.206 103.241 934.798 102.886C934.875 102.84 934.943 102.779 934.996 102.707C935.05 102.635 935.089 102.553 935.111 102.465C935.133 102.378 935.137 102.287 935.124 102.198C935.111 102.109 935.08 102.023 935.034 101.946C934.954 101.814 934.833 101.712 934.688 101.658C934.543 101.604 934.385 101.6 934.238 101.647C934.348 101.539 934.418 101.398 934.438 101.245C934.458 101.093 934.425 100.938 934.346 100.806C934.276 100.688 934.172 100.595 934.047 100.537C933.923 100.479 933.784 100.46 933.649 100.482C933.729 100.397 933.791 100.336 933.822 100.318C933.978 100.225 934.09 100.073 934.134 99.8974C934.179 99.7213 934.151 99.5348 934.058 99.3789C933.981 99.2505 933.863 99.151 933.724 99.0958C933.584 99.0406 933.431 99.0326 933.286 99.0732C933.198 98.9773 933.084 98.9088 932.958 98.8756C932.831 98.8424 932.698 98.8458 932.574 98.8856C932.071 99.0471 931.653 99.3644 931.27 99.7092C931.453 99.5111 931.606 99.3662 931.66 99.3368C931.819 99.2495 931.937 99.1026 931.988 98.9283C932.039 98.754 932.019 98.5666 931.931 98.4073C931.845 98.2485 931.7 98.1303 931.526 98.0784C931.44 98.052 931.349 98.0429 931.259 98.0518C931.169 98.0606 931.082 98.0872 931.002 98.1301C930.657 98.3173 930.376 98.5819 930.127 98.8734C930.238 98.6793 930.33 98.5361 930.37 98.4997C930.504 98.3776 930.583 98.2076 930.592 98.0268C930.601 97.846 930.538 97.6692 930.416 97.5348C930.355 97.4683 930.282 97.4145 930.2 97.3765C930.118 97.3385 930.029 97.317 929.939 97.3133C929.758 97.3041 929.581 97.3672 929.446 97.4886C929.061 97.8394 928.815 98.296 928.612 98.7633C928.719 98.3003 928.853 97.8837 928.906 97.8066C928.958 97.7328 928.995 97.6495 929.014 97.5615C929.034 97.4734 929.036 97.3824 929.02 97.2937C929.004 97.2049 928.971 97.1202 928.922 97.0443C928.874 96.9683 928.811 96.9028 928.737 96.8513C928.609 96.7624 928.454 96.7202 928.299 96.7308Z" fill="black"/>
<path d="M877.49 140.626C883.015 140.626 887.494 136.147 887.494 130.622C887.494 125.097 883.015 120.617 877.49 120.617C871.964 120.617 867.485 125.097 867.485 130.622C867.485 136.147 871.964 140.626 877.49 140.626Z" fill="#642A1F"/>
<path d="M940.367 140.643C946.276 140.643 951.067 135.852 951.067 129.943C951.067 124.033 946.276 119.242 940.367 119.242C934.457 119.242 929.666 124.033 929.666 129.943C929.666 135.852 934.457 140.643 940.367 140.643Z" fill="#642A1F"/>
<path d="M908.175 126.688C910.636 126.688 912.631 125.418 912.631 123.852C912.631 122.286 910.636 121.017 908.175 121.017C905.713 121.017 903.718 122.286 903.718 123.852C903.718 125.418 905.713 126.688 908.175 126.688Z" fill="#C9570B"/>
<path d="M953.067 125.902C963.36 128.396 973.19 127.585 973.613 115.04C973.797 109.574 965.589 105.633 955.811 108.432L953.067 125.902Z" fill="#9F5131"/>
<path d="M955.936 122.82C959.419 124.671 967.943 124.576 967.943 119.48C967.943 114.384 963.724 111.901 957.431 113.527L955.936 122.82Z" fill="#863129"/>
<path d="M886.464 121.793C889.701 121.793 892.325 117.686 892.325 112.62C892.325 107.554 889.701 103.448 886.464 103.448C883.227 103.448 880.603 107.554 880.603 112.62C880.603 117.686 883.227 121.793 886.464 121.793Z" fill="#241C1C"/>
<path d="M926.623 121.807C929.86 121.807 932.484 117.701 932.484 112.635C932.484 107.569 929.86 103.462 926.623 103.462C923.386 103.462 920.762 107.569 920.762 112.635C920.762 117.701 923.386 121.807 926.623 121.807Z" fill="#241C1C"/>
<path d="M887.051 96.5464C887.154 96.5536 887.254 96.584 887.343 96.6353C887.433 96.6866 887.51 96.7575 887.568 96.8427C887.99 97.4536 888.091 98.2109 888.199 98.9069C888.307 99.6029 888.348 100.201 888.348 100.201C888.354 100.29 888.343 100.381 888.314 100.466C888.285 100.551 888.24 100.63 888.181 100.698C888.122 100.765 888.05 100.821 887.969 100.861C887.888 100.901 887.801 100.924 887.711 100.93C887.601 100.937 887.491 100.917 887.39 100.872C887.351 100.962 887.293 101.043 887.22 101.109C887.147 101.175 887.06 101.224 886.966 101.254C886.838 101.292 886.702 101.292 886.574 101.254C886.516 101.368 886.428 101.464 886.319 101.531C886.209 101.598 886.081 101.631 885.952 101.629C885.823 101.626 885.698 101.587 885.59 101.515C885.556 101.646 885.485 101.765 885.385 101.855C885.317 101.915 885.239 101.962 885.154 101.992C885.068 102.022 884.978 102.034 884.888 102.029C884.798 102.024 884.709 102.001 884.628 101.962C884.547 101.922 884.474 101.867 884.414 101.799C884.414 101.799 884.384 101.765 884.335 101.711C884.416 101.87 884.432 102.053 884.379 102.223C884.327 102.393 884.21 102.536 884.054 102.622C883.931 102.688 883.79 102.715 883.651 102.698C883.511 102.682 883.38 102.624 883.276 102.53C883.279 102.546 883.284 102.57 883.284 102.57C883.321 102.748 883.286 102.933 883.187 103.085C883.088 103.237 882.933 103.344 882.755 103.381C882.677 103.397 882.597 103.398 882.519 103.386C882.45 103.544 882.326 103.67 882.169 103.74C882.087 103.776 881.998 103.796 881.908 103.798C881.818 103.8 881.729 103.785 881.645 103.752C881.561 103.72 881.484 103.671 881.419 103.609C881.354 103.547 881.302 103.473 881.265 103.39C881.265 103.39 881.144 103.057 880.552 102.703C880.475 102.657 880.407 102.596 880.354 102.523C880.3 102.451 880.261 102.369 880.239 102.282C880.217 102.194 880.212 102.103 880.226 102.014C880.239 101.925 880.269 101.84 880.316 101.762C880.395 101.63 880.517 101.529 880.662 101.474C880.806 101.42 880.965 101.416 881.112 101.463C881.002 101.356 880.932 101.214 880.912 101.062C880.892 100.909 880.924 100.754 881.003 100.622C881.074 100.505 881.178 100.411 881.302 100.353C881.427 100.296 881.565 100.277 881.701 100.299C881.621 100.214 881.559 100.153 881.528 100.134C881.372 100.041 881.26 99.8899 881.216 99.7138C881.171 99.5377 881.199 99.3512 881.292 99.1953C881.369 99.0669 881.487 98.9674 881.626 98.9122C881.765 98.857 881.919 98.849 882.064 98.8896C882.152 98.7938 882.266 98.7252 882.392 98.692C882.518 98.6588 882.651 98.6623 882.776 98.702C883.279 98.8635 883.697 99.1808 884.08 99.5256C883.897 99.3276 883.744 99.1826 883.69 99.1532C883.531 99.066 883.413 98.919 883.362 98.7447C883.311 98.5704 883.331 98.383 883.418 98.2237C883.505 98.065 883.65 97.9468 883.823 97.8948C883.91 97.8684 884.001 97.8593 884.091 97.8682C884.181 97.8771 884.268 97.9037 884.348 97.9465C884.692 98.1337 884.974 98.3983 885.223 98.6898C885.112 98.4957 885.02 98.3525 884.98 98.3161C884.846 98.194 884.766 98.024 884.758 97.8432C884.749 97.6625 884.812 97.4856 884.934 97.3513C884.995 97.2847 885.068 97.2309 885.15 97.1929C885.232 97.1549 885.32 97.1334 885.411 97.1297C885.592 97.1206 885.769 97.1836 885.904 97.305C886.289 97.6558 886.535 98.1124 886.738 98.5798C886.631 98.1167 886.497 97.7001 886.443 97.623C886.392 97.5492 886.355 97.4659 886.336 97.3779C886.316 97.2899 886.314 97.1989 886.33 97.1101C886.346 97.0214 886.379 96.9366 886.427 96.8607C886.476 96.7848 886.539 96.7192 886.613 96.6677C886.741 96.5788 886.895 96.5358 887.051 96.5464Z" fill="black"/>
<path d="M884.335 193.235L883.254 198.339L933.149 199.119L932.069 193.295L884.335 193.235Z" fill="#F5BE7A"/>
<path d="M882.744 204.313L883.885 210.918L932.759 210.497L933.18 204.853L882.744 204.313Z" fill="#FF1800"/>
<path d="M857.815 42.1479C843.985 40.9593 844.686 43.9844 856.041 50.0989C861.897 52.5385 867.941 53.3082 874.118 52.881L880.925 49.9082C884.072 45.9982 885.715 41.3035 887.614 36.7427C888.731 32.8962 891.216 29.2836 889.931 25.0267C888.594 20.1775 883.665 21.6098 883.074 24.7838L881.988 30.6164L880.912 30.2992L878.976 22.511C875.784 14.9859 870.31 17.2342 864.603 20.4826L860.771 27.08C858.608 25.2214 857.026 25.4279 853.948 26.2214C850.869 27.015 847.262 29.6741 850.317 36.1282C852.435 38.6695 854.659 41.0614 857.815 42.1479Z" fill="#110402"/>
<path d="M882.003 48.2172L873.367 51.9081C872.764 52.166 872.484 52.864 872.742 53.4673L873.495 55.2304C873.753 55.8337 874.451 56.1137 875.054 55.8559L883.69 52.1649C884.293 51.9071 884.573 51.209 884.315 50.6058L883.562 48.8427C883.304 48.2394 882.606 47.9594 882.003 48.2172Z" fill="#FFF200"/>
<path d="M939.07 55.7101L944.748 58.3574C956.771 62.0147 966.245 62.0606 971.783 57.3025C977.307 51.8663 972.865 54.1243 970.036 55.1371C985.688 42.2444 979.574 38.9999 970.108 40.1809C969.635 36.4418 970.979 32.1517 967.162 29.426C962.932 23.5594 957.541 21.4169 951.363 21.7965C947.236 21.7051 945.459 26.5693 944.059 32.2284L942.656 27.461C937.585 18.3565 936.156 24.728 933.875 27.4824C933 34.9265 933.784 43.921 936.424 52.1305L939.07 55.7101Z" fill="#110402"/>
<path d="M937.372 51.5055L944.975 57.0187C945.506 57.4038 945.624 58.1466 945.239 58.6777L944.114 60.2299C943.729 60.7611 942.986 60.8794 942.455 60.4942L934.852 54.981C934.321 54.5959 934.203 53.8531 934.588 53.322L935.713 51.7698C936.099 51.2387 936.841 51.1203 937.372 51.5055Z" fill="#FFF200"/>
<path d="M932.006 94.6641C926.449 94.7148 920.38 95.8761 918.023 98.3096C914.88 101.554 915.307 101.931 915.522 107.058C914.551 119.464 925.736 126.575 935.1 126.575C943.181 126.575 955.925 122.189 955.925 106.724C955.925 113.728 961.382 98.475 957.716 96.1153C954.05 93.7556 942.085 95.6635 937.236 94.9777C935.654 94.7539 933.858 94.6472 932.006 94.6641ZM883.55 94.836C882.266 94.8356 881.007 94.9168 879.82 95.0847C874.971 95.7705 864.4 94.0282 860.734 96.3879C857.068 98.7476 861.383 99.0707 861.383 106.075C861.383 121.54 872.537 127.763 881.871 127.019C891.206 126.274 902.757 118.814 901.786 106.408C902.001 101.282 900.831 102.25 897.688 99.0053C895.134 96.3691 889.113 94.8374 883.55 94.836Z" fill="white" fill-opacity="0.3"/>
<path d="M964.791 93.1657C963.854 92.6157 961.581 92.5882 961.581 92.5882L948.208 92.3246C926.319 91.8924 919.623 93.1263 914.284 98.573C913.073 99.808 911.862 100.798 911.594 100.775C911.325 100.751 909.575 100.4 907.706 99.9945C905.836 99.5886 904.003 99.3723 903.632 99.5148C903.246 99.6626 902.62 99.0132 902.176 98.0036C901.086 95.5267 897.351 93.8733 891.33 93.2011C888.71 92.9085 879.406 92.7421 870.657 92.8328L854.747 92.9985L853.399 93.1074C853.399 93.1074 851.737 93.0261 850.983 94.7844C850.229 96.5428 850.573 101.698 852.834 104.142C853.449 104.807 855.959 105.069 855.959 105.069L857.193 107.663C857.872 109.09 859.496 112.564 860.804 115.382C862.423 118.869 864.142 121.491 866.111 123.666C872.578 130.811 876.557 131.034 890.904 127.19C892.899 126.655 895.415 124.101 897.005 122.383C899.655 119.521 903.968 112.355 903.978 110.745C903.983 109.644 906.329 107.749 908.552 107.933C909.795 108.111 911.385 109.543 911.914 110.623C911.914 110.972 912.88 113.252 914.06 115.69C916.412 120.549 919.217 123.916 923.528 125.579C935.367 130.147 942.66 130.204 949.987 122.88C952.941 119.927 956.795 114.302 958.825 109.825C960.119 106.971 960.863 106.092 963.441 104.381C965.314 103.137 967.993 99.6572 967.737 96.7488C967.602 95.2086 966.125 93.9478 964.791 93.1657ZM942.409 96.6651C945.366 96.6782 948.405 96.4447 950.658 96.7694C953.873 97.233 956.448 98.2163 956.709 98.4779C957.4 99.1685 955.318 105.752 952.816 110.791C949.934 116.595 946.882 120.514 944.123 121.953C941.259 123.446 932.245 123.922 929.087 122.746C921.832 120.045 917.672 114.994 916.92 107.969C916.561 104.61 917.864 100.595 919.621 99.6548C922.973 97.8607 933.537 96.6237 942.409 96.6651ZM870.455 97.2168C873.216 97.2431 876.562 97.3272 879.825 97.4643C890.314 97.9029 891.98 98.0979 894.184 99.1466C899.641 101.743 900.383 104.407 897.695 111.743C895.878 116.701 892.805 120.426 888.925 122.373C884.059 124.813 874.005 124.324 870.802 121.491C869.316 120.176 865.145 113.739 864.91 112.398C864.808 111.813 864.6 111.213 864.447 111.065C864.213 110.838 863.321 107.795 862.551 104.593C862.444 104.148 862.102 102.936 861.789 101.9C860.629 98.0594 860.844 97.7075 864.59 97.3188C865.517 97.2226 867.694 97.1905 870.455 97.2168Z" fill="black"/>
<path d="M858.635 91.2732C858.959 92.4633 864.353 78.1179 865.074 78.9935C870.996 86.1784 887.901 88.8968 896.855 90.2302C903.774 91.2607 902.085 88.3237 900.279 86.8842L895.298 82.9157L895.765 82.6821L924.712 92.409C927.179 93.079 927.403 91.7643 927.202 90.0745L924.557 72.3328L957.757 87.252L953.688 74.0314C945.207 69.649 939.549 49.8674 913.04 50.3114C898.499 47.3031 882.346 55.0435 865.962 64.3179L860.99 70.3914L858.635 91.2732Z" fill="#110402"/>
<path d="M922.453 57.1262C923.21 59.2896 925.359 61.9407 928.376 64.8957C928.376 64.8957 931.83 69.6985 934.193 71.3915C934.618 71.6962 935.141 72.1745 935.636 72.0071C936.777 71.6218 938.03 70.8257 937.419 68.8654C934.697 60.1268 921.589 54.6519 922.453 57.1262Z" fill="#F9F9F9"/>
<path d="M855.386 100.065C856.27 100.065 856.987 99.3481 856.987 98.464C856.987 97.58 856.27 96.8633 855.386 96.8633C854.502 96.8633 853.785 97.58 853.785 98.464C853.785 99.3481 854.502 100.065 855.386 100.065Z" fill="white"/>
<path d="M962.509 100.065C963.393 100.065 964.109 99.3481 964.109 98.464C964.109 97.58 963.393 96.8633 962.509 96.8633C961.624 96.8633 960.908 97.58 960.908 98.464C960.908 99.3481 961.624 100.065 962.509 100.065Z" fill="white"/>
</g>
<g clip-path="url(#clip2_2712_196)">
<path d="M789.812 221H581.188C580.532 221 580 221.532 580 222.188V430.812C580 431.468 580.532 432 581.188 432H789.812C790.468 432 791 431.468 791 430.812V222.188C791 221.532 790.468 221 789.812 221Z" fill="#F5F5F5"/>
<mask id="mask1_2712_196" style="mask-type:luminance" maskUnits="userSpaceOnUse" x="641" y="392" width="93" height="42">
<path d="M641.604 433.322C645.199 416.66 649.989 392.658 674.336 392.829L701.1 392.729C728.427 392.016 733.832 424.563 733.832 433.023L641.604 433.322Z" fill="white"/>
</mask>
<g mask="url(#mask1_2712_196)">
<path d="M641.604 433.322C645.199 416.66 649.989 392.658 674.336 392.829L701.1 392.729C728.427 392.016 733.832 424.563 733.832 433.023L641.604 433.322Z" fill="#3C8B2E"/>
<path d="M711.743 389.589H664.29C663.634 389.589 663.102 390.121 663.102 390.777V416.01C663.102 416.666 663.634 417.198 664.29 417.198H711.743C712.399 417.198 712.931 416.666 712.931 416.01V390.777C712.931 390.121 712.399 389.589 711.743 389.589Z" fill="#FFFF00"/>
<path d="M711.743 414.06H664.29C663.634 414.06 663.102 414.591 663.102 415.247V440.48C663.102 441.136 663.634 441.668 664.29 441.668H711.743C712.399 441.668 712.931 441.136 712.931 440.48V415.247C712.931 414.591 712.399 414.06 711.743 414.06Z" fill="#AA0000"/>
</g>
<path d="M688.016 398.209C697.418 398.209 705.039 396.279 705.039 393.899C705.039 391.518 697.418 389.589 688.016 389.589C678.615 389.589 670.994 391.518 670.994 393.899C670.994 396.279 678.615 398.209 688.016 398.209Z" fill="#C9570B"/>
<path d="M674.933 373.726H701.1V393.177C691.62 399.033 682.955 398.593 674.933 393.177V373.726Z" fill="#CA8A55"/>
<path d="M674.933 381.587L701.1 389.592V377.296L674.933 378.571V381.587Z" fill="#8E3820"/>
<path d="M687.768 381.487C721.45 381.487 748.756 355.963 748.756 324.478C748.756 292.993 721.45 267.47 687.768 267.47C654.085 267.47 626.779 292.993 626.779 324.478C626.779 355.963 654.085 381.487 687.768 381.487Z" fill="#CA8A55"/>
<path d="M633.079 345.592C623.888 346.026 611.928 345.455 610.989 330.959C610.576 324.588 613.748 317.096 628.788 322.728L633.079 345.592Z" fill="#CA8A55"/>
<path d="M629.73 341.995C620.688 341.982 616.66 338.052 616.66 332.103C616.66 326.154 621.611 325.683 629.737 327.783L629.73 341.995Z" fill="#863129"/>
<path d="M672.107 351.998C675.8 363.012 681.754 365.476 692.481 362.39" stroke="black" stroke-width="11.5904" stroke-linecap="round" stroke-linejoin="round"/>
<path d="M653.059 358.818C658.965 358.818 663.752 354.031 663.752 348.125C663.752 342.219 658.965 337.431 653.059 337.431C647.153 337.431 642.365 342.219 642.365 348.125C642.365 354.031 647.153 358.818 653.059 358.818Z" fill="#A74634"/>
<path d="M726.646 358.818C732.552 358.818 737.339 354.031 737.339 348.125C737.339 342.219 732.552 337.431 726.646 337.431C720.74 337.431 715.953 342.219 715.953 348.125C715.953 354.031 720.74 358.818 726.646 358.818Z" fill="#C55740"/>
<path d="M742.368 349.879C751.552 350.44 764.366 349.933 765.507 335.452C766.008 329.088 762.94 321.552 747.824 326.975L742.368 349.879Z" fill="#CA8A55"/>
<path d="M746.614 346.227C755.656 346.339 759.738 342.466 759.82 336.517C759.903 330.569 754.959 330.029 746.805 332.016L746.614 346.227Z" fill="#863129"/>
<path d="M748.211 292.132L748.991 326.338C748.993 326.447 748.974 326.556 748.934 326.658C748.893 326.76 748.833 326.852 748.757 326.931C748.68 327.009 748.589 327.071 748.488 327.113C748.387 327.156 748.279 327.178 748.17 327.178H746.414C746.246 327.178 746.083 327.119 745.954 327.011C745.825 326.903 745.739 326.753 745.709 326.588L744.216 318.18L737.994 294.298" fill="#110402"/>
<path d="M630.137 289.564L626.315 322.332C626.305 322.416 626.312 322.502 626.336 322.583C626.359 322.665 626.399 322.741 626.452 322.808C626.506 322.874 626.572 322.929 626.647 322.969C626.721 323.01 626.804 323.035 626.888 323.043L628.53 323.206C628.779 323.23 629.029 323.167 629.236 323.025C629.443 322.884 629.594 322.675 629.661 322.434L631.895 314.497L640.439 291.344" fill="#110402"/>
<path d="M711.901 258.508C708.044 258.347 704.223 259.69 701.736 262.08C701.101 261.296 700.241 260.544 698.683 259.893C687.184 257.927 685.654 261.557 682.265 264.144C678.218 262.578 673.317 261.877 667.535 262.071C666.136 262.853 665.255 263.987 666.153 266.322L664.031 267.017C661.532 265.376 658.16 264.456 654.645 264.456C647.273 264.456 641.297 268.425 641.297 273.322C641.297 273.622 641.339 273.923 641.393 274.221C638.087 274.285 634.934 275.161 632.546 276.681C626.471 277.311 621.963 281.049 621.962 285.455C621.962 290.352 627.492 294.322 634.314 294.322C637.462 294.321 640.49 293.458 642.781 291.908C646.247 291.731 649.472 290.663 651.77 288.931C653.364 289.368 655.07 289.597 656.795 289.603C659.75 289.596 662.617 288.937 664.948 287.73C667.334 288.335 670.338 288.667 673.442 288.67C679.753 288.669 685.2 287.322 686.502 285.439C688.944 286.366 692.562 286.904 696.382 286.907C700.554 286.907 704.468 286.269 706.886 285.195C707.918 286.89 710.963 288.044 714.411 288.048C717.231 288.047 719.837 287.273 721.249 286.016C722.798 287.056 725.014 287.942 727.486 288.509C730.624 289.223 732.136 291.041 734.537 290.55C734.878 292.132 736.12 293.478 737.994 294.298C741.949 296.011 749.289 293.277 752.262 290.273C755.234 287.268 754.436 283.442 750.481 281.728C749.194 281.176 747.674 280.896 746.078 280.918C746.21 280.797 746.339 280.674 746.461 280.548C749.637 277.27 748.785 273.096 744.559 271.226C742.357 270.253 739.551 270.062 736.857 270.702C736.414 269.081 735.112 267.715 733.205 266.87C729.912 265.42 725.413 265.763 722.029 267.722C722.639 263.371 719.022 259.524 713.517 258.667C712.986 258.584 712.446 258.531 711.901 258.508Z" fill="black"/>
<path d="M710.281 316.2C710.178 316.207 710.077 316.238 709.988 316.289C709.898 316.34 709.821 316.411 709.763 316.497C709.341 317.107 709.241 317.865 709.132 318.561C709.024 319.257 708.983 319.855 708.983 319.855C708.977 319.944 708.989 320.034 709.017 320.12C709.046 320.205 709.091 320.284 709.15 320.351C709.21 320.419 709.282 320.475 709.362 320.515C709.443 320.555 709.531 320.578 709.62 320.584C709.73 320.591 709.84 320.571 709.941 320.526C709.98 320.616 710.038 320.697 710.111 320.763C710.185 320.829 710.271 320.878 710.365 320.908C710.493 320.946 710.63 320.946 710.758 320.908C710.815 321.022 710.903 321.118 711.012 321.185C711.123 321.251 711.25 321.285 711.379 321.282C711.508 321.279 711.634 321.24 711.742 321.169C711.775 321.3 711.846 321.418 711.947 321.508C712.014 321.569 712.093 321.615 712.178 321.645C712.263 321.675 712.353 321.688 712.444 321.682C712.534 321.677 712.622 321.654 712.703 321.615C712.784 321.575 712.857 321.52 712.917 321.453C712.917 321.453 712.947 321.418 712.996 321.364C712.916 321.523 712.9 321.707 712.953 321.876C713.005 322.046 713.122 322.189 713.278 322.275C713.401 322.341 713.542 322.368 713.681 322.352C713.821 322.335 713.952 322.277 714.056 322.184C714.056 322.199 714.046 322.223 714.046 322.223C714.009 322.401 714.044 322.586 714.143 322.738C714.242 322.89 714.397 322.997 714.575 323.034C714.653 323.05 714.733 323.051 714.811 323.039C714.879 323.197 715.004 323.323 715.161 323.393C715.243 323.429 715.331 323.449 715.421 323.451C715.511 323.453 715.601 323.438 715.685 323.405C715.769 323.373 715.845 323.324 715.911 323.262C715.976 323.2 716.028 323.126 716.064 323.043C716.064 323.043 716.186 322.71 716.778 322.356C716.855 322.31 716.923 322.249 716.976 322.176C717.03 322.104 717.069 322.022 717.091 321.935C717.113 321.847 717.118 321.757 717.104 321.667C717.091 321.578 717.06 321.493 717.014 321.415C716.935 321.283 716.813 321.182 716.668 321.127C716.523 321.073 716.365 321.069 716.218 321.117C716.328 321.009 716.398 320.867 716.418 320.715C716.438 320.562 716.405 320.407 716.326 320.275C716.256 320.158 716.152 320.064 716.028 320.007C715.903 319.949 715.765 319.93 715.629 319.952C715.71 319.867 715.771 319.806 715.802 319.787C715.958 319.694 716.07 319.543 716.114 319.367C716.159 319.191 716.131 319.004 716.038 318.848C715.961 318.72 715.843 318.62 715.704 318.565C715.564 318.51 715.411 318.502 715.266 318.543C715.178 318.447 715.064 318.378 714.938 318.345C714.812 318.312 714.679 318.315 714.554 318.355C714.051 318.517 713.633 318.834 713.25 319.179C713.433 318.981 713.586 318.836 713.64 318.806C713.799 318.719 713.917 318.572 713.968 318.398C714.019 318.223 713.999 318.036 713.911 317.877C713.825 317.718 713.68 317.6 713.506 317.548C713.42 317.521 713.329 317.512 713.239 317.521C713.149 317.53 713.062 317.557 712.982 317.6C712.638 317.787 712.356 318.051 712.107 318.343C712.218 318.149 712.31 318.006 712.35 317.969C712.484 317.847 712.563 317.677 712.572 317.496C712.581 317.315 712.518 317.139 712.396 317.004C712.335 316.938 712.262 316.884 712.18 316.846C712.098 316.808 712.009 316.786 711.919 316.783C711.738 316.774 711.561 316.837 711.426 316.958C711.041 317.309 710.795 317.766 710.592 318.233C710.699 317.77 710.833 317.353 710.887 317.276C710.938 317.202 710.975 317.119 710.994 317.031C711.014 316.943 711.016 316.852 711 316.763C710.984 316.674 710.951 316.59 710.902 316.514C710.854 316.438 710.791 316.372 710.717 316.321C710.589 316.232 710.434 316.189 710.279 316.2L710.281 316.2Z" fill="black"/>
<path d="M688.561 346.157C691.022 346.157 693.018 344.888 693.018 343.322C693.018 341.756 691.022 340.486 688.561 340.486C686.1 340.486 684.104 341.756 684.104 343.322C684.104 344.888 686.1 346.157 688.561 346.157Z" fill="#C9570B"/>
<path d="M666.85 341.262C670.087 341.262 672.711 337.155 672.711 332.09C672.711 327.024 670.087 322.917 666.85 322.917C663.614 322.917 660.99 327.024 660.99 332.09C660.99 337.155 663.614 341.262 666.85 341.262Z" fill="#241C1C"/>
<path d="M708.604 341.277C711.841 341.277 714.465 337.17 714.465 332.104C714.465 327.038 711.841 322.932 708.604 322.932C705.368 322.932 702.744 327.038 702.744 332.104C702.744 337.17 705.368 341.277 708.604 341.277Z" fill="#241C1C"/>
<path d="M667.437 316.016C667.54 316.023 667.64 316.053 667.73 316.105C667.82 316.156 667.896 316.227 667.955 316.312C668.377 316.923 668.477 317.68 668.585 318.376C668.694 319.072 668.735 319.67 668.735 319.67C668.741 319.76 668.729 319.85 668.7 319.935C668.672 320.021 668.626 320.099 668.567 320.167C668.508 320.235 668.436 320.29 668.355 320.33C668.275 320.37 668.187 320.394 668.097 320.4C667.987 320.407 667.877 320.387 667.777 320.342C667.738 320.432 667.679 320.513 667.606 320.579C667.533 320.645 667.447 320.694 667.353 320.723C667.225 320.762 667.088 320.762 666.96 320.723C666.903 320.838 666.815 320.934 666.706 321.001C666.595 321.067 666.468 321.101 666.339 321.098C666.21 321.095 666.084 321.056 665.976 320.985C665.943 321.116 665.871 321.234 665.771 321.325C665.704 321.385 665.625 321.431 665.54 321.461C665.455 321.491 665.364 321.504 665.274 321.499C665.184 321.493 665.096 321.47 665.015 321.431C664.933 321.392 664.861 321.336 664.801 321.269C664.801 321.269 664.771 321.234 664.721 321.181C664.802 321.339 664.817 321.523 664.765 321.693C664.712 321.863 664.596 322.005 664.44 322.091C664.317 322.157 664.176 322.184 664.036 322.168C663.897 322.152 663.766 322.093 663.661 322C663.661 322.016 663.671 322.039 663.671 322.039C663.709 322.217 663.674 322.402 663.575 322.554C663.476 322.707 663.32 322.813 663.143 322.851C663.065 322.866 662.985 322.868 662.906 322.856C662.838 323.013 662.714 323.139 662.557 323.209C662.475 323.245 662.386 323.265 662.296 323.267C662.206 323.27 662.117 323.254 662.033 323.222C661.949 323.189 661.872 323.141 661.807 323.078C661.742 323.016 661.69 322.942 661.653 322.86C661.653 322.86 661.531 322.527 660.94 322.172C660.863 322.126 660.795 322.065 660.741 321.993C660.688 321.921 660.649 321.838 660.627 321.751C660.605 321.664 660.6 321.573 660.613 321.484C660.627 321.395 660.657 321.309 660.704 321.232C660.783 321.1 660.905 320.998 661.05 320.944C661.194 320.889 661.353 320.886 661.5 320.933C661.39 320.825 661.319 320.684 661.3 320.531C661.28 320.378 661.312 320.224 661.391 320.092C661.462 319.974 661.566 319.881 661.69 319.823C661.815 319.765 661.953 319.746 662.088 319.768C662.008 319.683 661.946 319.622 661.916 319.604C661.76 319.511 661.648 319.359 661.603 319.183C661.559 319.007 661.586 318.821 661.68 318.665C661.757 318.536 661.874 318.437 662.014 318.382C662.153 318.326 662.307 318.319 662.451 318.359C662.54 318.263 662.654 318.195 662.78 318.161C662.906 318.128 663.039 318.132 663.163 318.172C663.666 318.333 664.085 318.65 664.468 318.995C664.285 318.797 664.132 318.652 664.078 318.623C663.919 318.535 663.801 318.388 663.75 318.214C663.699 318.04 663.719 317.852 663.806 317.693C663.893 317.534 664.038 317.416 664.211 317.364C664.298 317.338 664.389 317.329 664.479 317.338C664.569 317.347 664.656 317.373 664.736 317.416C665.08 317.603 665.362 317.868 665.611 318.159C665.5 317.965 665.408 317.822 665.368 317.786C665.234 317.663 665.154 317.493 665.146 317.313C665.137 317.132 665.2 316.955 665.322 316.821C665.383 316.754 665.456 316.7 665.538 316.662C665.62 316.624 665.708 316.603 665.799 316.599C665.98 316.59 666.157 316.653 666.292 316.775C666.677 317.125 666.923 317.582 667.126 318.049C667.019 317.586 666.885 317.17 666.831 317.093C666.78 317.019 666.743 316.935 666.723 316.847C666.704 316.759 666.702 316.668 666.718 316.58C666.734 316.491 666.767 316.406 666.815 316.33C666.864 316.254 666.927 316.189 667.001 316.137C667.129 316.048 667.283 316.006 667.439 316.016L667.437 316.016Z" fill="black"/>
<path d="M712.392 314.134C706.835 314.184 700.767 315.346 698.409 317.779C695.266 321.024 695.693 321.401 695.908 326.527C694.937 338.933 706.123 346.045 715.487 346.045C723.567 346.045 736.312 341.659 736.312 326.194C736.312 333.197 741.768 317.944 738.102 315.585C734.436 313.225 722.471 315.133 717.622 314.447C716.04 314.223 714.245 314.117 712.392 314.134ZM663.936 314.305C662.652 314.305 661.393 314.386 660.206 314.554C655.358 315.24 644.786 313.498 641.12 315.857C637.454 318.217 641.769 318.54 641.769 325.544C641.769 341.009 652.923 347.232 662.258 346.488C671.593 345.744 683.144 338.284 682.173 325.878C682.388 320.751 681.217 321.719 678.074 318.475C675.52 315.839 669.499 314.307 663.936 314.305Z" fill="white" fill-opacity="0.3"/>
<path d="M745.178 312.635C744.24 312.085 741.968 312.058 741.968 312.058L728.594 311.794C706.706 311.362 700.009 312.596 694.67 318.043H694.669C693.459 319.278 692.249 320.268 691.98 320.244C691.711 320.22 689.962 319.87 688.092 319.464C686.222 319.058 684.389 318.842 684.018 318.984C683.633 319.132 683.007 318.483 682.562 317.473C681.472 314.996 677.737 313.343 671.717 312.671C669.096 312.378 659.793 312.212 651.043 312.302L635.134 312.468L633.785 312.577C633.785 312.577 632.123 312.496 631.369 314.254C630.615 316.012 630.959 321.168 633.22 323.611C633.836 324.277 636.346 324.538 636.346 324.538L637.58 327.132C638.258 328.559 639.883 332.033 641.19 334.851C642.809 338.339 644.528 340.96 646.497 343.135C652.965 350.28 656.943 350.504 671.29 346.659C673.285 346.125 675.801 343.57 677.392 341.853C680.041 338.991 684.354 331.825 684.364 330.214C684.374 329.113 686.715 327.218 688.939 327.403C690.181 327.581 691.771 329.012 692.301 330.092C692.301 330.441 693.266 332.722 694.446 335.16C696.798 340.019 699.604 343.386 703.914 345.049C715.753 349.616 723.047 349.674 730.373 342.35C733.327 339.397 737.182 333.772 739.212 329.295C740.506 326.441 741.25 325.562 743.827 323.851C745.7 322.607 748.379 319.127 748.124 316.218C747.988 314.678 746.512 313.417 745.178 312.635ZM722.795 316.135C725.753 316.148 728.792 315.914 731.044 316.239C734.259 316.702 736.834 317.686 737.096 317.947C737.786 318.638 735.705 325.221 733.202 330.261C730.32 336.065 727.268 339.983 724.509 341.422C721.646 342.915 712.631 343.391 709.473 342.216C702.218 339.515 698.059 334.463 697.307 327.438C696.947 324.079 698.251 320.064 700.007 319.124C703.359 317.33 713.923 316.093 722.795 316.135ZM650.841 316.686C653.603 316.713 656.948 316.797 660.211 316.934C670.7 317.372 672.366 317.567 674.57 318.616C680.027 321.212 680.77 323.876 678.082 331.212C676.265 336.171 673.191 339.895 669.311 341.842C664.446 344.283 654.392 343.794 651.188 340.96C649.702 339.646 645.531 333.209 645.297 331.867C645.195 331.283 644.987 330.682 644.833 330.534C644.599 330.307 643.707 327.264 642.938 324.063C642.831 323.618 642.488 322.406 642.175 321.369C641.016 317.529 641.23 317.177 644.976 316.788C645.903 316.692 648.08 316.66 650.841 316.686Z" fill="black"/>
<path d="M635.773 319.534C636.657 319.534 637.373 318.818 637.373 317.934C637.373 317.049 636.657 316.333 635.773 316.333C634.888 316.333 634.172 317.049 634.172 317.934C634.172 318.818 634.888 319.534 635.773 319.534Z" fill="white"/>
<path d="M742.895 319.534C743.779 319.534 744.496 318.818 744.496 317.934C744.496 317.049 743.779 316.333 742.895 316.333C742.011 316.333 741.294 317.049 741.294 317.934C741.294 318.818 742.011 319.534 742.895 319.534Z" fill="white"/>
</g>
<g clip-path="url(#clip3_2712_196)">
<path d="M1010.81 221H802.188C801.532 221 801 221.532 801 222.188V430.812C801 431.468 801.532 432 802.188 432H1010.81C1011.47 432 1012 431.468 1012 430.812V222.188C1012 221.532 1011.47 221 1010.81 221Z" fill="#85ECCA"/>
<path d="M862.604 433.322C866.199 416.66 870.989 392.658 895.336 392.829L922.099 392.729C949.427 392.016 954.832 424.563 954.832 433.023L862.604 433.322Z" fill="#0055D4"/>
<path d="M883.142 437.131L896.082 392.611L922.445 392.464L938.087 436.571L883.142 437.131Z" fill="#93A7AC"/>
<path d="M895.933 373.727H922.099V393.177C912.619 399.033 903.954 398.593 895.933 393.177V373.727Z" fill="#9F5131"/>
<path d="M895.933 381.587L922.099 389.592V377.296L895.933 378.571V381.587Z" fill="#8E3820"/>
<path d="M908.767 381.487C942.45 381.487 969.756 355.963 969.756 324.478C969.756 292.993 942.45 267.47 908.767 267.47C875.085 267.47 847.779 292.993 847.779 324.478C847.779 355.963 875.085 381.487 908.767 381.487Z" fill="#9F5131"/>
<path d="M854.079 345.592C844.888 346.026 832.928 345.455 831.989 330.959C831.576 324.588 834.748 317.096 849.788 322.728L854.079 345.592Z" fill="#9F5131"/>
<path d="M850.73 341.995C841.688 341.982 837.66 338.052 837.66 332.103C837.66 326.154 842.611 325.683 850.736 327.783L850.73 341.995Z" fill="#863129"/>
<path d="M896.427 351.382C902.965 362.707 914.608 363.383 924.005 351.452" stroke="black" stroke-width="11.5904" stroke-linecap="round" stroke-linejoin="round"/>
<path d="M933.499 309.722C939.029 308.412 942.549 308.503 945.72 311.005" stroke="black" stroke-width="12.7494" stroke-linecap="round" stroke-linejoin="round"/>
<path d="M877.13 309.39C882.074 306.535 885.547 307.361 888.718 309.864" stroke="black" stroke-width="12.7494" stroke-linecap="round" stroke-linejoin="round"/>
<path d="M874.059 358.818C879.964 358.818 884.752 354.031 884.752 348.125C884.752 342.219 879.964 337.431 874.059 337.431C868.153 337.431 863.365 342.219 863.365 348.125C863.365 354.031 868.153 358.818 874.059 358.818Z" fill="#642A1F"/>
<path d="M947.646 358.818C953.551 358.818 958.339 354.031 958.339 348.125C958.339 342.219 953.551 337.431 947.646 337.431C941.74 337.431 936.952 342.219 936.952 348.125C936.952 354.031 941.74 358.818 947.646 358.818Z" fill="#642A1F"/>
<path d="M909.263 344.346C911.454 344.346 913.23 342.57 913.23 340.379C913.23 338.189 911.454 336.413 909.263 336.413C907.073 336.413 905.297 338.189 905.297 340.379C905.297 342.57 907.073 344.346 909.263 344.346Z" fill="#C9570B"/>
<path d="M963.368 349.879C972.552 350.44 985.366 349.933 986.506 335.452C987.008 329.088 983.94 321.552 968.824 326.975L963.368 349.879Z" fill="#9F5131"/>
<path d="M967.614 346.227C976.656 346.339 980.738 342.466 980.82 336.517C980.903 330.569 975.958 330.029 967.805 332.016L967.614 346.227Z" fill="#863129"/>
<path d="M886.666 333.892C890.17 333.527 892.548 328.785 891.977 323.3C891.405 317.815 888.101 313.665 884.596 314.03C881.092 314.395 878.714 319.138 879.286 324.622C879.857 330.107 883.161 334.257 886.666 333.892Z" fill="#241C1C"/>
<path d="M936.209 333.655C932.705 333.289 930.327 328.547 930.899 323.062C931.47 317.578 934.774 313.427 938.279 313.792C941.783 314.158 944.161 318.9 943.59 324.385C943.018 329.869 939.714 334.02 936.209 333.655Z" fill="#241C1C"/>
<path d="M969.211 292.132L969.99 326.338C969.993 326.447 969.974 326.556 969.933 326.658C969.893 326.76 969.833 326.852 969.757 326.931C969.68 327.009 969.589 327.071 969.488 327.113C969.387 327.156 969.279 327.178 969.17 327.178H967.413C967.245 327.178 967.083 327.119 966.954 327.011C966.825 326.903 966.739 326.753 966.709 326.588L965.216 318.18L958.993 294.298" fill="#110402"/>
<path d="M851.137 289.564L847.315 322.332C847.305 322.416 847.312 322.502 847.336 322.583C847.359 322.665 847.399 322.741 847.452 322.808C847.506 322.874 847.572 322.929 847.646 322.969C847.721 323.01 847.803 323.035 847.888 323.043L849.53 323.206C849.779 323.23 850.029 323.167 850.236 323.025C850.443 322.884 850.593 322.675 850.661 322.434L852.895 314.497L861.439 291.344" fill="#110402"/>
<path d="M933.934 242.972C930.077 242.734 926.255 244.72 923.768 248.258C923.133 247.097 922.273 245.984 920.716 245.021C909.216 242.113 907.686 247.483 904.297 251.311C900.251 248.993 895.35 247.957 889.567 248.243C888.168 249.4 887.288 251.078 888.186 254.534L886.063 255.563C883.564 253.134 880.192 251.772 876.678 251.772C869.305 251.773 863.329 257.646 863.329 264.891C863.329 265.336 863.371 265.78 863.425 266.221C860.119 266.315 856.967 267.612 854.578 269.86C848.503 270.794 843.995 276.324 843.995 282.843C843.994 290.089 849.525 295.963 856.347 295.963C859.494 295.961 862.523 294.684 864.813 292.391C868.279 292.129 871.504 290.548 873.802 287.986C875.396 288.633 877.102 288.971 878.827 288.981C881.782 288.97 884.649 287.994 886.98 286.209C889.367 287.104 892.371 287.596 895.474 287.6C901.785 287.599 907.232 285.605 908.534 282.819C910.976 284.192 914.595 284.987 918.414 284.991C922.586 284.991 926.5 284.048 928.918 282.459C929.95 284.966 932.995 286.674 936.443 286.679C939.263 286.679 941.869 285.533 943.282 283.673C944.83 285.212 947.046 286.523 949.519 287.361C952.657 288.419 954.168 291.109 956.569 290.381C956.91 292.723 958.152 294.715 960.026 295.927C963.981 298.463 971.322 294.417 974.294 289.971C977.266 285.525 976.469 279.865 972.513 277.329C971.226 276.512 969.706 276.098 968.11 276.131C968.243 275.952 968.371 275.769 968.494 275.583C971.669 270.732 970.818 264.556 966.591 261.789C964.39 260.35 961.584 260.068 958.889 261.015C958.447 258.616 957.144 256.594 955.237 255.344C951.944 253.199 947.446 253.707 944.061 256.605C944.672 250.168 941.055 244.475 935.549 243.207C935.019 243.085 934.479 243.006 933.934 242.972Z" fill="#110402"/>
</g>
<g filter="url(#filter0_f_2712_196)">
<rect x="40" y="381" width="1512" height="98" fill="#286CFF"/>
</g>
<path d="M299.85 300.387L281.662 288.089C280.276 287.162 278.544 286.58 276.631 286.588L263.971 286.593L265.892 304.413L299.85 300.387Z" fill="#9C5D13"/>
<g opacity="0.26">
<path d="M247.353 293.845C250.795 293.089 254.09 292.717 257.385 292.345C260.68 291.973 263.902 291.793 267.348 291.658C270.57 291.478 273.943 291.534 277.09 291.546C280.463 291.603 283.537 291.806 287.062 292.1C283.619 292.855 280.324 293.227 277.029 293.599C273.734 293.971 270.513 294.151 267.066 294.286C263.845 294.467 260.472 294.41 257.324 294.398C253.878 294.534 250.578 294.285 247.353 293.845Z" fill="#9C5D13"/>
</g>
<path d="M214.827 331.64L215.364 358.483C215.312 360.208 216.386 361.985 217.971 362.8L235.238 373.885L243.512 357.405L239.148 331.166L214.827 331.64Z" fill="#855800"/>
<g opacity="0.65">
<path d="M221.401 367.591C221.34 363.705 221.104 359.752 221.218 355.932C221.333 352.111 221.506 348.086 221.62 344.265C221.969 340.305 222.083 336.485 222.607 332.591C222.955 328.631 223.479 324.737 224.179 320.909C224.415 324.861 224.476 328.747 224.537 332.634C224.598 336.52 224.249 340.48 224.135 344.3C224.02 348.121 223.672 352.081 223.148 355.975C222.974 357.955 222.8 359.935 222.45 361.849L222.042 364.65C221.984 365.537 221.868 366.63 221.401 367.591Z" fill="#663D00"/>
</g>
<path d="M262.197 264.132L252.54 255.088C251.807 254.478 251.014 254.071 249.888 254.019L218.188 251.642C215.724 251.486 213.635 253.157 213.677 255.339L212.447 287.402C212.276 289.533 210.4 291.255 208.149 291.151L181.325 290.809C179.075 290.705 177.198 292.427 177.027 294.558L176.192 320.635C176.046 321.903 176.66 322.918 177.759 323.833L191.526 333.644C193.052 334.661 194.877 334.663 196.514 333.752L243.188 303.883C243.734 303.579 244.339 303.073 244.519 302.464L262.767 268.395C263.825 267.128 263.45 265.301 262.197 264.132Z" fill="#915700"/>
<path d="M233.983 265.932L233.325 299.039C233.214 300.956 231.535 302.721 229.477 302.669L200.303 303.146C198.245 303.093 196.352 304.807 196.456 306.776L195.587 330.545C195.476 332.463 197.267 334.181 199.326 334.233L227.828 334.462C229.886 334.515 231.523 335.98 231.627 337.948L231.751 368.431C231.855 370.399 233.492 371.865 235.55 371.917L266.541 372.3C268.815 372.403 270.493 370.638 270.664 368.519L270.6 337.834C270.557 335.664 272.39 334.151 274.724 334.053L297.913 334.327C300.187 334.43 302.141 332.514 302.097 330.344L300.778 305.412C300.674 303.443 299.037 301.978 296.919 302.127L272.687 302.256C270.629 302.203 268.777 300.688 268.889 298.77C269.058 291.25 269.257 273.587 268.626 265.662C268.461 263.896 266.825 262.431 264.767 262.378L238.477 262.454C235.773 262.25 234.095 264.015 233.983 265.932Z" fill="#FF8A00"/>
<path opacity="0.36" d="M245.854 262.659L258.009 262.983C260.246 263.088 261.797 264.769 261.897 266.754L261.907 298.555C262.059 298.81 257.36 272.191 245.854 262.659Z" fill="#FF8A00"/>
<g opacity="0.65">
<path d="M182.817 322.354C183.348 317.466 184.14 312.448 184.671 307.56L185.692 300.196C186.01 298.762 186.778 297.262 187.969 296.347C188.565 295.889 189.35 295.496 190.062 295.299C190.775 295.102 191.604 295.165 192.054 295.099C196.985 295.022 201.843 295.141 206.773 295.064L214.19 295.177C216.11 295.172 217.897 293.8 218.36 291.974L220.781 277.375L222.064 269.88L222.8 266.164L223.073 264.274C223.101 263.623 223.391 262.84 223.87 262.122C224.566 260.818 225.829 259.707 227.443 259.377C228.156 259.18 228.985 259.244 229.625 259.242L231.472 259.433L238.672 260.133C243.575 260.707 248.36 261.022 253.19 261.792C248.259 261.869 243.474 261.555 238.544 261.631L231.199 261.323L229.279 261.328C228.639 261.329 228.188 261.395 227.737 261.462C226.763 261.79 226.095 262.443 225.544 263.356C225.399 263.747 225.254 264.139 225.226 264.79L224.953 266.68L224.406 270.46L223.385 277.825L222.363 285.189L221.816 288.969L221.543 290.859C221.515 291.511 221.37 291.902 221.197 292.945C220.489 296.009 217.25 298.427 214.311 298.304L206.894 298.191C202.036 298.072 197.178 297.954 192.204 297.574C191.564 297.576 191.185 297.447 190.662 297.708C190.211 297.775 189.688 298.036 189.354 298.363C188.497 298.951 187.946 299.865 187.584 300.843L186.112 308.274C184.78 312.446 183.988 317.465 182.817 322.354Z" fill="#7D3C00"/>
</g>
<path opacity="0.18" d="M224.714 304.937L200.569 305.27C198.462 305.223 196.531 306.916 196.646 308.854L195.86 332.261C195.755 334.15 197.596 335.837 199.704 335.884L228.885 336.041C230.992 336.088 232.674 337.526 232.789 339.464L233.049 369.48C233.164 371.418 234.846 372.857 236.953 372.904L268.682 373.206C271.01 373.302 272.721 371.561 272.887 369.473L272.819 357.347C249.451 345.106 234.157 323.411 224.714 304.937Z" fill="#FF8A00"/>
<path d="M267.727 309.738C262.119 309.68 260.848 317.183 266.456 317.241C272.084 317.299 273.355 309.797 267.727 309.738ZM234.093 310.146C228.485 310.088 227.211 317.607 232.82 317.665C238.446 317.723 239.72 310.204 234.093 310.146ZM259.328 322.691C259.094 322.682 258.841 322.756 258.638 322.953C253.322 328.106 244.364 328.993 239.161 324.927C238.731 324.586 237.914 325.149 238.355 325.541C243.732 330.417 254.035 329.444 259.802 323.59C260.243 323.143 259.837 322.711 259.328 322.691Z" fill="#1D1C1B"/>
<path d="M387.223 87.8601C385.718 88.7138 384.56 90.2709 384.312 91.8509L378.91 112.52L399.094 112.607L418.538 100.738L419.828 112.663C420.342 113.021 448.852 97.9473 449.553 97.8358L499.88 96.1146C501.582 96.5038 503.358 95.3408 504.131 93.6769L510.126 80.8367C510.501 79.8965 510.642 78.9947 510.293 77.9497L501.428 48.1066C500.709 45.8001 490.028 47.5913 487.763 48.6123L415.747 74.9588L387.889 87.5388C387.662 87.6303 387.438 87.7381 387.223 87.8601Z" fill="#E8A00C"/>
<path opacity="0.687615" d="M506.669 84.7637C505.183 79.7181 503.255 74.9625 501.537 69.9539L498.865 62.6768L498.191 60.8024C497.888 60.1905 497.557 59.364 497.025 58.7877C495.932 57.4209 494.206 56.8161 492.549 56.86C491.593 56.7922 490.659 56.9408 489.982 57.2689L487.927 58.0359L483.794 59.3556L475.553 62.2074L459.536 67.84C432.73 77.2019 428.42 80.3466 421.598 83.3789C421.568 83.3869 421.536 83.3963 421.507 83.4036C417.3 84.4197 413.336 85.8542 409.133 87.0891C405.169 88.5227 400.971 89.9759 397.008 91.4092C393.044 92.8428 389.089 94.7136 385.13 96.3657C386.306 96.4844 387.474 96.165 388.408 95.8662L391.446 95.1704C393.552 94.7717 395.655 94.1538 397.756 93.5364C401.963 92.5204 406.165 91.2861 410.129 89.8525C414.093 88.419 418.297 87.183 422.256 85.5308C423.783 84.8937 425.309 84.2539 426.835 83.6044C436.155 80.839 440.564 78.3734 459.882 71.0865C461.026 70.6842 461.493 70.609 462.17 70.2811L464.224 69.5143L468.334 67.979L476.319 64.9474L484.305 61.9142L488.413 60.3792L490.469 59.6122C491.146 59.2841 491.612 59.2095 492.079 59.1353C493.269 59.1658 494.249 59.45 495.041 60.2043C495.321 60.5998 495.599 60.9965 495.902 61.6082L496.808 63.4445L499.946 70.6488C502.343 75.3291 504.271 80.0842 506.667 84.7647L506.669 84.7637Z" fill="#D88000"/>
<path d="M489.949 64.165L454.923 78.5474C416.469 92.6453 420.234 90.7481 413.431 94.6197L381.44 108.518C379.409 109.502 378.449 111.636 379.122 113.51L389.694 141.539C390.39 143.629 392.839 144.339 395.127 143.535L427.352 129.599C467.446 110.992 454.755 115.263 467.798 110.391C475.761 107.142 494.394 99.3326 502.498 95.1808C504.296 94.234 505.257 92.1003 504.583 90.2267L495.194 66.6312C494.452 64.1083 492.003 63.3977 489.949 64.165Z" fill="#F7BE29"/>
<path opacity="0.157116" d="M496.526 77.9405L500.568 89.1818C501.265 91.2717 500.071 93.4427 498.039 94.4265L464.904 108.728C464.694 108.981 490.738 92.7282 496.526 77.9405Z" fill="#B67227"/>
<path opacity="0.077634" d="M450.587 80.2465C428.265 87.6426 432.272 87.6802 418.753 91.7815C416.079 92.9123 413.146 94.6824 411.114 95.6661L381.436 109.476C379.404 110.46 378.444 112.594 379.118 114.467L389.689 142.496C390.386 144.586 392.834 145.297 395.122 144.492L408.059 138.91C413.118 112.794 434.086 96.9608 450.587 80.2465Z" fill="#B66E27"/>
<path d="M455.699 87.8595C450.522 90.0774 454.594 96.4744 459.772 94.2564C464.967 92.0306 460.895 85.6337 455.699 87.8595ZM425.178 101.755C420 103.973 424.081 110.384 429.259 108.166C434.453 105.94 430.372 99.5295 425.178 101.755ZM457.046 101.408C456.827 101.494 456.645 101.655 456.597 101.892C455.325 108.078 447.739 112.389 440.136 111.301C439.504 111.208 439.148 111.979 439.825 112.108C448.153 113.761 456.912 108.84 458.108 101.921C458.2 101.393 457.528 101.218 457.046 101.408Z" fill="#1D1D1B"/>
<path d="M1219.69 56.2991L1198.46 58.4378C1196.85 58.6079 1195.28 59.2126 1194.06 60.3244L1185.94 67.6477L1201.01 78.6759L1219.69 56.2991Z" fill="#4F139C"/>
<g opacity="0.26">
<path d="M1181.01 81.2578C1182.58 78.8052 1184.38 76.6954 1186.18 74.5856C1187.98 72.4758 1189.89 70.5374 1191.99 68.5026C1193.9 66.5643 1196.11 64.7009 1198.14 62.9339C1200.35 61.0706 1202.5 59.475 1205 57.6867C1203.44 60.1393 1201.64 62.2491 1199.84 64.3589C1198.04 66.4687 1196.13 68.4071 1194.03 70.4419C1192.12 72.3802 1189.91 74.2436 1187.88 76.0106C1185.78 78.0453 1183.46 79.7373 1181.01 81.2578Z" fill="#4F139C"/>
</g>
<path d="M1180.57 125.252L1201.02 142.378C1202.28 143.531 1204.31 144.032 1205.97 143.595L1225.63 140.276L1218.74 124.517L1196.23 110.117L1180.57 125.252Z" fill="#3B0085"/>
<g opacity="0.65">
<path d="M1212.03 143.101C1209.11 140.819 1206.01 138.634 1203.27 136.256C1200.52 133.878 1197.67 131.332 1194.92 128.954C1192.24 126.312 1189.5 123.934 1186.99 121.196C1184.31 118.554 1181.81 115.816 1179.48 112.982C1182.58 115.168 1185.5 117.45 1188.42 119.731C1191.34 122.013 1194.02 124.655 1196.76 127.033C1199.51 129.41 1202.19 132.052 1204.69 134.791C1206.03 136.112 1207.37 137.433 1208.54 138.85L1210.31 140.843C1210.93 141.42 1211.65 142.164 1212.03 143.101Z" fill="#270066"/>
</g>
<path d="M1166.89 49.7702L1153.76 49.7751C1152.82 49.8254 1151.99 50.0439 1151.22 50.6959L1128.57 68.4712C1126.83 69.8719 1126.71 72.2323 1128.37 73.6255L1151.57 95.2251C1153.05 96.715 1153.11 98.9787 1151.55 100.283L1133.64 116.41C1132.08 117.714 1132.13 119.977 1133.61 121.467L1152.59 138.934C1153.44 139.847 1154.61 140.134 1156.02 140.058L1172.42 138.047C1174.19 137.778 1175.39 136.668 1175.78 135.078L1184.14 87.2057C1184.27 86.6755 1184.29 85.9771 1183.95 85.4721L1170.45 52.1947C1170.2 50.7262 1168.59 49.7664 1166.89 49.7702Z" fill="#2E0091"/>
<path d="M1147.76 71.228L1172.3 93.2895C1173.67 94.6115 1173.9 96.7792 1172.52 97.9868L1153.81 115.903C1152.42 117.111 1152.48 119.375 1154.03 120.601L1171.39 136.679C1172.76 138.001 1175.23 138.044 1176.61 136.836L1195.42 119.787C1196.81 118.579 1198.98 118.55 1200.53 119.776L1223.61 139.648C1225.16 140.873 1227.33 140.844 1228.72 139.637L1249.27 121.186C1250.83 119.882 1250.6 117.714 1249.11 116.224L1225.93 96.1831C1224.26 94.7895 1224.32 92.6934 1225.77 91.2207L1241.14 77.407C1242.7 76.1026 1242.53 73.6698 1240.87 72.2762L1221.2 56.7567C1219.65 55.5315 1217.47 55.5604 1216.2 56.9363L1200.46 71.6423C1199.07 72.8499 1196.72 72.9755 1195.34 71.6535C1189.78 66.6307 1176.59 54.9516 1170.2 50.1474C1168.76 49.0906 1166.58 49.1195 1165.2 50.3271L1148.07 66.2405C1146.15 67.7384 1146.38 69.9061 1147.76 71.228Z" fill="#6627B6"/>
<path opacity="0.36" d="M1157.39 61.3763L1165.67 54.1347C1167.22 52.8311 1169.5 52.9706 1171.05 54.1953L1194.76 74.8039C1195.05 74.8756 1172.1 60.5018 1157.39 61.3763Z" fill="#6627B6"/>
<g opacity="0.65">
<path d="M1160.63 137.629C1156.98 134.34 1153.39 130.786 1149.74 127.497L1144.38 122.382C1143.42 121.301 1142.69 119.859 1142.73 118.462C1142.74 117.764 1142.94 116.969 1143.24 116.343C1143.55 115.716 1144.14 115.161 1144.38 114.799C1147.55 111.229 1150.84 107.826 1154.01 104.256L1158.97 99.0198C1160.22 97.6445 1160.27 95.55 1159.08 94.1326L1148.72 83.7102L1143.43 78.3308L1140.87 75.5927L1139.5 74.272C1138.99 73.864 1138.54 73.1911 1138.26 72.4214C1137.65 71.147 1137.57 69.5825 1138.36 68.2325C1138.67 67.6058 1139.26 67.0507 1139.68 66.5923L1141.05 65.3853L1146.34 60.654C1150.03 57.4914 1153.42 54.2573 1157.22 51.2629C1154.05 54.8335 1150.66 58.0676 1147.49 61.6382L1142.42 66.7059L1141.16 68.0812C1140.74 68.5396 1140.5 68.9013 1140.26 69.263C1139.89 70.1546 1139.98 71.021 1140.37 71.9589C1140.6 72.2954 1140.82 72.6319 1141.34 73.0398L1142.7 74.3605L1145.44 77.0019L1150.8 82.1163L1156.15 87.2308L1158.89 89.8722L1160.25 91.1928C1160.77 91.6008 1160.99 91.9373 1161.73 92.6818C1163.78 95.0118 1163.63 98.7676 1161.6 100.795L1156.65 106.031C1153.36 109.433 1150.08 112.835 1146.51 116.166C1146.09 116.625 1145.74 116.818 1145.61 117.348C1145.36 117.71 1145.24 118.24 1145.28 118.673C1145.2 119.636 1145.59 120.574 1146.15 121.415L1151.27 126.891C1153.81 130.328 1157.4 133.882 1160.63 137.629Z" fill="#30007D"/>
</g>
<path opacity="0.18" d="M1167.79 101.238L1152.47 115.661C1151.07 116.869 1151.12 119.136 1152.69 120.364L1170.16 136.472C1171.54 137.796 1174.02 137.841 1175.42 136.632L1194.37 119.575C1195.77 118.366 1197.96 118.339 1199.52 119.566L1222.74 139.476C1224.3 140.703 1226.49 140.676 1227.89 139.468L1248.6 121.008C1250.17 119.703 1249.94 117.533 1248.44 116.04L1239.09 107.975C1214.61 113.537 1188.07 108.032 1167.79 101.238Z" fill="#6627B6"/>
<path d="M1213.63 89.4073C1208.54 89.074 1207.88 95.7134 1212.97 96.0469C1218.08 96.3813 1218.75 89.742 1213.63 89.4073ZM1183.12 88.0837C1178.03 87.7501 1177.37 94.4042 1182.46 94.7376C1187.57 95.0722 1188.24 88.4182 1183.12 88.0837ZM1206.86 100.558C1206.64 100.538 1206.42 100.592 1206.25 100.758C1201.76 105.095 1193.69 105.438 1188.7 101.544C1188.28 101.218 1187.58 101.68 1188 102.051C1193.2 106.677 1202.49 106.326 1207.34 101.385C1207.72 101.007 1207.32 100.602 1206.86 100.558L1206.86 100.558Z" fill="#1C1B1D"/>
<path d="M1268.81 437.735C1267.17 437.752 1265.52 437.934 1263.92 438.278C1261.82 438.706 1259.8 439.406 1257.92 440.358L1246.2 444.425L1248.19 450.233V450.237C1247.04 452.705 1246.44 455.355 1246.43 458.034C1246.43 466.02 1251.6 473.263 1259.63 476.54L1261.99 482.601L1273.42 477.848C1276.73 477.215 1279.83 475.909 1282.51 474.03C1287.97 470.199 1291.17 464.296 1291.19 458.034C1291.19 446.823 1281.17 437.735 1268.81 437.734L1268.81 437.735Z" fill="#45E80C"/>
<path d="M1253.16 484.237C1265.53 484.237 1275.55 475.148 1275.55 463.936C1275.55 452.724 1265.53 443.635 1253.16 443.635C1240.8 443.635 1230.78 452.724 1230.78 463.936C1230.78 475.148 1240.8 484.237 1253.16 484.237Z" fill="#84F729"/>
<path d="M1260.6 440.916C1260.6 440.916 1278.08 445.155 1281.75 452.275C1285.64 459.822 1277.31 475.447 1277.31 475.447C1277.31 475.447 1282.85 460.149 1279.5 453.436C1276.29 446.989 1260.6 440.916 1260.6 440.916Z" fill="#71DD04"/>
<path d="M1212.31 392.749C1210.76 392.891 1209.24 393.738 1208.45 394.94L1196.34 409.87L1212.83 417.411L1233.15 414.886L1229.77 425.131C1230.06 425.614 1258.99 423.82 1259.61 423.987L1301.43 441.203C1302.68 442.152 1304.57 441.857 1305.82 440.78L1315.5 432.482C1316.15 431.851 1316.6 431.164 1316.71 430.179L1320.55 402.455C1320.82 400.3 1311.41 397.814 1309.18 397.812L1240.45 392.739L1212.98 392.732C1212.76 392.723 1212.53 392.729 1212.31 392.749Z" fill="#45E80C"/>
<path opacity="0.687615" d="M1311.21 434.419C1311.87 429.737 1312.06 425.128 1312.51 420.39L1313.03 413.44L1313.18 411.656C1313.15 411.043 1313.2 410.243 1312.97 409.574C1312.59 408.05 1311.4 406.916 1310.03 406.339C1309.27 405.929 1308.45 405.706 1307.77 405.724L1305.81 405.591L1301.94 405.143L1294.13 404.429L1278.93 403.114C1253.51 400.861 1248.82 401.842 1242.11 401.801C1242.08 401.795 1242.05 401.792 1242.02 401.787C1238.2 401.063 1234.43 400.77 1230.53 400.226C1226.75 399.934 1222.77 399.57 1219 399.277C1215.22 398.984 1211.29 399.053 1207.44 398.941C1208.35 399.474 1209.43 399.644 1210.3 399.745L1213.05 400.3C1214.92 400.752 1216.87 401.025 1218.82 401.297C1222.64 402.021 1226.54 402.566 1230.31 402.858C1234.09 403.151 1237.99 403.695 1241.84 403.807C1243.33 403.85 1244.82 403.891 1246.31 403.923C1254.96 405.108 1259.49 404.72 1278 405.901C1279.09 405.995 1279.5 406.106 1280.18 406.088L1282.14 406.22L1286.08 406.484L1293.74 406.956L1301.4 407.427L1305.33 407.691L1307.3 407.823C1307.98 407.805 1308.39 407.916 1308.79 408.028C1309.76 408.494 1310.45 409.089 1310.82 410C1310.9 410.428 1310.98 410.855 1311 411.469L1311.06 413.308L1310.95 420.37C1311.17 425.091 1310.98 429.699 1311.2 434.419L1311.21 434.419Z" fill="#2BD800"/>
<path d="M1305.18 411.36L1271.17 410.177C1234.47 407.492 1238.25 407.332 1231.25 407.985L1199.9 407.53C1197.87 407.583 1196.29 408.976 1196.15 410.76L1194.38 437.63C1194.17 439.599 1195.91 441.087 1198.08 441.275L1229.63 441.787C1269.36 441.386 1257.39 440.187 1269.87 441.024C1277.59 441.31 1295.75 441.809 1303.92 441.408C1305.74 441.298 1307.32 439.906 1307.47 438.122L1308.56 415.321C1308.89 412.98 1307.15 411.492 1305.18 411.36Z" fill="#84F729"/>
<path opacity="0.157116" d="M1305.44 425.077L1304.57 435.78C1304.36 437.75 1302.58 439.086 1300.55 439.14L1268.12 438.59C1267.85 438.72 1295.21 435.047 1305.44 425.077Z" fill="#5DB627"/>
<path opacity="0.077634" d="M1266.99 409.964C1245.98 407.761 1249.24 409.274 1236.66 407.63C1234.05 407.567 1230.99 407.931 1228.96 407.985L1199.54 408.312C1197.51 408.366 1195.93 409.758 1195.79 411.542L1194.02 438.412C1193.81 440.382 1195.55 441.87 1197.72 442.058L1210.38 442.274C1224.23 422.755 1247.28 417.547 1266.99 409.964Z" fill="#77B627"/>
<path d="M1266.54 356C1264.89 356.017 1263.25 356.199 1261.65 356.543C1259.55 356.972 1257.53 357.672 1255.65 358.623L1243.93 362.69L1245.92 368.498V368.503C1244.77 370.971 1244.17 373.621 1244.16 376.3C1244.16 384.286 1249.33 391.529 1257.35 394.806L1259.03 399.626L1271.15 396.114C1274.45 395.481 1277.56 394.175 1280.23 392.296C1285.69 388.465 1288.9 382.562 1288.92 376.3C1288.92 365.089 1278.9 356.001 1266.54 356L1266.54 356Z" fill="#45E80C"/>
<path d="M1254.75 400.022C1267.11 400.022 1277.13 390.933 1277.13 379.721C1277.13 368.509 1267.11 359.42 1254.75 359.42C1242.39 359.42 1232.37 368.509 1232.37 379.721C1232.37 390.933 1242.39 400.022 1254.75 400.022Z" fill="#84F729"/>
<path d="M1261.13 357.577C1261.13 357.577 1278.61 361.817 1282.28 368.937C1286.17 376.483 1277.83 392.109 1277.83 392.109C1277.83 392.109 1283.38 376.81 1280.03 370.098C1276.82 363.65 1261.13 357.577 1261.13 357.577Z" fill="#71DD04"/>
<path d="M1268.35 418.091C1263.29 417.992 1264.24 424.738 1269.3 424.838C1274.38 424.938 1273.43 418.191 1268.35 418.091ZM1238.21 418.177C1233.14 418.077 1234.1 424.838 1239.16 424.938C1244.24 425.037 1243.28 418.276 1238.21 418.177ZM1264.41 429.687C1264.2 429.676 1263.99 429.74 1263.86 429.917C1260.52 434.513 1252.71 435.237 1246.9 431.532C1246.41 431.221 1245.84 431.721 1246.34 432.077C1252.54 436.514 1261.54 435.724 1265.09 430.5C1265.36 430.101 1264.88 429.709 1264.41 429.687Z" fill="#1C1D1B"/>
<defs>
<filter id="filter0_f_2712_196" x="0" y="341" width="1592" height="178" filterUnits="userSpaceOnUse" color-interpolation-filters="sRGB">
<feFlood flood-opacity="0" result="BackgroundImageFix"/>
<feBlend mode="normal" in="SourceGraphic" in2="BackgroundImageFix" result="shape"/>
<feGaussianBlur stdDeviation="20" result="effect1_foregroundBlur_2712_196"/>
</filter>
<clipPath id="clip0_2712_196">
<rect x="580" width="211" height="211" rx="32" fill="white"/>
</clipPath>
<clipPath id="clip1_2712_196">
<rect x="801" width="211" height="211" rx="32" fill="white"/>
</clipPath>
<clipPath id="clip2_2712_196">
<rect x="580" y="221" width="211" height="211" rx="32" fill="white"/>
</clipPath>
<clipPath id="clip3_2712_196">
<rect x="801" y="221" width="211" height="211" rx="32" fill="white"/>
</clipPath>
</defs>
</svg>
