<svg width="161" height="194" viewBox="0 0 161 194" fill="none" xmlns="http://www.w3.org/2000/svg">
<path d="M9.8987 103.986L8.62433 119.978L23.924 129.65L25.349 115.436L29.1491 131.865L41.9177 135.948L40.732 123.396L45.116 136.575L61.6271 142.282L61.4459 131.574L62.9301 141.475L88.5115 144.065L90.559 132.339L92.1547 133.542L92.0845 144.137L129.698 137.03L133.37 118.204L132.476 136.028L149.42 130.779L151.65 96.4473L149.647 73.2694C149.144 54.9737 142.808 35.2386 124.868 20.8203C97.8929 -0.859148 60.0309 1.98064 38.1852 17.8307C26.7196 26.1492 18.0527 39.1829 14.0188 58.947L9.8987 103.986Z" fill="#040816"/>
<mask id="mask0_207_1729" style="mask-type:luminance" maskUnits="userSpaceOnUse" x="33" y="137" width="79" height="54">
<path d="M33.3355 185.304C34.7618 166.714 47.9963 140.863 65.6993 137.546L87.0929 139.107C111.517 147.702 112.279 183.652 111.76 190.413L33.3355 185.304Z" fill="white"/>
</mask>
<g mask="url(#mask0_207_1729)">
<path d="M33.3355 185.304C34.7618 166.714 47.9963 140.863 65.6993 137.546L87.0929 139.107C111.517 147.702 112.279 183.652 111.76 190.413L33.3355 185.304Z" fill="#F9F9F9"/>
<path d="M123.342 164.763L18.7242 156.736C18.07 156.686 17.499 157.176 17.4489 157.83L13.3075 211.805C13.2573 212.46 13.7469 213.031 14.4011 213.081L119.019 221.108C119.673 221.158 120.244 220.668 120.295 220.014L124.436 166.039C124.486 165.385 123.997 164.814 123.342 164.763Z" fill="#FFFF00"/>
</g>
<path d="M75.808 148.828C82.5093 149.342 88.1751 146.717 88.463 142.965C88.7509 139.213 83.5518 135.754 76.8506 135.24C70.1493 134.726 64.4835 137.351 64.1956 141.103C63.9077 144.855 69.1067 148.314 75.808 148.828Z" fill="#C9570B"/>
<path d="M67.0502 126.189L87.961 127.793L86.7683 143.337C78.8334 147.436 71.9358 146.553 65.8576 141.733L67.0502 126.189Z" fill="#F5BE7A"/>
<path d="M66.8653 128.599L87.2852 136.601L88.0392 126.775L67.0502 126.189L66.8653 128.599Z" fill="#C9570B"/>
<path d="M135.211 88.4581C133.28 113.619 106.612 132.332 76.8801 130.051C47.1479 127.769 24.8582 104.778 26.7888 79.6172C27.5017 70.3248 25.7259 51.2199 32.7389 39.3847C44.7147 19.1737 70.1083 7.32278 88.8599 8.76154C108.181 10.244 129.388 31.1751 136.713 53.7148C140.66 65.8608 135.887 79.6473 135.211 88.4581Z" fill="#F5BE7A"/>
<path d="M29.2827 89.0823C17.5607 90.9884 7.65357 89.248 8.25689 75.1869C8.51997 69.0606 16.3971 63.8158 27.0876 67.7833L29.2827 89.0823Z" fill="#F5BE7A"/>
<path d="M26.3396 85.3913C22.2869 87.1616 12.7656 86.3248 13.2028 80.6274C13.6399 74.93 18.5691 72.516 25.4648 74.874L26.3396 85.3913Z" fill="#FF5555"/>
<path d="M67.9902 99.7441C68.4626 109.289 82.4299 114.348 90.1432 101.703" stroke="black" stroke-width="14.8402" stroke-linecap="round" stroke-linejoin="round"/>
<path d="M105.318 62.0515C105.202 62.0507 105.087 62.076 104.983 62.1257C104.878 62.1754 104.786 62.2481 104.713 62.3383C104.189 62.9851 104.012 63.8232 103.831 64.5919C103.651 65.3608 103.553 66.0254 103.553 66.0254C103.538 66.1252 103.544 66.227 103.569 66.3247C103.593 66.4225 103.637 66.5145 103.698 66.5953C103.758 66.6761 103.834 66.7443 103.92 66.7959C104.007 66.8474 104.103 66.8814 104.203 66.8959C104.325 66.9127 104.45 66.8998 104.566 66.8581C104.602 66.9625 104.66 67.058 104.736 67.1379C104.813 67.2179 104.905 67.2805 105.008 67.3214C105.148 67.3752 105.3 67.387 105.447 67.3551C105.501 67.4879 105.592 67.6029 105.708 67.6869C105.826 67.7707 105.966 67.8193 106.11 67.8273C106.255 67.8353 106.399 67.8022 106.525 67.7319C106.551 67.8812 106.621 68.0194 106.725 68.1293C106.795 68.2025 106.879 68.2612 106.972 68.3019C107.065 68.3426 107.165 68.3645 107.266 68.3665C107.367 68.3684 107.468 68.3503 107.562 68.3132C107.656 68.2761 107.742 68.2207 107.815 68.1502C107.815 68.1502 107.853 68.1141 107.911 68.0582C107.807 68.2286 107.774 68.4326 107.818 68.627C107.862 68.8215 107.98 68.9912 108.147 69.1002C108.28 69.1849 108.435 69.227 108.592 69.2208C108.749 69.2146 108.9 69.1603 109.026 69.0652C109.024 69.0829 109.022 69.1093 109.022 69.1093C108.965 69.3048 108.988 69.5148 109.086 69.6934C109.184 69.8719 109.348 70.0044 109.543 70.0616C109.629 70.0856 109.719 70.0945 109.808 70.0879C109.87 70.2696 109.999 70.4212 110.168 70.5128C110.347 70.6093 110.558 70.6305 110.753 70.5718C110.948 70.5131 111.111 70.3793 111.208 70.1999C111.208 70.1999 111.372 69.838 112.064 69.4923C112.155 69.4474 112.236 69.3851 112.302 69.3089C112.368 69.2327 112.419 69.1442 112.451 69.0484C112.483 68.9527 112.496 68.8515 112.489 68.7508C112.482 68.65 112.455 68.5517 112.41 68.4613C112.332 68.3066 112.204 68.1827 112.047 68.1096C111.891 68.0366 111.713 68.0187 111.545 68.0588C111.677 67.9478 111.768 67.7956 111.803 67.6266C111.838 67.4577 111.815 67.282 111.738 67.1277C111.669 66.9903 111.561 66.8767 111.427 66.8016C111.293 66.7265 111.139 66.6933 110.986 66.7063C111.082 66.6181 111.158 66.555 111.194 66.5374C111.377 66.4466 111.515 66.2872 111.58 66.0941C111.645 65.9011 111.63 65.6902 111.539 65.5079C111.464 65.3577 111.341 65.2364 111.19 65.1627C111.039 65.089 110.868 65.0669 110.703 65.0999C110.612 64.9852 110.49 64.8988 110.352 64.8508C110.214 64.8028 110.065 64.7954 109.923 64.8292C109.347 64.9665 108.852 65.2854 108.394 65.6379C108.616 65.4324 108.799 65.2833 108.862 65.2551C109.047 65.1713 109.192 65.0171 109.264 64.8266C109.336 64.6361 109.329 64.4249 109.245 64.2393C109.162 64.0544 109.01 63.9098 108.821 63.8369C108.726 63.7998 108.626 63.7819 108.524 63.7841C108.423 63.7862 108.323 63.8085 108.23 63.8495C107.829 64.0293 107.492 64.301 107.188 64.6055C107.328 64.398 107.443 64.2457 107.49 64.2084C107.65 64.0836 107.754 63.9005 107.78 63.6992C107.805 63.4978 107.75 63.2946 107.626 63.1338C107.564 63.0543 107.486 62.9878 107.398 62.9383C107.309 62.8888 107.212 62.8572 107.112 62.8454C106.91 62.8196 106.706 62.8749 106.545 62.9992C106.085 63.3583 105.771 63.8477 105.503 64.3527C105.664 63.8442 105.849 63.39 105.915 63.3084C105.979 63.2302 106.027 63.1401 106.056 63.0434C106.086 62.9466 106.095 62.845 106.085 62.7444C106.075 62.6438 106.045 62.5462 105.997 62.4572C105.949 62.3682 105.884 62.2895 105.806 62.2257C105.67 62.1154 105.502 62.0544 105.327 62.053L105.318 62.0515Z" fill="black"/>
<path d="M44.75 106.766C50.927 107.24 56.3187 102.617 56.7926 96.4398C57.2665 90.2628 52.6433 84.8712 46.4663 84.3972C40.2893 83.9233 34.8977 88.5465 34.4238 94.7235C33.9498 100.9 38.573 106.292 44.75 106.766Z" fill="#C9570B"/>
<path d="M115.042 112.179C121.649 112.686 127.416 107.741 127.923 101.134C128.43 94.5267 123.485 88.7598 116.878 88.2528C110.271 87.7459 104.504 92.691 103.997 99.2979C103.49 105.905 108.435 111.672 115.042 112.179Z" fill="#C9570B"/>
<path d="M80.2499 93.8155C83.0016 94.0266 85.3411 92.7785 85.4755 91.0278C85.6098 89.2771 83.488 87.6867 80.7363 87.4755C77.9847 87.2644 75.6451 88.5125 75.5107 90.2633C75.3764 92.014 77.4982 93.6044 80.2499 93.8155Z" fill="#C9570B"/>
<path d="M130.504 96.7875C141.798 100.46 152.857 100.395 154.405 86.4068C155.08 80.312 146.242 75.2026 135.071 77.4929L130.504 96.7875Z" fill="#F5BE7A"/>
<path d="M133.976 93.5884C137.711 95.9563 147.249 96.5818 147.686 90.8843C148.123 85.1869 143.62 82.0493 136.445 83.3277L133.976 93.5884Z" fill="#FF5555"/>
<path d="M21.7388 56.1833C35.8774 56.9669 50.3236 53.7853 65.1374 41.1443L63.6682 51.5829C73.2509 47.1759 77.4626 36.5055 83.2624 27.6867L85.3986 48.3803C89.8783 39.1989 90.6352 28.4706 92.0283 18.812C95.9532 32.4251 99.337 47.338 112.98 54.7934L115.71 50.3241L115.959 57.0273L136.333 64.0333L142.354 64.4716C133.4 42.6191 124.75 8.78445 88.8599 8.76084C78.3994 5.3377 60.231 13.8688 44.1558 19.1534C32.3675 28.908 27.4327 42.7735 21.7388 56.1833Z" fill="#040816"/>
<path d="M56.3986 86.4804C60.0172 86.7581 63.3029 82.3922 63.7374 76.7289C64.1719 71.0657 61.5907 66.2496 57.9722 65.972C54.3536 65.6943 51.0679 70.0602 50.6333 75.7235C50.1988 81.3867 52.78 86.2028 56.3986 86.4804Z" fill="#241C1C"/>
<path d="M101.293 89.9419C104.912 90.2195 108.197 85.8536 108.632 80.1903C109.067 74.5271 106.485 69.711 102.867 69.4334C99.2482 69.1557 95.9624 73.5216 95.5279 79.1849C95.0934 84.8482 97.6746 89.6642 101.293 89.9419Z" fill="#241C1C"/>
<path d="M59.22 58.3072C59.3346 58.324 59.4438 58.3666 59.5396 58.4316C59.6354 58.4967 59.7152 58.5825 59.7731 58.6828C60.1926 59.4019 60.24 60.2572 60.3011 61.0446C60.362 61.8319 60.3577 62.5037 60.3577 62.5037C60.3568 62.6046 60.336 62.7043 60.2966 62.7972C60.2571 62.89 60.1998 62.9742 60.1278 63.0449C60.0558 63.1156 59.9706 63.1714 59.877 63.2092C59.7835 63.2469 59.6834 63.2658 59.5825 63.2649C59.459 63.2629 59.3377 63.231 59.2291 63.1721C59.1777 63.2698 59.1058 63.3553 59.0183 63.4227C58.9309 63.4901 58.83 63.5378 58.7225 63.5627C58.5759 63.5946 58.4232 63.5829 58.2832 63.529C58.2092 63.652 58.1022 63.7518 57.9743 63.817C57.8448 63.8818 57.6995 63.9086 57.5554 63.8944C57.4113 63.8802 57.2742 63.8256 57.1598 63.7368C57.1113 63.8804 57.0214 64.0064 56.9014 64.099C56.821 64.1607 56.7293 64.2059 56.6314 64.232C56.5335 64.258 56.4314 64.2645 56.3311 64.251C56.2307 64.2374 56.134 64.2042 56.0465 64.1531C55.959 64.1021 55.8825 64.0342 55.8213 63.9534C55.8213 63.9534 55.7892 63.9119 55.7407 63.8479C55.8171 64.0321 55.8189 64.2387 55.7456 64.4242C55.6724 64.6096 55.5299 64.7593 55.3483 64.8417C55.2045 64.9052 55.0448 64.9232 54.8905 64.893C54.7362 64.8629 54.5949 64.7862 54.4856 64.6732C54.4842 64.6908 54.4822 64.7173 54.4822 64.7173C54.5088 64.9191 54.4541 65.1232 54.3302 65.2847C54.2064 65.4463 54.0235 65.5521 53.8217 65.5789C53.7332 65.5895 53.6435 65.5846 53.5567 65.5645C53.467 65.7345 53.3167 65.8648 53.1356 65.9295C52.9436 65.9974 52.7325 65.9862 52.5487 65.8985C52.3649 65.8107 52.2234 65.6536 52.1555 65.4615C52.1555 65.4615 52.0488 65.0789 51.4169 64.6316C51.3343 64.5734 51.2641 64.4995 51.2102 64.4141C51.1562 64.3287 51.1198 64.2335 51.1027 64.134C51.0856 64.0344 51.0883 63.9325 51.1106 63.834C51.133 63.7355 51.1746 63.6424 51.2329 63.56C51.3333 63.419 51.4783 63.316 51.6446 63.2677C51.8108 63.2194 51.9885 63.2287 52.1487 63.2941C52.0352 63.1642 51.9688 62.9999 51.96 62.8276C51.9512 62.6554 52.0006 62.4852 52.1004 62.3444C52.1893 62.2192 52.3138 62.1235 52.4577 62.0697C52.6015 62.0159 52.7582 62.0065 52.9074 62.0426C52.8266 61.9409 52.7613 61.867 52.7275 61.844C52.5613 61.7265 52.4485 61.5477 52.414 61.3471C52.3795 61.1464 52.4261 60.9403 52.5435 60.7739C52.6411 60.637 52.7809 60.5359 52.9415 60.4861C53.1021 60.4363 53.2746 60.4406 53.4325 60.4983C53.5397 60.3988 53.6732 60.3319 53.817 60.3056C53.9609 60.2793 54.1093 60.2946 54.2448 60.3497C54.7934 60.5734 55.2339 60.964 55.6327 61.3823C55.4438 61.1451 55.2866 60.9701 55.2287 60.9326C55.0581 60.8214 54.9387 60.647 54.8967 60.4477C54.8547 60.2485 54.8935 60.0407 55.0046 59.8701C55.1147 59.7001 55.2876 59.5804 55.4855 59.5372C55.5845 59.5151 55.6869 59.5127 55.7867 59.5303C55.8866 59.548 55.982 59.5852 56.0674 59.6398C56.4364 59.8787 56.7283 60.1986 56.982 60.5459C56.8753 60.3195 56.7846 60.1515 56.7436 60.1074C56.6045 59.9596 56.5295 59.7628 56.5351 59.5599C56.5406 59.357 56.6263 59.1646 56.7733 59.0246C56.8472 58.9555 56.934 58.9017 57.0287 58.8662C57.1235 58.8307 57.2244 58.8144 57.3255 58.818C57.5289 58.8233 57.7218 58.909 57.8621 59.0564C58.2624 59.4816 58.4981 60.0132 58.6855 60.5531C58.6047 60.0261 58.4904 59.5489 58.4378 59.4582C58.3863 59.3712 58.3526 59.2748 58.3385 59.1747C58.3244 59.0746 58.3302 58.9727 58.3556 58.8748C58.3809 58.777 58.4254 58.6851 58.4863 58.6044C58.5473 58.5238 58.6236 58.4559 58.7108 58.4048C58.8614 58.3164 59.0375 58.282 59.2103 58.3071L59.22 58.3072Z" fill="black"/>
<path d="M102.18 17.274C102.839 19.7575 105.015 22.9056 108.135 26.468C108.135 26.468 111.584 32.1335 114.08 34.2289C114.529 34.606 115.073 35.1856 115.641 35.0409C116.95 34.708 118.418 33.9255 117.904 31.6815C115.61 21.6788 101.425 14.4337 102.18 17.274Z" fill="#F9F9F9"/>
</svg>
