<svg width="181" height="197" viewBox="0 0 181 197" fill="none" xmlns="http://www.w3.org/2000/svg">
<mask id="mask0_207_1663" style="mask-type:luminance" maskUnits="userSpaceOnUse" x="30" y="142" width="93" height="50">
<path d="M30.6962 177.564C36.8244 161.659 45.2674 138.685 69.2953 142.618L95.7522 146.657C122.862 150.177 123.17 183.168 121.862 191.527L30.6962 177.564Z" fill="white"/>
</mask>
<g mask="url(#mask0_207_1663)">
<path d="M30.6962 177.564C36.8244 161.659 45.2674 138.685 69.2953 142.618L95.7522 146.657C122.862 150.177 123.17 183.168 121.862 191.527L30.6962 177.564Z" fill="#3C8B2E"/>
<path d="M106.753 145.2L59.8703 137.864C59.2221 137.762 58.6144 138.206 58.513 138.854L54.6121 163.783C54.5107 164.432 54.9539 165.039 55.6021 165.141L102.485 172.477C103.133 172.578 103.741 172.135 103.842 171.487L107.743 146.557C107.845 145.909 107.401 145.301 106.753 145.2Z" fill="#FFFF00"/>
<path d="M102.97 169.376L56.0872 162.04C55.439 161.939 54.8314 162.382 54.7299 163.03L50.829 187.96C50.7276 188.608 51.1708 189.216 51.819 189.317L98.7019 196.653C99.3501 196.754 99.9579 196.311 100.059 195.663L103.96 170.733C104.062 170.085 103.618 169.478 102.97 169.376Z" fill="#AA0000"/>
</g>
<path d="M81.9792 150.048C91.2674 151.501 99.0952 150.773 99.4632 148.421C99.8312 146.069 92.5999 142.985 83.3118 141.531C74.0237 140.078 66.1958 140.806 65.8279 143.158C65.4599 145.51 72.6911 148.594 81.9792 150.048Z" fill="#C9570B"/>
<path d="M72.8384 123.837L98.6899 127.883L95.683 147.099C85.4117 151.42 76.9188 149.645 69.8314 143.054L72.8384 123.837Z" fill="#CA8A55"/>
<path d="M71.6232 131.603L96.2371 143.558L98.1381 131.409L72.0894 128.624L71.6232 131.603Z" fill="#8E3820"/>
<path d="M84.3185 133.488C117.596 138.695 148.519 117.7 153.387 86.5936C158.254 55.4872 135.223 26.0493 101.945 20.8421C68.6671 15.6349 37.7442 36.6303 32.8768 67.7367C28.0094 98.8431 51.0406 128.281 84.3185 133.488Z" fill="#CA8A55"/>
<path d="M35.8367 89.5711C26.6888 88.5791 14.9614 86.1658 16.2741 71.699C16.8511 65.341 21.1431 58.4292 35.1315 66.3185L35.8367 89.5711Z" fill="#CA8A55"/>
<path d="M33.0838 85.4991C24.1524 84.0886 20.7806 79.5835 21.7003 73.706C22.62 67.8284 27.5845 68.128 35.2875 71.4588L33.0838 85.4991Z" fill="#863129"/>
<path d="M73.4047 101.934C75.3505 113.386 80.8523 116.741 91.9278 115.35" stroke="black" stroke-width="11.5904" stroke-linecap="round" stroke-linejoin="round"/>
<path d="M53.5315 105.727C59.3663 106.64 64.8363 102.65 65.7493 96.8149C66.6623 90.9801 62.6725 85.51 56.8378 84.597C51.003 83.684 45.5328 87.6739 44.6198 93.5086C43.7068 99.3434 47.6967 104.814 53.5315 105.727Z" fill="#A74634"/>
<path d="M126.234 117.103C132.069 118.016 137.539 114.026 138.452 108.191C139.365 102.357 135.375 96.8865 129.54 95.9735C123.705 95.0605 118.235 99.0503 117.322 104.885C116.409 110.72 120.399 116.19 126.234 117.103Z" fill="#C55740"/>
<path d="M143.149 110.701C152.136 112.676 164.874 114.157 168.24 100.025C169.719 93.815 167.853 85.896 152.08 88.9165L143.149 110.701Z" fill="#CA8A55"/>
<path d="M147.909 107.75C156.824 109.259 161.456 106.063 162.457 100.199C163.458 94.3344 158.657 93.0365 150.294 93.7391L147.909 107.75Z" fill="#863129"/>
<path d="M157.849 54.5527L153.331 88.4678C153.317 88.5762 153.281 88.6807 153.225 88.775C153.17 88.8693 153.096 88.9516 153.009 89.0171C152.921 89.0825 152.821 89.1298 152.715 89.1561C152.609 89.1825 152.499 89.1873 152.39 89.1704L150.655 88.8989C150.489 88.8729 150.338 88.7894 150.227 88.6629C150.117 88.5363 150.054 88.375 150.051 88.207L149.876 79.6695L147.42 55.1125" fill="#110402"/>
<path d="M41.5918 33.761L32.7499 65.544C32.7271 65.626 32.7208 65.7117 32.7315 65.7961C32.7421 65.8805 32.7696 65.9619 32.812 66.0356C32.8545 66.1093 32.9112 66.1738 32.9789 66.2254C33.0465 66.2769 33.1238 66.3145 33.2061 66.3359L34.8031 66.7502C35.0456 66.8131 35.3024 66.7886 35.5286 66.6811C35.7548 66.5736 35.936 66.3899 36.0403 66.1622L39.4743 58.6663L51.495 37.1121" fill="#110402"/>
<path d="M127.174 15.7193C123.388 14.9637 119.405 15.6996 116.579 17.6771C116.072 16.8037 115.339 15.9278 113.901 15.0438C102.844 11.3241 100.771 14.6738 97.0228 16.706C93.2669 14.5325 88.5332 13.083 82.7902 12.38C81.2869 12.9363 80.242 13.9208 80.7681 16.3668L78.5637 16.7258C76.3485 14.718 73.159 13.2872 69.687 12.7439C62.4033 11.6043 55.8852 14.602 55.128 19.4397C55.0815 19.7367 55.0769 20.0398 55.0843 20.343C51.8082 19.8948 48.5581 20.2733 45.9634 21.4052C39.8637 21.0893 34.832 24.0849 34.1505 28.4382C33.3931 33.2763 38.2432 38.0536 44.9833 39.1082C48.0933 39.5934 51.2186 39.2089 53.7212 38.0319C57.1727 38.3925 60.524 37.8358 63.0626 36.48C64.5694 37.1588 66.2198 37.6483 67.9226 37.9215C70.8434 38.3706 73.7781 38.1627 76.2672 37.3309C78.5319 38.2975 81.4484 39.0903 84.5144 39.5727C90.7492 40.5479 96.3395 40.0585 97.9165 38.3996C100.186 39.6933 103.678 40.7839 107.451 41.3772C111.573 42.0222 115.539 41.9973 118.093 41.3102C118.851 43.1438 121.681 44.7552 125.087 45.2917C127.873 45.7274 130.567 45.3652 132.157 44.3413C133.526 45.6085 135.579 46.8263 137.934 47.7685C140.924 48.9596 142.136 50.9895 144.584 50.8749C144.677 52.4914 145.695 54.0132 147.42 55.1123C151.063 57.4169 158.737 55.8503 162.138 53.3414C165.539 50.8321 165.343 46.9293 161.7 44.6242C160.514 43.8799 159.055 43.3686 157.475 43.1437C157.625 43.0445 157.771 42.9424 157.911 42.837C161.555 40.089 161.359 35.8338 157.473 33.3324C155.448 32.0312 152.705 31.4091 149.945 31.6247C149.758 29.9549 148.682 28.4033 146.929 27.2739C143.9 25.3325 139.402 24.9759 135.756 26.3881C137.031 22.1841 134.053 17.8233 128.746 16.1256C128.234 15.962 127.709 15.8262 127.174 15.7193Z" fill="black"/>
<path d="M116.654 72.4675C116.551 72.4587 116.447 72.4732 116.351 72.51C116.254 72.5468 116.167 72.605 116.097 72.6802C115.585 73.2185 115.369 73.9512 115.155 74.6221C114.94 75.293 114.807 75.8772 114.807 75.8772C114.787 75.9649 114.785 76.0558 114.8 76.1444C114.815 76.2331 114.848 76.3179 114.896 76.394C114.944 76.4701 115.006 76.536 115.08 76.588C115.153 76.6399 115.236 76.6769 115.324 76.6967C115.432 76.7203 115.543 76.7175 115.65 76.6885C115.674 76.7839 115.719 76.8728 115.781 76.9492C115.844 77.0256 115.921 77.0877 116.01 77.1314C116.13 77.189 116.265 77.2101 116.398 77.1921C116.436 77.3138 116.509 77.4223 116.606 77.5052C116.705 77.5879 116.826 77.6409 116.954 77.658C117.082 77.6751 117.212 77.6557 117.329 77.602C117.342 77.7366 117.394 77.8644 117.479 77.9693C117.537 78.0393 117.607 78.0973 117.687 78.14C117.766 78.1827 117.853 78.2092 117.943 78.218C118.033 78.2269 118.124 78.2178 118.21 78.1914C118.297 78.165 118.377 78.1218 118.447 78.0643C118.447 78.0643 118.482 78.0345 118.539 77.9893C118.435 78.1335 118.391 78.3125 118.416 78.4885C118.442 78.6645 118.535 78.8236 118.676 78.9323C118.788 79.0169 118.923 79.0652 119.063 79.0707C119.203 79.0761 119.341 79.0384 119.459 78.9627C119.457 78.9778 119.443 79.0001 119.443 79.0001C119.379 79.1699 119.385 79.3582 119.459 79.5238C119.533 79.6895 119.67 79.8188 119.84 79.8833C119.915 79.9106 119.993 79.9246 120.073 79.9248C120.116 80.0908 120.22 80.2346 120.363 80.3279C120.439 80.3766 120.523 80.4099 120.612 80.4259C120.7 80.442 120.791 80.4404 120.879 80.4213C120.967 80.4023 121.051 80.3661 121.124 80.3148C121.198 80.2636 121.262 80.1982 121.31 80.1226C121.31 80.1226 121.482 79.8124 122.121 79.5535C122.205 79.5199 122.281 79.4701 122.345 79.407C122.409 79.3439 122.461 79.2687 122.496 79.1858C122.531 79.1029 122.55 79.0139 122.55 78.9238C122.551 78.8338 122.534 78.7445 122.5 78.661C122.442 78.518 122.337 78.3988 122.203 78.3229C122.068 78.2469 121.912 78.2186 121.76 78.2425C121.885 78.1531 121.976 78.0242 122.02 77.8765C122.063 77.7288 122.055 77.5709 121.997 77.4282C121.946 77.3013 121.857 77.1927 121.743 77.1166C121.629 77.0404 121.495 77.0001 121.358 77.0009C121.451 76.9294 121.521 76.8784 121.554 76.8651C121.723 76.7971 121.857 76.665 121.928 76.4979C121.999 76.3308 122.001 76.1423 121.933 75.9739C121.876 75.835 121.776 75.7186 121.646 75.6424C121.517 75.5663 121.366 75.5347 121.218 75.5524C121.145 75.4441 121.043 75.3588 120.923 75.3065C120.804 75.2541 120.672 75.237 120.543 75.2571C120.021 75.3388 119.559 75.5877 119.127 75.869C119.339 75.7018 119.512 75.5821 119.57 75.5615C119.741 75.4999 119.88 75.373 119.957 75.2086C120.035 75.0443 120.043 74.856 119.982 74.6851C119.921 74.5149 119.796 74.3757 119.633 74.2976C119.551 74.2581 119.463 74.2351 119.373 74.23C119.282 74.2248 119.192 74.2376 119.106 74.2676C118.737 74.3993 118.418 74.6172 118.127 74.8667C118.267 74.6921 118.38 74.5648 118.425 74.535C118.576 74.4351 118.681 74.2794 118.717 74.1022C118.754 73.9249 118.719 73.7404 118.62 73.5889C118.57 73.5138 118.505 73.4493 118.43 73.399C118.356 73.3488 118.271 73.3139 118.183 73.2963C118.005 73.2593 117.82 73.2941 117.668 73.3933C117.234 73.6803 116.92 74.0934 116.647 74.5237C116.824 74.0827 117.022 73.692 117.086 73.6241C117.149 73.5591 117.198 73.4825 117.231 73.3985C117.263 73.3145 117.279 73.2249 117.277 73.1348C117.276 73.0447 117.256 72.9558 117.22 72.8733C117.183 72.7908 117.131 72.7162 117.066 72.6539C116.953 72.5463 116.808 72.4804 116.652 72.4668L116.654 72.4675Z" fill="black"/>
<path d="M90.5642 98.7064C92.996 99.0869 95.1636 98.1412 95.4057 96.594C95.6478 95.0468 93.8727 93.484 91.4409 93.1035C89.0092 92.723 86.8416 93.6688 86.5995 95.216C86.3574 96.7632 88.1324 98.3259 90.5642 98.7064Z" fill="#C9570B"/>
<path d="M69.8714 90.5137C73.0693 91.0141 76.2966 87.3625 77.0798 82.3576C77.8629 77.3527 75.9053 72.8898 72.7074 72.3894C69.5095 71.8891 66.2823 75.5406 65.4991 80.5455C64.716 85.5504 66.6735 90.0133 69.8714 90.5137Z" fill="#241C1C"/>
<path d="M111.121 96.9829C114.319 97.4833 117.546 93.8317 118.33 88.8268C119.113 83.822 117.155 79.3591 113.957 78.8587C110.759 78.3583 107.532 82.0099 106.749 87.0147C105.966 92.0196 107.923 96.4825 111.121 96.9829Z" fill="#241C1C"/>
<path d="M74.3539 65.6618C74.4546 65.6848 74.5488 65.7303 74.6295 65.7948C74.7101 65.8594 74.775 65.9413 74.8195 66.0345C75.142 66.7033 75.1242 67.4671 75.1235 68.1714C75.1227 68.8758 75.071 69.4727 75.071 69.4727C75.0631 69.5623 75.0376 69.6495 74.9961 69.7293C74.9545 69.8091 74.8976 69.8799 74.8286 69.9377C74.7597 69.9955 74.6801 70.0392 74.5943 70.0662C74.5084 70.0932 74.4182 70.1031 74.3285 70.0952C74.2188 70.0847 74.1132 70.0479 74.0207 69.9879C73.9681 70.0712 73.8982 70.1421 73.8157 70.1959C73.7332 70.2497 73.6401 70.2851 73.5427 70.2996C73.4102 70.3177 73.2754 70.2966 73.1547 70.2389C73.0806 70.343 72.9788 70.4243 72.8609 70.4735C72.7412 70.522 72.6102 70.5357 72.483 70.513C72.3559 70.4903 72.2378 70.4321 72.1423 70.3451C72.0891 70.4694 72.0004 70.5752 71.8872 70.6491C71.8115 70.6983 71.7268 70.732 71.6379 70.7483C71.5491 70.7647 71.4578 70.7632 71.3695 70.7442C71.2813 70.7251 71.1975 70.6888 71.1233 70.6373C71.0491 70.5857 70.9859 70.5201 70.9372 70.444C70.9372 70.444 70.9128 70.4051 70.8725 70.3445C70.9274 70.5136 70.9144 70.6975 70.8363 70.8572C70.7582 71.017 70.621 71.1401 70.4537 71.2005C70.3214 71.247 70.1781 71.2517 70.043 71.2141C69.908 71.1765 69.7877 71.0983 69.6984 70.9902C69.696 71.0058 69.7023 71.0308 69.7023 71.0308C69.7117 71.2121 69.6488 71.3897 69.5274 71.5247C69.406 71.6596 69.2359 71.7409 69.0546 71.7505C68.9752 71.7537 68.896 71.743 68.8203 71.719C68.7287 71.8639 68.586 71.9692 68.4206 72.0141C68.3336 72.0373 68.2431 72.0432 68.1539 72.0314C68.0647 72.0197 67.9787 71.9904 67.9008 71.9454C67.8229 71.9004 67.7546 71.8405 67.6999 71.7691C67.6451 71.6977 67.605 71.6162 67.5817 71.5293C67.5817 71.5293 67.5127 71.1814 66.9831 70.7396C66.9139 70.6821 66.8566 70.6114 66.8147 70.5317C66.7728 70.452 66.7471 70.3648 66.7389 70.2751C66.7307 70.1854 66.7402 70.095 66.767 70.009C66.7938 69.923 66.8373 69.8432 66.895 69.774C66.9941 69.6556 67.1303 69.5742 67.2815 69.5429C67.4327 69.5116 67.5901 69.5324 67.728 69.6017C67.636 69.4784 67.5883 69.3277 67.5924 69.1739C67.5965 69.0201 67.6522 68.8721 67.7507 68.7539C67.8386 68.6487 67.956 68.5724 68.0877 68.5346C68.2194 68.4969 68.3593 68.4995 68.4895 68.5421C68.4232 68.4458 68.3718 68.3757 68.3445 68.353C68.205 68.2368 68.1174 68.07 68.1008 67.8892C68.0842 67.7084 68.14 67.5284 68.2561 67.3887C68.3524 67.2738 68.4839 67.1937 68.6302 67.1607C68.7764 67.1277 68.9295 67.1436 69.0659 67.206C69.1682 67.125 69.2914 67.0749 69.4212 67.0616C69.551 67.0483 69.6819 67.0723 69.7984 67.1308C70.2704 67.3681 70.6349 67.7463 70.9601 68.1461C70.8094 67.9221 70.6812 67.7553 70.6323 67.7179C70.4885 67.6071 70.3946 67.4437 70.3712 67.2636C70.3478 67.0835 70.3967 66.9015 70.5075 66.7576C70.6173 66.6141 70.7794 66.5198 70.9584 66.4953C71.048 66.4825 71.1391 66.4876 71.2267 66.5103C71.3143 66.533 71.3966 66.5728 71.4687 66.6274C71.78 66.8656 72.0171 67.1705 72.2184 67.4971C72.1388 67.2882 72.0698 67.1324 72.0359 67.0903C71.9228 66.949 71.8702 66.7687 71.8896 66.5887C71.9089 66.4088 71.9988 66.2438 72.1394 66.1299C72.2099 66.0736 72.2909 66.0318 72.3776 66.0069C72.4644 65.982 72.5552 65.9745 72.6449 65.9848C72.8253 66.0037 72.9908 66.0934 73.1051 66.2342C73.4314 66.6403 73.6038 67.1295 73.7325 67.6226C73.6981 67.1485 73.6296 66.7162 73.5889 66.6318C73.5492 66.5509 73.5259 66.4629 73.5203 66.3729C73.5147 66.2829 73.5269 66.1927 73.5563 66.1075C73.5856 66.0223 73.6314 65.9436 73.6912 65.8761C73.7509 65.8086 73.8234 65.7536 73.9044 65.7142C74.0445 65.6462 74.2036 65.6279 74.3555 65.6624L74.3539 65.6618Z" fill="black"/>
<path d="M119.06 70.7517C113.562 69.9428 107.387 70.1519 104.681 72.1917C101.074 74.9114 101.438 75.3499 100.858 80.4483C97.9805 92.555 107.932 101.31 117.184 102.758C125.167 104.007 138.437 101.644 140.827 86.3647C139.745 93.2843 147.493 79.0582 144.236 76.1601C140.979 73.2621 128.863 73.2973 124.178 71.8701C122.65 71.4044 120.892 71.0214 119.06 70.7517ZM71.1595 63.4304C69.8912 63.2316 68.6347 63.1172 67.4363 63.0996C62.5397 63.0275 52.3647 59.6719 48.3779 61.4365C44.3912 63.2011 48.6045 64.1874 47.5217 71.1071C45.1309 86.3862 55.1887 94.259 64.5262 94.9667C73.8637 95.6744 86.4294 90.0901 87.3879 77.6831C88.393 72.6512 87.0867 73.4269 84.4829 69.7353C82.3673 66.736 76.6553 64.2918 71.1595 63.4304Z" fill="white" fill-opacity="0.3"/>
<path d="M151.683 74.34C150.841 73.6516 148.6 73.2732 148.6 73.2732L135.428 70.9452C113.87 67.1345 107.063 67.3183 100.947 71.8741L100.945 71.874C99.5585 72.907 98.21 73.6982 97.9481 73.6333C97.6864 73.5683 96.012 72.9516 94.2275 72.2615C92.4431 71.5715 90.6654 71.0743 90.2766 71.1578C89.8732 71.2442 89.355 70.5058 89.0722 69.4397C88.3782 66.8241 84.9437 64.6132 79.0992 63.0182C76.5552 62.3241 67.3896 60.7214 58.7309 59.4583L42.9873 57.1625L41.6385 57.0616C41.6385 57.0616 40.0084 56.7243 38.9919 58.345C37.9752 59.9657 37.5182 65.1123 39.3742 67.8761C39.8794 68.6286 42.3189 69.275 42.3189 69.275L43.1368 72.0288C43.5865 73.5434 44.6545 77.2269 45.511 80.2131C46.571 83.909 47.8642 86.7647 49.4731 89.218C54.7584 97.277 58.6542 98.1124 73.4231 96.5323C75.4772 96.3125 78.3575 94.178 80.1945 92.7268C83.2545 90.309 88.6234 83.8959 88.8827 82.3061C89.0628 81.22 91.6687 79.71 93.8366 80.2358C95.0368 80.6038 96.3861 82.264 96.7425 83.4126C96.6886 83.7575 97.2902 86.16 98.079 88.751C99.6515 93.9152 101.903 97.6753 105.904 99.9849C116.894 106.328 124.092 107.512 132.462 101.409C135.838 98.9478 140.515 93.9862 143.213 89.8768C144.932 87.2574 145.804 86.5038 148.614 85.2117C150.657 84.2725 153.842 81.2484 154.039 78.3355C154.144 76.7928 152.88 75.3189 151.683 74.34ZM129.028 74.3371C131.948 74.8073 134.987 75.0464 137.162 75.7154C140.267 76.6705 142.658 78.0399 142.876 78.3389C143.452 79.1279 140.378 85.3105 137.126 89.9025C133.382 95.1909 129.76 98.5903 126.812 99.5854C123.752 100.618 114.773 99.6946 111.835 98.0451C105.084 94.2553 101.755 88.6213 102.099 81.5646C102.263 78.1904 104.171 74.425 106.052 73.7679C109.641 72.5136 120.269 72.9246 129.028 74.3371ZM57.8542 63.7585C60.5783 64.2114 63.8707 64.8117 67.0731 65.4515C77.3684 67.5064 78.9836 67.9566 80.9992 69.3334C85.9892 72.7421 86.3112 75.4886 82.5212 82.321C79.9596 86.939 76.3475 90.1436 72.2126 91.4671C67.0286 93.1263 57.171 91.0889 54.4438 87.794C53.1789 86.2657 50.0537 79.2616 50.0293 77.8998C50.0186 77.3063 49.9062 76.6813 49.7776 76.5111C49.5814 76.2509 49.1703 73.1062 48.905 69.8244C48.8681 69.3683 48.7172 68.1176 48.5683 67.0455C48.0163 63.072 48.2829 62.7575 52.0436 62.9525C52.9742 63.0007 55.1299 63.3056 57.8542 63.7585Z" fill="black"/>
<path d="M42.5261 64.2425C43.3996 64.3792 44.2184 63.7819 44.3551 62.9085C44.4917 62.035 43.8945 61.2162 43.0211 61.0795C42.1476 60.9428 41.3288 61.5401 41.1921 62.4135C41.0554 63.287 41.6527 64.1058 42.5261 64.2425Z" fill="white"/>
<path d="M148.361 80.8031C149.234 80.9398 150.053 80.3425 150.19 79.469C150.326 78.5956 149.729 77.7767 148.856 77.6401C147.982 77.5034 147.163 78.1006 147.027 78.9741C146.89 79.8475 147.487 80.6664 148.361 80.8031Z" fill="white"/>
</svg>
