<svg width="195" height="249" viewBox="0 0 195 249" fill="none" xmlns="http://www.w3.org/2000/svg">
<path d="M37.889 249C42.334 228.403 48.2554 198.73 78.3539 198.942L111.439 198.818C145.222 197.937 151.904 238.172 151.904 248.631L37.889 249Z" fill="#10386A"/>
<path d="M79.092 175.327H111.439V199.372C99.72 206.612 89.008 206.067 79.092 199.372V175.327Z" fill="#F7CA92"/>
<path d="M79.092 185.045L111.439 194.941V179.74L79.092 181.317V185.045Z" fill="#F25746"/>
<path d="M94.9579 184.921C136.597 184.921 170.353 153.368 170.353 114.445C170.353 75.5228 136.597 43.97 94.9579 43.97C53.3184 43.97 19.5629 75.5228 19.5629 114.445C19.5629 153.368 53.3184 184.921 94.9579 184.921Z" fill="#F7CA92"/>
<path d="M27.3507 140.547C15.9882 141.084 1.20384 140.377 0.0423135 122.457C-0.468132 114.581 3.45293 105.319 22.0456 112.282L27.3507 140.547Z" fill="#F7CA92"/>
<path d="M23.2103 136.1C12.0322 136.084 7.05286 131.226 7.05286 123.871C7.05286 116.517 13.1737 115.934 23.2183 118.53L23.2103 136.1Z" fill="#FF5555"/>
<path d="M23.991 110.448C23.991 110.448 20.2442 112.659 19.6252 111.587C15.6135 104.639 13.4254 98.5866 12.0606 90.8307L8.92424 92.0606C10.4352 79.7707 11.4258 68.2207 19.5017 59.7133C14.9958 58.2745 10.6778 55.8217 8.13843 52.4163C13.1669 47.4893 19.1556 43.2786 26.1434 39.8499C20.759 34.3371 19.7872 30.2772 18.7923 26.6777C23.0259 32.0263 30.7505 34.8389 39.3652 36.0371C34.1588 27.9546 34.7665 24.4222 34.6914 20.3554C39.7043 26.6608 46.8104 31.4131 55.4158 35.0531C53.6413 27.1771 52.6191 19.0479 52.1565 10.5159C57.004 14.3873 61.5986 18.3345 64.8248 22.6923C69.5918 16.6091 74.5111 11.2362 79.7685 7.4411C78.8972 18.2107 77.1425 27.2282 74.527 38.1432L74.2952 40.9568C75.8888 33.8589 77.6285 26.9204 81.5519 22.1388C90.6324 11.0722 99.4561 4.99774 108.118 0C106.755 9.7835 104.357 20.1244 100.862 31.0559L98.3405 40.1266C107.773 13.2489 121.007 17.1974 140.896 14.4517C136.7 26.0258 136.817 29.4602 125.953 35.6681L122.874 37.541C210.234 -9.71858 133.154 44.2686 171.091 18.08C170.186 23.6104 166.389 27.052 162.605 30.5024C170.88 28.285 178.165 23.9314 181.054 24.7217C173.972 44.6573 160.164 50.2504 139.912 52.8872C175.834 32.1478 192.476 54.6224 194.029 56.6385L172.321 58.8524C192.972 79.5033 175.36 114.974 173.071 116.295C170.783 117.617 168.999 115.754 168.999 115.754C168.999 115.754 168.49 107.082 167.896 104.865C167.216 102.324 166.246 97.6095 163.818 95.0153C161.643 92.6919 155.472 89.5278 155.472 89.5278C154.19 88.7875 139.103 76.4684 139.103 76.4684L139.542 90.3655C130.825 86.4336 123.569 81.1213 117.886 74.3196L120.843 83.408C108.113 81.7133 99.1588 75.4035 91.6213 67.3621L95.7524 75.8851C81.4849 76.578 70.6582 71.9033 60.4428 66.275L63.7911 80.0596C51.8487 78.8505 44.3412 75.1805 35.1769 71.5019L31.924 78.4083C25.9593 88.7396 24.8439 105.02 23.991 110.448Z" fill="#8F4A03"/>
<path d="M78.6628 145.417C86.7459 159.417 101.139 160.254 112.755 145.504" stroke="black" stroke-width="11.5904" stroke-linecap="round" stroke-linejoin="round"/>
<path d="M47.3198 122.736C54.7577 109.853 72.1818 117.24 74.3398 125.293" stroke="black" stroke-width="16.2266" stroke-linecap="round" stroke-linejoin="round"/>
<path d="M118.811 124.788C126.249 111.906 137.867 118.2 141.833 125.07" stroke="black" stroke-width="16.2266" stroke-linecap="round" stroke-linejoin="round"/>
<path d="M125.029 97.1322C131.866 95.5128 136.217 95.6247 140.137 98.7188" stroke="black" stroke-width="12.7494" stroke-linecap="round" stroke-linejoin="round"/>
<path d="M48.496 100.35C54.6083 96.8213 58.9014 97.8426 62.8216 100.937" stroke="black" stroke-width="12.7494" stroke-linecap="round" stroke-linejoin="round"/>
<path d="M52.0502 156.897C59.351 156.897 65.2696 150.979 65.2696 143.678C65.2696 136.377 59.351 130.458 52.0502 130.458C44.7493 130.458 38.8308 136.377 38.8308 143.678C38.8308 150.979 44.7493 156.897 52.0502 156.897Z" fill="#EF972A"/>
<path d="M143.02 156.897C150.321 156.897 156.24 150.979 156.24 143.678C156.24 136.377 150.321 130.458 143.02 130.458C135.719 130.458 129.801 136.377 129.801 143.678C129.801 150.979 135.719 156.897 143.02 156.897Z" fill="#EF972A"/>
<path d="M95.5712 139.006C98.2795 139.006 100.475 136.811 100.475 134.103C100.475 131.394 98.2795 129.199 95.5712 129.199C92.8629 129.199 90.6675 131.394 90.6675 134.103C90.6675 136.811 92.8629 139.006 95.5712 139.006Z" fill="#C9570B"/>
<path d="M162.456 145.846C173.81 146.54 189.651 145.913 191.061 128.011C191.68 120.143 187.888 110.828 169.201 117.531L162.456 145.846Z" fill="#F7CA92"/>
<path d="M167.706 141.331C178.883 141.47 183.929 136.682 184.031 129.328C184.133 121.974 178.021 121.307 167.941 123.763L167.706 141.331Z" fill="#FF5555"/>
</svg>
