<svg width="87" height="34" viewBox="0 0 87 34" fill="none" xmlns="http://www.w3.org/2000/svg">
<path d="M1.19837 32.6248H3.52022V33.7913H0V27.6953H1.19837V32.6248Z" fill="white"/>
<path d="M7.52747 32.6248H10.074V33.7913H6.3291V27.6953H10.0366V28.8618H7.52747V30.1789H9.81187V31.3077H7.52747V32.6248Z" fill="white"/>
<path d="M17.1889 33.7532L16.8144 32.6619H14.3053L13.9308 33.7532H12.6201L14.7547 27.6572H16.2527L18.3873 33.7532H17.1889ZM14.7173 31.5331H16.4399L15.5786 29.0495L14.7173 31.5331Z" fill="white"/>
<path d="M24.4922 33.7532L23.2563 31.6459H22.3576V33.7532H21.1592V27.6572H23.5934C24.1551 27.6572 24.6419 27.8454 25.0164 28.2593C25.3909 28.6356 25.6156 29.1248 25.6156 29.6892C25.6156 30.0655 25.5033 30.4042 25.2786 30.7428C25.0539 31.0815 24.7917 31.3073 24.4173 31.4578L25.7654 33.7532H24.4922ZM22.3576 28.7861V30.5923H23.5934C23.8181 30.5923 24.0053 30.5171 24.1926 30.3289C24.3424 30.1408 24.4173 29.9526 24.4173 29.6892C24.4173 29.4258 24.3424 29.2377 24.1926 29.0495C24.0428 28.8614 23.8555 28.7861 23.5934 28.7861H22.3576Z" fill="white"/>
<path d="M32.1683 27.6572H33.3667V33.7532H32.4679L29.8839 30.0279V33.7532H28.6855V27.6572H29.5843L32.2058 31.3825V27.6572H32.1683Z" fill="white"/>
<path d="M37.8615 32.6248H40.408V33.7913H36.6631V27.6953H40.3705V28.8618H37.8615V30.1789H40.1459V31.3077H37.8615V32.6248Z" fill="white"/>
<path d="M46.7363 33.7532L45.5005 31.6459H44.6017V33.7532H43.4033V27.6572H45.8375C46.3992 27.6572 46.8861 27.8454 47.2606 28.2593C47.6351 28.6356 47.8598 29.1248 47.8598 29.6892C47.8598 30.0655 47.7474 30.4042 47.5227 30.7428C47.298 31.0815 47.0359 31.3073 46.6614 31.4578L48.0096 33.7532H46.7363ZM44.6017 28.7861V30.5923H45.8375C46.0622 30.5923 46.2495 30.5171 46.4367 30.3289C46.5865 30.1408 46.6614 29.9526 46.6614 29.6892C46.6614 29.4258 46.5865 29.2377 46.4367 29.0495C46.2869 28.8614 46.0997 28.7861 45.8375 28.7861H44.6017Z" fill="white"/>
<path d="M52.8782 33.8661C52.279 33.8661 51.7547 33.7156 51.3428 33.4522C50.9308 33.1888 50.6312 32.8125 50.4814 32.361L51.4926 31.7589C51.7173 32.3986 52.2041 32.6996 52.8782 32.6996C53.2152 32.6996 53.4774 32.6244 53.6272 32.5115C53.777 32.3986 53.8519 32.2481 53.8519 32.0599C53.8519 31.8341 53.7395 31.6836 53.5523 31.5707C53.365 31.4579 53.028 31.3073 52.5411 31.1944C52.279 31.1192 52.0543 31.0439 51.8671 30.9687C51.6798 30.8934 51.4926 30.7805 51.3053 30.63C51.1181 30.4795 50.9683 30.329 50.8934 30.1032C50.781 29.8774 50.7436 29.6516 50.7436 29.3882C50.7436 28.8238 50.9308 28.4099 51.3428 28.0712C51.7547 27.7325 52.2041 27.582 52.7658 27.582C53.2527 27.582 53.7021 27.6949 54.0766 27.9583C54.4511 28.1841 54.7506 28.5228 54.9379 28.9743L53.9268 29.5764C53.7021 29.0496 53.2901 28.7862 52.7658 28.7862C52.5037 28.7862 52.3165 28.8614 52.1667 28.9743C52.0169 29.0872 51.942 29.2377 51.942 29.4259C51.942 29.614 52.0169 29.7645 52.1667 29.8774C52.3165 29.9903 52.616 30.1408 53.0654 30.2537C53.2527 30.329 53.4025 30.3666 53.4774 30.4042C53.5897 30.4419 53.7021 30.4795 53.8519 30.5547C54.0017 30.63 54.1515 30.6676 54.2264 30.7429C54.3013 30.8182 54.4136 30.8934 54.526 30.9687C54.6383 31.0816 54.7132 31.1568 54.7881 31.2697C54.863 31.3826 54.9004 31.4955 54.9379 31.646C54.9753 31.7965 55.0128 31.947 55.0128 32.1352C55.0128 32.6996 54.8255 33.1512 54.4136 33.4898C54.0766 33.7156 53.5523 33.8661 52.8782 33.8661Z" fill="white"/>
<path d="M4.98103 0H0.0751953V24.9106H14.4182V20.207H4.98103V0Z" fill="white"/>
<path d="M25.0537 6.62305C22.3199 6.62305 20.073 7.52615 18.3128 9.29473C16.5527 11.1009 15.6914 13.3211 15.6914 15.9928C15.6914 18.7021 16.5902 20.9222 18.3503 22.7284C20.1104 24.497 22.4697 25.4001 25.3907 25.4001C28.7986 25.4001 31.3826 24.1207 33.1052 21.5995L29.4352 19.4547C28.5365 20.6588 27.2257 21.2232 25.4656 21.2232C22.7318 21.2232 21.0841 20.0944 20.4849 17.8742H33.8542C33.9666 17.1969 34.0415 16.5948 34.0415 15.9928C34.0415 13.3211 33.1801 11.1009 31.4949 9.29473C29.8097 7.52615 27.6377 6.62305 25.0537 6.62305ZM20.41 14.3371C20.6721 13.2082 21.1964 12.3051 22.0203 11.703C22.8067 11.0633 23.8553 10.7623 25.0537 10.7623C26.1023 10.7623 27.001 11.0633 27.8249 11.6654C28.6488 12.2675 29.1731 13.1706 29.4352 14.3747H20.41V14.3371Z" fill="white"/>
<path d="M50.5191 9.21947C49.1335 7.48852 47.2236 6.62305 44.752 6.62305C42.3927 6.62305 40.3704 7.52615 38.6852 9.33236C37 11.1386 36.1387 13.3587 36.1387 15.9928C36.1387 18.6268 37 20.8469 38.6852 22.6531C40.3704 24.4594 42.3927 25.3625 44.752 25.3625C47.2236 25.3625 49.171 24.497 50.5191 22.766V24.8733H55.0879V7.11223H50.5191V9.21947ZM49.1335 19.6052C48.1973 20.5459 47.0364 20.9975 45.6133 20.9975C44.1902 20.9975 43.0293 20.5459 42.0931 19.6052C41.1569 18.6644 40.7075 17.4603 40.7075 15.9928C40.7075 14.5252 41.1569 13.3211 42.0931 12.3803C43.0293 11.4396 44.1902 10.9881 45.6133 10.9881C47.0364 10.9881 48.1973 11.4396 49.1335 12.3803C50.0697 13.3211 50.5191 14.5252 50.5191 15.9928C50.5191 17.4603 50.0697 18.6644 49.1335 19.6052Z" fill="white"/>
<path d="M69.5433 25.3997C71.94 25.3997 73.9623 24.4966 75.6475 22.6904C77.3327 20.8842 78.194 18.664 78.194 16.03C78.194 13.3959 77.3327 11.1758 75.6475 9.36959C73.9623 7.56338 71.94 6.66028 69.5433 6.66028C67.1465 6.66028 65.2741 7.48812 63.9259 9.14381V8.20308C63.9259 8.16545 63.9259 8.09019 63.8885 8.05256V8.01493L61.8288 3.49941C61.7164 3.27363 61.4168 3.27363 61.3045 3.49941L59.3197 8.12782C59.2822 8.20308 59.2822 8.24071 59.2822 8.31597V32.9256C59.2822 33.1137 59.3946 33.2642 59.5444 33.2642C59.6193 33.2642 59.7316 33.3019 59.8814 33.3395L59.9189 9.70825C60.3683 10.0469 60.7802 9.52011 60.7802 9.52011V33.49C61.679 33.6029 62.8399 33.6781 63.7012 33.4524C63.851 33.4147 63.9634 33.2642 63.9634 33.1137V30.9688V22.9914C65.2366 24.5718 67.1091 25.3997 69.5433 25.3997ZM69.2062 10.8748C72.0898 10.8748 74.4117 13.2078 74.4117 16.1052C74.4117 19.0027 72.0898 21.3357 69.2062 21.3357C66.3227 21.3357 64.0008 19.0027 64.0008 16.1052C64.0008 13.2078 66.3601 10.8748 69.2062 10.8748ZM62.3905 8.3536C62.3905 8.3536 62.016 8.84278 61.6041 8.88041C61.0423 8.91804 60.7427 8.42885 60.7427 8.42885C60.7427 8.42885 60.1436 9.2567 59.6942 8.31597L60.9674 5.04221C60.9674 5.04221 61.5292 5.1551 62.1658 5.00458L63.4391 8.31597C63.4765 8.27834 62.8773 9.18144 62.3905 8.3536Z" fill="white"/>
<path d="M79.7663 1.16684L64.0376 0.188477C63.738 0.188477 63.4384 0.301365 63.2512 0.56477C63.0265 0.828176 62.9141 1.20447 63.0265 1.61839C63.0265 1.65602 63.0265 1.73128 63.0639 1.76891H63.0265L65.573 6.66073C66.8463 5.9834 68.3817 5.68236 70.1044 5.79525C72.7258 5.94577 74.9353 7.11228 76.658 9.21952C78.3432 11.2891 79.1296 13.735 78.9798 16.5572L86.0203 17.0464L86.1701 17.0088L86.2449 14.5629L79.7663 1.16684ZM85.833 16.1433L78.9424 2.59675L63.401 1.65602V1.61839V1.58076C63.3261 1.20447 63.4384 0.941064 63.5508 0.828176C63.6631 0.677658 63.8504 0.6024 64.0002 0.6024C64.0002 0.6024 64.0002 0.6024 64.0376 0.6024L79.5416 1.54313L85.8705 14.6005L85.833 16.1433Z" fill="white"/>
</svg>
